<?xml version="1.0" encoding="utf-8" ?><svg xmlns="http://www.w3.org/2000/svg" xmlns:xlink="http://www.w3.org/1999/xlink" width="1024" height="1024" viewBox="0 0 1024 1024"><path fill="#E9E7F1" d="M492.548 282.181C496.472 281.947 500.934 281.989 504.903 281.937C503.827 295.947 512.564 304.558 525.085 308.063C541.108 312.548 553.821 306.127 558.234 290.026C562.152 291.461 567.107 293.769 571.02 295.458C568.524 300.37 565.669 305.801 566.04 311.376C567.303 330.333 593.536 346.281 609.896 333.993C612.124 332.319 613.844 330.34 615.665 328.296C618.693 331.899 621.694 335.525 624.668 339.173C622.576 340.127 619.992 341.239 618.194 342.627C599.875 356.773 611.653 391.334 634.375 392.542C638.594 392.766 641.833 391.815 645.731 390.547C646.751 394.594 647.674 398.778 648.624 402.851C644.039 403.445 640.066 403.938 635.972 406.171C618.307 415.804 616.42 447.278 634.828 457.209C637.194 458.485 639.328 459.169 641.867 459.955C640.099 469.274 637.823 476.817 634.607 485.672C617.825 480.022 588.937 472.919 574.139 463.372C567.3 458.961 572.144 438.279 573.014 430.454C573.528 425.786 573.622 421.081 573.295 416.397C572.022 396.651 561.154 378.181 546.457 365.215C530.272 350.879 509.355 345.716 488.254 346.801C448.211 348.86 415.476 384.534 419.135 424.883C420.542 440.397 428.363 455.117 440.394 465.152C450.193 473.49 462.967 477.476 475.769 476.191C487.523 475.006 498.863 469.127 506.413 459.98C518.107 445.811 519.411 420.864 504.334 408.503C492.898 399.389 476.386 399.743 466.91 412.163C459.031 422.489 464.431 443.148 480.073 440.932C484.366 440.324 487.329 436.091 489.573 432.516C488.95 429.331 488.13 424.529 484.97 422.905C479.731 423.649 480.077 430.57 475.886 430.313C469.78 424.672 477.794 410.832 490.563 416.25C494.695 418.003 497.948 421.345 499.589 425.522C504.122 437.033 496.371 450.939 484.77 454.64C463.969 461.276 440.353 441.165 444.944 419.464C445.517 416.758 444.778 414.647 443.974 412.117C444.392 409.504 447.347 407.646 449.447 406.03C449.617 398.945 450.054 397.541 456.209 394.139C470.213 395.761 465.54 388.98 469.722 384.865C470.561 384.975 471.361 385.157 472.178 385.376C471.975 384.157 471.906 383.73 471.479 382.601L471.153 381.757C472.124 378.457 478.812 375.913 481.07 379.324C483.591 383.131 479.771 385.464 476.743 386.594L476.23 386.78C479.361 387.6 481.214 385.684 482.718 383.285C483.638 381.818 485.857 382.882 487.327 381.789C487.451 380.043 487.388 379.769 487.983 378.086C491.851 374.323 498.25 376.381 498.128 382.525L497.589 382.853C492.471 385.907 493.723 383.646 489.667 384.209L489.971 385.173C492.693 386.518 496.877 385.376 498.688 382.878C500.881 382.054 501.706 383.33 502.693 385.236C505.963 390.949 509.42 390.953 514.887 388.298C515.734 389.268 516.455 389.831 516.577 391.076C519.153 399.409 520.914 400.126 529.546 399.389C531.007 401.509 529.959 403.218 529.193 405.626C528.19 412.352 532.417 414.006 538.121 415.124C538.729 416.202 539.265 417.117 539.767 418.259C535.523 423.534 533.493 427.68 539.917 432.524C541.418 433.498 541.533 433.581 542.795 434.842C543.162 440.209 533.514 442.799 536.413 449.654C537.485 452.191 539.599 453.899 540.269 456.417C539.278 460.445 534.551 459.671 532.155 461.828C527.424 466.089 531.67 472.995 531.143 477.073C527.374 482.737 521.497 473.91 515.468 488.152C515.965 490.411 516.773 492.658 516.114 494.772C513.232 497.16 509.294 493.966 504.811 494.222C496.964 494.672 497.357 503.354 493.597 507.374C490.713 508.219 484.679 503.586 480.516 502.526C471.336 505.67 474.376 508.306 469.062 512.148C465.003 512.5 460.705 505.195 455.862 503.757C450.837 502.264 446.073 507.228 441.306 509.607C435.395 507.031 440.679 497.931 425.902 494.266C421.627 495.156 415.968 499.58 413.806 496.497C413.34 494.025 413.981 492.319 414.556 489.844C411.58 482.296 409.831 478.816 401.531 476.882C397.984 477.756 397.205 478.076 393.936 479.667C392.29 478.208 391.538 477.312 390.091 475.626C392.727 471.686 393.444 469.998 394.635 465.615C390.648 446.138 378.424 454.127 374.764 448.693C374.448 444.643 378.352 443.072 380.452 439.876C384.835 433.204 383.476 424.228 376.844 419.545C374.175 417.659 371.412 416.583 368.789 414.754C367.87 407.058 371.96 409.239 377.194 405.917C383.553 401.881 386.272 393.445 383.911 386.336C381.958 380.457 378.667 378.477 373.569 375.844C374.246 372.896 374.947 370.954 375.951 368.108C378.316 368.565 380.768 369.03 383.178 368.903C388.509 368.586 393.475 366.089 396.909 361.999C404.486 353.047 403.205 342.646 393.965 335.697L400.028 327.455C402.275 329.416 403.828 330.649 406.591 331.789C421.459 337.922 441.209 323.675 437.689 307.292C437.134 304.706 435.929 302.396 434.789 300.042C438.22 297.936 440.672 296.613 444.289 294.825C453.124 312.617 472.7 314.171 486.43 301.434C492.105 296.17 492.703 289.281 492.548 282.181Z"/><path fill="#E9E7F1" d="M497.058 191.215C501.78 190.693 511.571 190.779 516.456 190.829C553.72 191.286 590.516 199.192 624.679 214.082C696.187 245.08 755.61 307.736 784.191 380.091C807.983 439.843 811.603 505.732 794.498 567.73C789.23 586.595 783.719 599.863 776.048 617.59L765.702 617.342C769.737 608.364 773.897 599.452 777.384 590.248C788.872 559.681 795.108 527.391 795.828 494.745C799.541 349.804 685.09 214.904 539.739 201.325C535.279 200.909 530.856 200.595 526.375 200.485C487.449 198.492 444.649 204.903 408.47 220.209C336.535 250.641 278.564 309.74 249.192 382.106C225.357 440.83 221.611 506.185 239.104 567.169C244.739 586.813 250.231 598.958 258.34 617.574L248.535 617.732C231.406 582.352 221.466 543.926 219.293 504.678C215.116 423.08 244.248 347.151 298.723 286.79C349.519 229.856 420.877 195.469 497.058 191.215Z"/><path fill="#E9E7F1" d="M569.248 473.232C589.812 480.314 608.528 486.794 629.541 492.987C622.856 514.345 624.495 535.597 627.866 557.298C609.592 568.267 591.65 582.028 577.359 597.917C574.509 601.086 560.719 619.396 558.594 619.771L558.062 619.074C557.018 613.61 573.869 567.655 576.711 559.619C578.757 556.678 585.947 556.867 587.707 552.089C588.825 549.057 589.14 545.899 587.791 542.885C586.628 540.351 584.504 538.384 581.888 537.419C574.362 534.563 569.119 539.243 566.65 546.012C567.875 550.538 568.673 551.951 571.012 555.825C569.485 561.457 566.705 569.02 564.781 574.719C560.961 586.377 556.931 597.965 552.694 609.478C551.897 611.666 550.517 615.991 548.45 616.949C546.3 615.176 546.648 602.003 546.545 598.88C545.722 573.927 539.852 548.447 530.425 525.388C546.972 509.533 559.562 494.36 569.248 473.232Z"/><path fill="#E9E7F1" d="M706.85 668.064C729.913 666.813 749.649 684.442 750.997 707.5C752.346 730.558 734.801 750.368 711.749 751.815C688.558 753.271 668.602 735.597 667.245 712.4C665.888 689.203 683.647 669.322 706.85 668.064ZM714.238 739.892C730.958 737.007 742.126 721.052 739.114 704.354C736.102 687.657 720.064 676.609 703.389 679.747C686.892 682.852 675.987 698.683 678.967 715.203C681.947 731.724 697.695 742.747 714.238 739.892Z"/><path fill="#E9E7F1" d="M505.873 668.194C523.583 667.327 538.08 676.083 543.835 693.138C546.3 700.442 546.865 706.461 547.669 714.061C525.195 713.899 502.72 714.036 480.251 714.471C487.032 738.695 504.773 746.958 527.841 736.527C530.399 734.983 532.784 733.1 535.182 731.306C538.233 733.598 539.961 735.74 542.221 738.707C526.326 752.297 502.753 757.492 485.241 743.795C475.713 736.354 469.547 725.42 468.108 713.417C465.381 688.931 481.998 670.877 505.873 668.194ZM513.25 704.648L535.386 704.494C531.237 686.231 523.986 677.29 503.846 678.635C488.17 681.245 483.327 690.506 480.244 704.599L513.25 704.648Z"/><path fill="#E9E7F1" d="M861.266 668.661C880.39 665.442 897.726 676.819 902.879 695.264C904.801 702.147 905.416 706.96 906.158 714.02L839.393 713.901C844.062 737.471 863.168 746.743 885.105 737.531C889.098 735.256 890.732 734.069 894.473 731.226C897.004 733.685 899.02 735.876 901.381 738.508C876.623 763.538 832.933 751.791 827.4 715.562C825.648 703.974 828.646 692.168 835.716 682.82C842.407 673.958 850.48 670.164 861.266 668.661ZM872.031 704.563L894.436 704.471C890.355 687.866 882.5 676.743 863.273 678.669C847.197 680.839 842.316 690.014 839.251 704.483L872.031 704.563Z"/><path fill="#E9E7F1" d="M318.043 668.21C327.847 667.36 339.517 669.633 346.752 676.666C358.653 688.233 356.702 707.373 356.632 722.513C356.572 731.977 356.571 741.441 356.626 750.905L344.418 751.034C344.192 747.387 344.229 743.952 344.244 740.298C327.612 755.162 301.267 757.097 289.032 735.675C286.608 729.317 286.594 720.574 290.723 715.018C301.536 700.469 328.35 703.319 344.104 703.713C343.228 683.444 331.919 674.921 312.055 679.562C305.353 681.128 300.434 684.443 294.771 688.242C292.662 684.838 290.862 681.67 288.921 678.163C298.159 672.201 307.147 669.13 318.043 668.21ZM326.834 741.077C342.563 735.986 343.951 728.319 344.102 712.985C338.026 712.897 320.22 712.418 315.089 713.178C309.833 713.942 304.676 715.486 301.305 719.973C299.388 722.501 298.565 725.691 299.02 728.83C300.829 740.879 316.847 743.677 326.834 741.077Z"/><path fill="#E9E7F1" d="M125.457 642.395C129.587 642.538 134.264 642.457 138.44 642.483L138.472 683.38C138.476 689.129 138.768 700.757 138.125 706.028L171.933 671.098C177.106 665.683 195.36 645.908 200.105 643.002C205.089 642.592 207.948 642.734 213.03 642.978C209.132 649.037 200.646 657.621 195.425 663.199C186.634 672.623 177.791 681.998 168.897 691.324C176.17 700.583 183.498 709.798 190.881 718.969C198.781 728.9 208.659 740.691 215.639 751.062L201.587 751.252C197.419 747.051 189.83 736.964 185.91 732.019C177.495 721.291 168.922 710.688 160.193 700.213C155.112 706.414 141.069 719.315 138.033 724.129L138.038 750.752L125.857 751.002C125.175 738.698 125.521 723.794 125.508 711.284L125.457 642.395Z"/><path fill="#E9E7F1" d="M386.547 636.001L399.476 635.968L399.593 712.722C407.773 703.953 417.631 694.821 426.278 686.441C431.344 681.531 440.795 672.119 446.129 668.484L460.284 668.447C450.13 679.815 436.547 692.522 425.597 703.207C431.983 710.325 440.922 722.298 447.213 730.186C450.675 735.424 458.864 745.344 463.024 751.068L449.493 751.049C445.95 747.6 441.885 742.271 438.686 738.364C431.273 729.31 424.236 719.932 416.606 711.045C412.127 715.981 403.096 724.687 399.665 729.828C399.468 736.716 399.535 743.948 399.501 750.865C394.776 750.687 391.205 750.643 386.491 750.856L386.547 636.001Z"/><path fill="#E9E7F1" d="M607.947 668.197C616.93 666.736 629.762 670.667 636.165 677.469C645.626 687.521 645.223 703.994 645.868 717.145C646.401 728.009 645.728 739.868 645.678 751.008L633.192 751.097C633.074 732.374 635.109 711.503 630.419 693.304C626.708 678.9 610.698 676.684 598.524 680.929L597.705 681.391C594.975 682.911 593.586 683.68 591.213 685.937C587.799 689.14 585.296 693.191 583.957 697.676C580.892 707.586 582.378 738.696 582.082 750.963L570.091 750.991C569.955 747.405 569.989 743.598 570.022 740.003C570.241 716.22 569.561 692.267 570.212 668.503L582.78 668.51L582.534 680.594C590.813 672.101 596.124 669.698 607.947 668.197Z"/><path fill="#E9E7F1" d="M775.032 650.524L787.081 650.567L787.145 669.025L809.12 669.02L809.031 678.857C802.04 678.575 794.092 678.752 787.047 678.803C787.015 691.792 786.786 704.903 787.224 717.88C788.049 742.322 790.326 743.19 812.385 738.125C813.307 739.396 814.227 740.943 815.073 742.293L816.555 746.099C800.066 754.715 780.75 754.248 775.745 732.61C774.646 727.862 774.591 722.064 774.689 717.193C774.946 704.326 774.529 691.414 774.818 678.56L762.682 678.582L762.741 668.983L774.488 669.013C774.519 662.978 774.827 656.586 775.032 650.524Z"/><path fill="#E9E7F1" d="M245.525 681.794C246.639 680.503 247.778 679.234 248.942 677.987C255.916 670.625 264.868 668.617 274.578 668.314L274.634 679.911C246.623 678.85 246.148 698.801 245.524 719.875C245.431 730.203 245.567 740.707 245.602 751.049L233.04 751.123C232.697 723.701 232.849 696.275 233.497 668.859L245.035 668.83L245.239 668.959C245.821 670.667 245.543 679.428 245.525 681.794Z"/><path fill="#E9E7F1" d="M643.109 409.587C651.976 408.801 658.043 412.327 661.457 420.763C664.174 427.65 664.061 435.332 661.142 442.137C658.3 448.593 654.592 451.364 648.424 453.894C624.851 456.613 619.858 419.164 643.109 409.587Z"/><path fill="#E9E7F1" d="M630.156 344.132C653.585 346.116 661.122 381.806 637.611 386.467C633.59 386.33 629.242 384.673 625.993 382.322C620.379 378.203 616.632 372.024 615.575 365.143C613.932 354.399 619.058 345.704 630.156 344.132Z"/><path fill="#E9E7F1" d="M585.885 295.137C606.396 294.273 626.618 323.413 599.566 332.264C574.31 332.943 560.565 299.476 585.885 295.137Z"/><path fill="#E9E7F1" d="M527.422 271.208C537.688 270.042 550.682 275.824 552.149 287.019C552.596 290.467 551.603 293.947 549.402 296.638C545.723 301.148 540.539 302.218 535.123 302.774C525.125 304.049 512.26 298.233 510.74 287.226C510.239 283.713 511.191 280.148 513.377 277.353C517.043 272.698 521.969 271.725 527.422 271.208Z"/><path fill="#E9E7F1" d="M469.019 275.192C488.882 271.831 496.846 298.289 468.685 303.649C443.416 304.994 444.332 277.997 469.019 275.192Z"/><path fill="#E9E7F1" d="M418.714 300.521C441.187 299.283 436.162 322.36 417.103 328.482C395.021 329.417 399.968 307.649 418.714 300.521Z"/><path fill="#E9E7F1" d="M385.138 338.536C403.362 337.474 398.884 359.257 385.462 365.475C367.916 366.127 370.685 344.871 385.138 338.536Z"/><path fill="#E9E7F1" d="M369.58 379.985C370.676 379.976 371.84 379.971 372.907 380.235C375.513 380.876 377.743 382.556 379.079 384.884C383.247 392.232 379.037 401.183 371.836 404.848C358.476 407.72 357.057 388.199 369.58 379.985Z"/><path fill="#E9E7F1" d="M368.121 419.316C379.98 419.964 384.249 436.061 372.716 443.032C365.897 442.508 361.31 436.892 361.861 429.985C362.27 424.862 364.393 422.478 368.121 419.316Z"/><path fill="#E9E7F1" d="M378.923 453.926C389.637 454.017 396.379 466.563 386.265 474.112C377.357 473.937 367.688 460.446 378.923 453.926Z"/><path fill="#E9E7F1" d="M398.97 479.987C408.954 480.183 416.502 491.12 407.043 496.94C406.437 496.884 405.833 496.81 405.232 496.718C396.715 495.376 388.867 486.28 398.97 479.987Z"/><path fill="#E9E7F1" d="M422.614 497.524C432.068 496.953 442.053 506.651 431.278 512.339C422.384 512.978 411.301 503.402 422.614 497.524Z"/><path fill="#E9E7F1" d="M451.712 506.486C461.258 506.237 467.959 515.737 455.842 519.993C446.23 519.987 439.442 511.438 451.712 506.486Z"/><path fill="#E9E7F1" d="M478.58 506.065C488.766 504.777 494.566 513.45 482.982 518.56C473.796 520.567 467.319 512.133 478.58 506.065Z"/><path fill="#E9E7F1" d="M504.028 497.108C516.255 495.809 515.886 504.181 506.833 509.325C496.216 512.627 494.084 502.984 504.028 497.108Z"/><path fill="#E9E7F1" d="M525.024 480.496C536.205 481.153 530.945 491.135 524.528 494.772C513.229 494.47 518.001 484.517 525.024 480.496Z"/><path fill="#E9E7F1" d="M537.692 460.448C547.627 461.966 543.277 471.379 537.368 475.292C527.481 474.652 531.524 464.642 537.692 460.448Z"/><path fill="#E9E7F1" d="M542.739 439.887L544.992 439.985C550.495 442.959 548.354 451.088 543.464 453.894C542.194 453.405 540.422 452.547 539.493 451.557C538.358 450.364 537.773 448.75 537.879 447.107C538.119 443.768 540.333 441.801 542.739 439.887Z"/><path fill="#E9E7F1" d="M540.961 419.749C550.969 420.947 548.092 434.486 540.625 431.94C535.821 427.432 536.653 424.216 540.961 419.749Z"/><path fill="#E9E7F1" d="M530.231 406.323C530.906 404.158 532.275 400.601 534.983 401.606C540.709 403.73 540.144 409.907 539.289 414.005C533.223 413.233 531.233 412.534 530.231 406.323Z"/><path fill="#E9E7F1" d="M518.113 390.154C524.772 388.02 531.038 390.244 528.852 398.204C521.653 399.089 519.385 397.4 518.113 390.154Z"/><path fill="#E9E7F1" d="M503.369 384.466C504.359 376.239 516.451 379.761 513.989 387.405C509.455 389.43 506.219 388.411 503.369 384.466Z"/><path fill="#E9E7F1" d="M462.068 384.378C464.493 384.591 465.02 384.661 466.517 386.521C467.345 389.951 464.904 391.957 462.313 393.561C454.685 393.361 458.29 387.329 462.068 384.378Z"/><path fill="#0B0A0A" fill-opacity="0.027450981" d="M539.767 418.259L540.961 419.749C536.653 424.216 535.821 427.432 540.625 431.94L539.917 432.524C533.493 427.68 535.523 423.534 539.767 418.259Z"/><path fill="#0B0A0A" fill-opacity="0.043137256" d="M516.577 391.076L518.113 390.154C519.385 397.4 521.653 399.089 528.852 398.204L529.546 399.389C520.914 400.126 519.153 399.409 516.577 391.076Z"/><path fill="#0B0A0A" fill-opacity="0.078431375" d="M529.193 405.626C529.946 406.373 529.547 406.254 530.231 406.323C531.233 412.534 533.223 413.233 539.289 414.005L538.121 415.124C532.417 414.006 528.19 412.352 529.193 405.626Z"/><path fill="#0B0A0A" fill-opacity="0.035294119" d="M503.369 384.466C506.219 388.411 509.455 389.43 513.989 387.405L514.887 388.298C509.42 390.953 505.963 390.949 502.693 385.236L503.369 384.466Z"/><path fill="#0B0A0A" fill-opacity="0.11764706" d="M498.688 382.878C496.877 385.376 492.693 386.518 489.971 385.173L489.667 384.209C493.723 383.646 492.471 385.907 497.589 382.853L498.128 382.525L498.688 382.878Z"/></svg>