<?xml version="1.0" encoding="utf-8" ?><svg xmlns="http://www.w3.org/2000/svg" xmlns:xlink="http://www.w3.org/1999/xlink" width="1024" height="1024" viewBox="0 0 1024 1024"><path fill="white" d="M0 0L1024 0L1024 1024L0 1024L0 0Z"/><path fill="#141313" d="M492.562 282.287C496.072 281.91 500.885 281.899 504.502 281.788C504.329 287.096 504.467 291.38 507.541 295.985C519.671 314.157 552.984 314.691 558.44 290.446C563.14 292.319 566.521 293.736 571.089 296.038C555.99 316.313 578.102 339.824 599.583 338.319C606.882 337.807 611.538 333.979 615.902 328.458C619.102 331.964 621.529 335.139 624.356 338.939C593.633 352.229 612.478 401.776 645.65 390.497C646.658 394.557 647.495 398.86 648.359 402.968C615.436 403.309 611.552 453.449 641.691 460.052C640.108 468.555 637.494 477.21 635.006 485.487C633.611 485.078 632.22 484.655 630.834 484.218L598.409 473.817C593.558 472.276 580.087 468.359 576.354 466.032C566.28 459.75 571.497 442.558 572.77 433.562C573.421 429.114 573.686 424.618 573.562 420.125C571.753 362.694 506.024 328.691 456.979 355.318C439.438 364.979 426.481 381.242 420.984 400.498C416.583 415.78 417.618 433.818 425.644 447.738C432.867 460.265 444.156 471.23 458.381 475.061C470.306 478.193 482.984 476.517 493.685 470.393C512.182 459.758 522.376 435.384 510.989 416.148C507.163 409.592 500.844 404.866 493.473 403.05C472.716 397.92 453.61 416.636 467.332 436.481C469.738 439.209 473.106 440.901 476.731 441.204C491.389 442.344 493.287 422.066 481.689 422.91C478.382 425.299 480.5 428.437 478.473 431.147L477.407 431.068C467.285 424.036 480.226 412.82 488.834 415.677C501.584 419.685 503.619 435.729 496.82 445.22C483.021 464.483 454.496 455.082 446.548 435.564C445.853 433.857 446.586 429.825 444.568 427.217C442.681 424.777 444.713 420.571 445.661 418.221C440.207 408.049 449.301 409.433 449.238 405.544C449.023 392.356 454.53 396.005 464.072 394.174C466.67 393.676 468.3 387.665 469.18 385.413C472.412 385.309 475.32 390.077 479.955 386.236C481.807 384.701 482.597 381.73 484.483 380.996C490.097 382.461 491.177 393.084 501.11 379.855C501.357 380.745 501.611 381.634 501.87 382.521C505.091 393.977 510.36 388.614 517.026 388.486L517.701 389.142C516.119 399.271 520.767 399.331 529.188 399.801C531.261 402.033 527.347 407.138 530.014 411.375C533.398 416.751 538.123 413.1 540.334 417.889C540.179 418.006 540.025 418.123 539.87 418.239L539.198 418.771C528.932 426.734 542.646 433.96 543.246 436.619C541.479 440.199 535.794 440.169 535.914 446.829C536.009 452.07 541.101 453.956 541.131 457.508C537.472 461.765 529.042 456.581 529.711 472.711C530.795 474.259 532.086 475.273 532.008 477.231C529.008 480.928 519.677 474.102 515.129 489.36L515.352 489.964L515.687 490.902C516.56 493.286 516.734 493.241 516.583 495.761C514.822 497.398 507.454 492.408 502.33 494.751C495.211 498.007 497.132 502.038 494.302 507.348C490.673 509.292 486.067 502.334 479.346 503.26C470.838 504.431 471.862 513.142 466.038 513.275C464.413 510.239 461.752 506.906 458.817 505.148C450.455 500.141 445.77 508.446 440.807 509.776C437.924 509.259 438.857 507.546 437.949 504.715C437.351 502.819 436.43 501.041 435.227 499.46C429.423 491.924 422.396 493.434 415.782 498.703C414.267 497.632 413.973 497.421 412.673 496.125C413.754 492.243 414.969 488.331 412.853 484.713C408.146 476.664 401.421 475.306 393.672 479.014L390.067 475.246C392.937 472.111 394.271 469.845 394.142 465.392C393.984 461.017 392.026 456.901 388.731 454.019C384.02 449.949 381.939 451.034 376.51 451.322C375.392 450.252 374.737 447.634 374.2 446.055C388.64 438.146 384.316 417.191 368.501 416.252L368.675 409.528L369.38 409.411C387.852 406.459 389.709 380.654 373.444 376.117L376.114 368.389C394.876 375.069 411.848 348.166 393.909 335.113C395.92 332.514 398.119 329.942 400.23 327.413C406.714 334.248 414.413 335.257 422.995 331.492C429.696 328.595 434.944 323.115 437.547 316.293C439.899 309.937 437.933 306.376 435.116 300.366C435.956 298.268 442.172 295.834 444.566 294.724C445.892 298.473 447.371 301.507 450.526 304.15C463.81 315.281 490.428 307.589 492.957 289.494C493.256 287.357 492.834 284.48 492.562 282.287Z"/><path fill="#4D4D4D" d="M497.144 191.25C541.473 188.785 585.756 196.86 626.362 214.814C698.761 247.594 755.546 307.285 784.676 381.229C808.541 442.075 811.559 509.117 793.257 571.862C788.06 589.506 783.204 600.886 775.862 617.476L765.374 617.485C783.786 579.831 794.172 541.829 795.855 499.776C798.25 423.537 770.629 349.403 718.931 293.318C668.217 238.356 601.26 203.478 525.875 200.417C483.451 196.969 433.934 207.61 395.736 225.879C325.133 259.851 270.776 320.297 244.462 394.097C217.728 470.395 224.041 545.28 258.85 617.539L248.474 617.469C231.355 582.287 221.464 544.028 219.386 504.957C215.049 422.949 244.234 346.998 298.922 286.323C349.765 229.588 421.073 195.386 497.144 191.25Z"/><path fill="#293A59" d="M569.399 473.654L629.089 493.155C622.003 516.07 624.375 534.076 627.775 556.838C609.445 568.504 592.542 581.249 577.694 597.196C574.203 600.945 561.165 618.353 558.717 619.361C557.81 619.734 558.186 619.656 557.165 619.222C556.723 615.875 574.348 566.53 576.995 559.197L577.466 558.323C593.468 554.715 590.874 539.309 580.717 536.681C577.75 535.892 574.59 536.343 571.963 537.931C568.122 540.248 567.408 542.791 566.362 546.758C567.298 551.099 567.664 552.345 570.682 555.562C564.515 575.371 556.97 594.877 551.042 614.789C550.802 615.596 550.436 615.974 549.865 616.542C547.922 616.98 548.888 617.021 546.887 616.175C546.412 613.398 546.844 607.8 546.882 604.797C547.239 576.547 540.342 551.814 530.76 525.551C550.06 505.842 556.4 498.388 569.399 473.654Z"/><path fill="#141313" d="M703.622 668.192C726.514 665.28 747.452 681.424 750.458 704.303C753.464 727.183 737.407 748.188 714.54 751.288C691.539 754.407 670.385 738.235 667.361 715.222C664.337 692.208 680.596 671.121 703.622 668.192Z"/><path fill="white" d="M703.19 679.755C719.751 676.603 735.738 687.453 738.926 704.007C742.114 720.562 731.299 736.572 714.752 739.796C698.153 743.03 682.082 732.175 678.885 715.569C675.687 698.963 686.578 682.916 703.19 679.755Z"/><path fill="#141313" d="M501.388 668.654C511.446 667.223 525.097 670.115 533.055 676.76C544.352 686.192 546.23 699.818 547.54 713.585C540.998 714.356 528.758 713.923 521.618 713.873C507.8 713.73 493.98 713.749 480.162 713.929C480.592 717.157 480.818 718.888 481.944 722.006C484.45 729.05 489.743 734.753 496.58 737.778C506.184 742.13 516.142 741.126 525.76 737.538C529.294 735.885 532.677 733.253 535.868 730.949L542.123 738.532C526.189 752.583 504.3 756.626 485.991 744.364C477.024 738.378 470.807 729.072 468.709 718.497C464.007 694.03 476.346 673.089 501.388 668.654Z"/><path fill="white" d="M502.95 678.58C523.213 677.504 531.115 685.929 536.01 704.624L513.043 704.672L480.153 704.877C482.203 689.05 487.381 682.857 502.95 678.58Z"/><path fill="#141313" d="M865.373 668.212C894.447 667.194 904.035 687.862 906.026 713.564L838.898 713.475C843.536 739.065 865.038 746.773 887.256 736.199C889.954 734.634 892.298 732.72 894.768 730.817C896.833 733.484 898.922 735.914 901.114 738.475C886.715 754.03 858.418 756.034 842.132 742.333C833.424 734.886 828.012 724.3 827.075 712.88C826.112 701.32 829.639 689.244 837.274 680.415C844.81 671.701 854.309 669.088 865.373 668.212Z"/><path fill="white" d="M861.469 678.586C881.265 677.722 890.454 685.567 894.517 704.524L873.25 704.615L839.083 704.48C842.691 688.847 845.395 683.618 861.469 678.586Z"/><path fill="#141313" d="M314.815 668.672C318.277 668.342 321.758 668.252 325.233 668.403C333.808 668.807 342.587 671.436 348.407 678.087C351.837 682.005 353.89 686.852 355.04 691.885C357.736 703.681 356.818 737.362 356.049 750.572L345.106 750.53L344.437 739.518C342.904 740.798 341.327 742.024 339.708 743.193C323.567 754.669 302.136 755.014 289.96 737.705C288.213 734.027 287.003 729.364 287.308 725.288C289.207 699.938 326.561 703.139 344.094 704.439C343.717 671.386 315.436 674.376 294.78 687.941L289.455 678.226C297.701 671.81 304.727 670.128 314.815 668.672Z"/><path fill="white" d="M318.34 712.708C323.723 712.045 338.247 712.769 344.089 712.977C345.213 728.895 341.623 736.629 325.915 741.379C318.842 742.698 310.796 742.123 304.642 737.979C298.61 733.916 296.048 725.434 300.944 719.429C305.286 714.103 311.918 713.317 318.34 712.708Z"/><path fill="#141313" d="M125.538 642.5L138.048 642.511C138.343 645.21 138.386 647.954 138.368 650.668C138.245 669.115 137.474 687.577 138.469 706.014C144.014 701.09 149.086 694.79 154.374 689.551C169.216 674.846 184.64 656.477 199.865 642.503C204.142 642.47 208.794 642.813 213.094 643.043C208.514 649.424 199.947 658.129 194.438 663.869L168.906 690.404C175.601 700.402 182.858 709.033 190.429 718.348C199.218 729.181 207.433 738.939 215.296 750.468L202.022 750.928C187.72 734.072 174.402 717.061 160.439 699.997C154.68 704.869 142.584 718.013 138.025 723.799L138.026 750.517L125.993 750.525L125.538 642.5Z"/><path fill="#141313" d="M387.253 636.071C391.223 635.739 394.455 635.801 398.449 635.855C399.204 661.571 398.776 687.425 399.07 713.188C412.33 699.663 431.889 680.655 445.874 668.54L460.512 668.535C449.53 679.798 436.701 691.57 425.304 702.96C432.275 711.274 439.658 720.967 446.613 729.536C452.208 736.366 457.627 743.339 462.865 750.448C458.05 750.476 453.874 750.696 449.09 750.996L416.839 710.858C410.563 717.189 404.378 723.155 399.001 730.286C399.02 736.613 399.245 744.291 398.394 750.444L386.566 750.491C386.237 720.369 386.633 690.178 386.542 660.051C386.518 652.14 386.452 643.926 387.253 636.071Z"/><path fill="#141313" d="M582.049 680.577C590.787 672.709 596.729 668.761 608.993 668.373C618.458 668.074 628.397 669.546 635.439 676.525C646.926 687.909 645.601 709.177 645.559 724.208L645.458 750.832L633.487 750.654C633.312 735.536 634.061 717.266 632.938 702.429C628.397 669.958 590.659 673.246 583.418 697.541C580.165 708.459 581.743 738.187 581.779 750.5L570.09 750.5C569.933 723.202 569.947 695.904 570.131 668.607L582.174 668.586L582.049 680.577Z"/><path fill="#141313" d="M775.317 650.687L786.914 650.524L786.958 669.052L809.27 669.007L809.173 678.539L786.919 678.6C786.838 689.612 784.541 731.827 791.597 738.638C797.874 744.698 805.458 737.713 811.778 738.576C813.296 738.783 813.422 739.438 814.269 740.624L816.361 745.884C810.721 749.05 806.042 750.919 799.483 751.133C770.596 752.078 774.474 720.948 774.833 701.58C774.956 694.034 775.002 686.488 774.973 678.941L762.661 678.522L763.029 669.001L774.749 668.979C774.756 662.726 774.692 656.923 775.317 650.687Z"/><path fill="#141313" d="M245.363 682.057C246.751 680.495 248.159 678.951 249.585 677.425C257.195 669.36 264.228 668.743 274.461 668.452L274.444 679.471C252.945 679.745 246.452 690.486 245.497 710.375L245.337 750.551L233.486 750.494L233.114 698.147C233.046 689.503 232.778 679.517 233.651 670.871C233.803 669.367 234.349 669.243 235.281 668.701L245.489 668.631L245.363 682.057Z"/><path fill="#141313" d="M643.05 409.603C667.172 406.357 671.028 446.222 648.265 453.932C623.036 454.938 621.479 418.529 643.05 409.603Z"/><path fill="#141313" d="M627.635 344.086C651.34 342.66 661.967 378.559 639.269 386.137C616.775 387.923 604.876 352.756 627.635 344.086Z"/><path fill="#141313" d="M583.077 295.592C608.429 292.605 624.057 323.999 602.128 331.336C578.155 335.903 559.945 304.635 583.077 295.592Z"/><path fill="#141313" d="M526.038 271.12C551.592 269.266 564.001 295.691 537.886 302.579C510.538 306.211 498.797 275.963 526.038 271.12Z"/><path fill="#141313" d="M467.12 275.086C491.688 272.831 494.962 297.288 470.417 303.393C445.395 306.076 442.216 280.702 467.12 275.086Z"/><path fill="#141313" d="M421.606 300.183C441.427 301.536 434.478 325.07 414.382 328.672C393.996 327.223 402.017 302.533 421.606 300.183Z"/><path fill="#141313" d="M386.861 338.137C402.948 338.816 398.565 361.995 383.252 365.345C367.172 364.994 371.06 341.119 386.861 338.137Z"/><path fill="#141313" d="M369.016 380.055C383.784 379.149 383.966 399.381 371.932 405.165C357.255 406.534 357.417 385.907 369.016 380.055Z"/><path fill="#141313" d="M368.517 419.564C380.758 421.041 383.45 437.501 372.858 442.74C359.831 442.608 357.506 423.317 368.517 419.564Z"/><path fill="#141313" d="M377.861 454.059C389.269 453.218 395.752 466.32 386.993 473.412C375.797 475.011 369.297 460.654 377.861 454.059Z"/><path fill="#141313" d="M397.966 480.058C408.077 479.249 416.498 490.333 407.43 496.655C397.55 497.039 388.6 487.076 397.966 480.058Z"/><path fill="#141313" d="M422.432 497.536C432.251 496.986 441.482 506.292 431.105 512.514C421.506 512.905 411.796 503.074 422.432 497.536Z"/><path fill="#141313" d="M451.728 506.543C461.706 506.64 467.68 516.189 456.206 520.006C445.783 520.256 439.312 510.541 451.728 506.543Z"/><path fill="#141313" d="M479.566 506.127C490.277 505.376 493.368 514.633 482.578 518.844C470.272 519.832 469.001 509.013 479.566 506.127Z"/><path fill="#141313" d="M505.02 496.534C516.983 496.498 514.48 505.619 505.272 509.792C493.838 509.96 496.336 500.427 505.02 496.534Z"/><path fill="#141313" d="M525.214 480.492C535.699 480.359 531.802 490.574 524.35 494.42C513.903 494.359 517.5 484.061 525.214 480.492Z"/><path fill="#141313" d="M537.076 461.001C546.581 460.41 544.326 471.065 537.886 475.124C528.846 475.688 530.204 465.208 537.076 461.001Z"/><path fill="#141313" d="M543.744 439.345C550.995 441.869 549.41 450.266 543.617 453.953C535.7 451.103 536.702 442.495 543.744 439.345Z"/><path fill="#141313" d="M541.679 419.273C548.22 421.461 549.78 429.728 542.732 432.74C536.093 429.77 535.825 423.515 541.679 419.273Z"/><path fill="#141313" d="M532.5 401.951C539.456 401.943 542.958 407.938 538.56 413.608C531.617 413.512 528.023 407.631 532.5 401.951Z"/><path fill="#141313" d="M521.021 388.402C526.614 388.778 531.73 393.236 527.244 398.611C521.244 398.249 516.16 394.363 521.021 388.402Z"/><path fill="#141313" d="M506.908 379.435C510.644 380.038 515.119 381.514 514.317 386.173C513.172 387.865 513.013 387.852 511.031 388.638C507.151 388.201 503.704 386.666 503.884 382.28C504.767 380.524 505.23 380.421 506.908 379.435Z"/><path fill="#141313" d="M489.408 376.567L490.32 376.491C495.935 376.075 501.98 379.683 495.414 384.063C491.805 384.569 487.935 384.231 487.092 380.04C487.546 378.078 487.832 377.993 489.408 376.567Z"/><path fill="#141313" d="M475.408 377.994C475.808 377.978 476.207 377.969 476.607 377.965C478.845 377.951 479.48 378.051 481.068 379.596C482.418 383.14 480.318 384.285 477.547 385.865C474.854 386.058 473.97 386.267 471.956 384.22C470.742 380.678 472.596 379.587 475.408 377.994Z"/><path fill="#141313" d="M461.585 384.957C469.364 384.525 467.437 390.108 462.702 393.462C460.435 393.704 459.654 393.9 457.863 392.252C456.748 388.51 458.726 386.936 461.585 384.957Z"/></svg>