<?xml version="1.0" encoding="utf-8" ?><svg xmlns="http://www.w3.org/2000/svg" xmlns:xlink="http://www.w3.org/1999/xlink" width="1024" height="1024" viewBox="0 0 1024 1024"><path fill="#282B2F" d="M0 0L1024 0L1024 1024L0 1024L0 0Z"/><path fill="#E8E6F2" d="M492.592 282.533C497.015 281.984 500.305 282.028 504.73 282.043C504.429 287.468 504.418 291.806 507.797 296.483C520.397 313.923 553.468 315.481 558.267 290.293C562.784 291.908 566.862 293.842 571.168 295.916C562.005 308.711 565.788 322.028 577.857 331.357C590.275 340.955 605.401 342.181 615.795 328.382C618.871 331.767 621.777 335.304 624.5 338.98C593.32 350.866 614.462 404.721 645.626 390.545C646.793 394.819 647.523 398.636 648.353 402.966C643.113 403.217 638.977 403.754 634.411 406.794C615.458 419.414 617.001 455.145 641.994 459.809C640.119 467.647 637.719 478.079 634.61 485.352C624.473 482.375 581.84 469.859 575.094 464.676C566.206 457.845 572.114 440.192 573.142 431.208C573.792 425.529 573.917 419.42 573.212 413.742C570.663 393.233 559.12 374.76 542.883 362.302C524.694 348.346 502.904 344.583 480.606 347.572C462.087 350.054 444.762 361.251 433.551 375.998C422.116 391.041 416.665 409.501 419.277 428.304C421.402 443.603 430.685 458.313 443.07 467.448C453.17 474.937 465.871 478.019 478.28 475.994C490.097 474.2 500.716 467.781 507.796 458.151C519.004 442.699 519.043 418.488 502.269 406.922C496.083 402.692 488.438 401.172 481.105 402.714C468.542 405.393 460.575 416.679 463.879 429.601C465.921 437.587 472.88 443.068 481.423 440.728C484.999 439.749 487.505 436.48 489.183 433.272L489.511 432.633L489.307 431.27C488.737 427.177 488.009 424.465 483.863 422.522C478.637 423.026 480.544 429.368 478.247 431.061C470.496 430.049 473.571 411.555 489.334 415.985C493.458 417.182 496.889 420.057 498.789 423.909C501.378 429.095 500.936 434.859 499.119 440.17C494.143 454.72 478.937 458.774 465.524 453.72C456.984 450.503 451.025 445.107 447.244 436.708C445.411 432.635 444.107 427.403 444.037 422.916C444.052 422.381 445.52 418.619 445.79 417.93C441.934 412.094 444.677 409.371 449.611 406.387C449.768 402.905 449.731 401.104 450.731 397.759C452.556 396.336 454.486 395.176 456.439 393.936C467.206 397.847 466.277 390.753 469.703 384.387C470.769 383.437 470.301 383.968 470.561 381.993L471.031 382.283C473.975 377.763 478.503 376.252 482.248 380.905L482.991 381.787L484.286 380.907C486.888 381.512 489.226 386.032 493.472 385.79C497.528 385.558 498.95 383.17 501.038 380.214C505.432 397.031 513.164 387.109 517.201 388.719L517.381 390.117L518.341 390.938C524.039 386.414 529.914 390.996 528.825 397.581L529.691 399.139C529.978 399.561 530.346 400.263 530.608 400.726C524.535 417.17 537.562 412.84 540.389 417.251C539.487 418.311 538.617 419.397 537.78 420.51C532.623 427.421 537.238 430.937 542.835 434.741C543.842 438.261 537.809 439.918 536.541 444.811C534.773 451.637 538.69 451.881 541.128 456.788C541.088 457.179 541.047 457.569 541.006 457.959C537.847 459.402 535 459.619 532.413 462.077C526.444 467.745 531.803 473.144 531.55 477.796C528.422 480.509 520.89 474.773 515.515 488.039L515.239 488.735C519.414 503.595 510.197 490.553 501.607 495.262C495.821 498.433 496.553 502.539 494.495 507.65C491.294 509.773 485.725 502.209 479.416 503.295C471.068 504.731 472.816 512.463 466.282 513.201C458.508 501.719 452.316 500.415 442.052 509.962C441.446 510.018 439.388 509.686 439.295 509.29C437.838 503.13 434.927 496.153 428.049 494.586C423.484 493.545 419.474 495.979 415.829 498.508C414.851 497.944 414.262 497.519 413.343 496.856C412.845 495.154 414.122 491.972 414.596 490.107C411.567 479.593 404.133 473.668 393.729 479.48L390.202 475.382C395.97 468.394 395.744 460.373 388.557 453.839C384.643 450.281 381.381 450.879 376.49 451.328C375.203 450.14 374.643 447.812 374.036 446.071C383.44 441.132 385.335 432.003 380.009 422.701C377.351 418.059 373.491 416.742 368.558 415.798L368.553 409.515C381.293 407.072 387.72 397.238 383.041 383.943C381.59 379.822 377.477 377.341 373.417 376.011L375.909 368.337C398.588 374.63 410.712 344.728 393.862 335.53C395.666 332.992 398.201 330.056 400.212 327.605C402.389 329.546 405.588 332.011 408.405 332.631C427.494 336.831 445.799 318.256 434.798 299.893C437.428 298.281 441.578 296.332 444.434 294.892C445.964 298.493 448.079 302.383 451.342 304.607C468.819 316.524 495.432 305.55 492.592 282.533Z"/><path fill="#E8E6F2" d="M518.341 390.938C524.039 386.414 529.914 390.996 528.825 397.581C527.936 398.048 526.736 398.44 525.734 398.547C524.058 398.72 522.385 398.206 521.094 397.124C519.096 395.414 518.643 393.397 518.341 390.938Z"/><path fill="#E8E6F2" d="M471.031 382.283C473.975 377.763 478.503 376.252 482.248 380.905C481.072 384.245 478.15 387.428 474.273 386.073C472.889 385.588 471.798 384.503 471.307 383.121C471.215 382.842 471.123 382.562 471.031 382.283Z"/><path fill="#232326" d="M482.248 380.905L482.991 381.787C481.495 389.404 474.634 388.16 469.703 384.387C470.769 383.437 470.301 383.968 470.561 381.993L471.031 382.283C471.123 382.562 471.215 382.842 471.307 383.121C471.798 384.503 472.889 385.588 474.273 386.073C478.15 387.428 481.072 384.245 482.248 380.905Z"/><path fill="#232326" d="M517.381 390.117L518.341 390.938C518.643 393.397 519.096 395.414 521.094 397.124C522.385 398.206 524.058 398.72 525.734 398.547C526.736 398.44 527.936 398.048 528.825 397.581L529.691 399.139C521.963 401.015 517.396 398.433 517.381 390.117Z"/><path fill="#E8E6F2" d="M496.859 191.288C543.549 188.644 590.159 197.716 632.45 217.678C703.025 250.698 760.649 314.799 787.134 387.993C814.519 462.88 810.482 545.655 775.94 617.522L765.657 617.541C769.614 608.373 773.906 599.619 777.5 590.185C787.662 562.83 793.761 534.133 795.603 505.01C804.499 355.444 688.67 215.103 538.645 201.202C534.567 200.824 530.465 200.584 526.377 200.34C521.26 199.825 513.025 199.904 507.848 199.974C471.798 200.457 436.208 208.142 403.171 222.578C331.197 254.839 274.975 314.356 246.863 388.05C222.496 451.869 221.941 522.33 245.298 586.525C249.225 597.599 253.916 606.93 258.686 617.626L248.381 617.613C231.321 582.179 221.44 543.719 219.306 504.449C215.146 423.624 244.339 347.052 298.368 287.245C349.189 230.203 420.588 195.686 496.859 191.288Z"/><path fill="#E8E6F2" d="M569.397 473.647C575.222 475.239 584.719 478.8 590.819 480.827C603.576 485.087 616.398 489.15 629.28 493.014C624.655 507.379 624.158 523.436 625.328 538.415C625.805 544.512 627.154 550.939 627.727 557.244C604.658 571.432 583.536 588.391 567.176 610.142C564.928 613.131 561.749 617.335 559.115 619.769C557.876 619.593 558.461 619.833 557.491 618.65C557.279 617.329 557.28 615.854 557.754 614.581C564.494 596.49 570.062 577.676 576.966 559.663L577.475 558.53C582.255 557.246 587.216 555.444 588.456 550.076C589.135 547.123 588.608 544.021 586.99 541.458C579.489 529.825 558.574 539.757 570.901 555.868C569.794 559.89 567.58 565.747 566.212 569.871C562.871 580.083 559.394 590.25 555.782 600.369C554.315 604.396 551.648 616.095 548.186 617.415C546.774 615.694 546.87 607.987 546.87 605.518C546.874 577.243 540.891 551.717 530.615 525.45C549.31 507.35 557.452 496.743 569.397 473.647Z"/><path fill="#E8E6F2" d="M704.902 668.16C727.967 665.809 748.562 682.625 750.872 705.694C753.182 728.764 736.33 749.329 713.257 751.598C690.24 753.862 669.737 737.062 667.433 714.049C665.129 691.037 681.893 670.504 704.902 668.16Z"/><path fill="#282B2F" d="M704.542 679.582C721.357 677.054 737.013 688.706 739.418 705.538C741.823 722.371 730.058 737.941 713.208 740.224C696.531 742.483 681.155 730.865 678.774 714.205C676.394 697.544 687.9 682.084 704.542 679.582Z"/><path fill="#E8E6F2" d="M504.444 668.178C519.494 666.675 534.654 673.862 541.563 687.539C545.953 696.23 546.775 704.472 547.337 714.02L480.311 714.052C484.621 738.915 506 746.545 527.612 737.034C530.348 735.441 533.237 732.979 535.76 730.968L542.102 738.405C527.38 753.227 501.451 756.618 485.216 743.816C455.099 720.068 465.087 673.881 504.444 668.178Z"/><path fill="#282B2F" d="M503.102 678.599C523.509 676.945 531.554 686.468 535.523 704.89L513.75 704.981C502.537 705.02 491.324 704.966 480.112 704.818C482.823 690.145 487.706 682.364 503.102 678.599Z"/><path fill="#E8E6F2" d="M863.296 668.193C873.527 667.187 884.347 670.116 892.06 677.029C902.581 686.458 905.221 700.547 906.036 713.956L839.467 713.589C840.058 717 840.466 719.793 841.811 723.028C844.975 730.448 851.014 736.267 858.546 739.154C867.311 742.506 877.031 741.305 885.486 737.644C888.845 735.873 891.961 733.367 895.008 731.069C897.045 733.438 899.156 736.141 901.144 738.584C893.886 746.009 887.409 749.448 876.911 751.145C837.412 757.533 812.61 714.066 835.935 682.543C842.536 673.621 852.167 669.523 863.296 668.193Z"/><path fill="#282B2F" d="M861.503 678.596C881.641 677.449 890.575 685.27 894.463 704.664C887.102 704.823 879.738 704.865 872.375 704.788C861.302 704.797 850.229 704.735 839.157 704.604C841.255 690.588 847.198 682.396 861.503 678.596Z"/><path fill="#E8E6F2" d="M316.858 668.195C317.998 668.061 319.143 667.983 320.29 667.961C335.973 667.648 350.696 673.829 354.789 690.403C357.378 700.889 356.614 711.845 356.566 722.588L356.416 750.909L344.748 750.99C344.527 747.431 344.501 743.415 344.396 739.815C328.536 754.544 302.675 757.451 289.927 737.415C288.873 734.922 287.636 731.743 287.528 729.049C286.304 698.658 324.657 703.935 344.073 703.953C343.637 683.42 331.916 674.772 311.944 679.593C305.2 681.221 300.54 684.256 294.767 687.979C292.683 684.626 291.141 681.812 289.299 678.311C297.235 672.386 307.125 669.358 316.858 668.195Z"/><path fill="#282B2F" d="M321.084 712.725C328.811 712.514 336.542 712.532 344.267 712.78C344.071 730.192 341.472 738.405 322.69 742.142C313.005 742.694 299.771 739.841 298.824 728.092C298.531 724.684 299.678 721.309 301.986 718.785C306.985 713.299 314.293 713.029 321.084 712.725Z"/><path fill="#E8E6F2" d="M125.503 642.486L138.343 642.547C138.842 663.132 138.31 685.146 138.508 705.958L180.427 662.303C185.79 656.779 194.181 647.64 199.821 642.824C204.023 643.043 209.34 642.917 213.626 642.936C208.623 649.325 201.479 656.602 195.809 662.663C186.983 672.199 178.041 681.626 168.984 690.943C174.931 699.483 184.776 711.257 191.431 719.717C198.642 728.918 209.34 741.401 215.361 750.933L201.144 750.998L160.398 700.216C152.966 707.82 145.629 715.516 138.386 723.3C137.725 730.811 138.205 743.111 138.315 750.987L125.569 751.016L125.503 642.486Z"/><path fill="#E8E6F2" d="M386.865 636.066L399.302 636.001L399.337 713.162C412.432 699.081 431.162 682.23 445.395 668.573L460.358 668.414C449.446 679.866 436.813 692.025 425.488 703.191C432.471 711.435 439.502 720.717 446.301 729.216C451.537 735.626 458.068 744.25 462.896 750.951C458.301 750.933 453.707 750.95 449.113 751C438.27 738.319 427.49 724.117 416.743 711.139C412.742 714.798 402.507 725.805 399.477 730.002L399.244 750.643L386.524 750.786L386.506 677.051C386.507 665.125 386.014 647.625 386.865 636.066Z"/><path fill="#E8E6F2" d="M607.8 668.202C622.873 666.123 639.748 674.469 642.981 689.834C646.919 708.551 645.536 731.663 645.482 750.983L633.313 750.993C633.016 734.301 634.846 714.579 631.865 698.249C628.755 681.214 614.819 675.383 598.745 680.782C595.685 682.3 593.119 683.89 590.687 686.333C587.332 689.709 584.909 693.896 583.651 698.486C580.858 708.365 582.067 739.195 582.21 750.951L570.043 751.018L570.002 699.609C570.017 689.782 569.729 678.248 570.523 668.618C574.496 668.573 578.543 668.618 582.524 668.621L582.465 680.74C590.5 672.485 596.35 669.352 607.8 668.202Z"/><path fill="#E8E6F2" d="M775.337 650.704L787.132 650.555C786.984 656.773 786.995 662.993 787.166 669.21L809.268 669.168L809.195 678.587L787.03 678.586C786.981 695.737 786.115 714.289 788.151 731.199C789.923 745.918 803.221 740.38 811.734 738.27C813.327 738.722 812.803 738.538 813.963 740.352L816.73 745.798C800.996 755.67 779.981 753.795 775.661 732.248C774.248 725.195 774.748 716.534 774.743 709.278L774.699 678.551L762.899 678.541L762.979 669.203C766.705 669.058 770.858 669.2 774.626 669.257C774.787 665.563 774.634 653.708 775.337 650.704Z"/><path fill="#E8E6F2" d="M268.775 668.651C269.988 668.474 273.13 668.486 274.498 668.452L274.492 679.944C261.29 678.388 249.2 686.21 247.062 698.951C244.416 714.713 245.558 734.886 245.539 750.957L233.333 751.017L233.277 746.125C233.67 720.81 232.17 694.151 233.755 668.986C237.663 668.885 241.573 668.846 245.482 668.87L245.536 682.052C252.416 673.124 258.032 670.287 268.775 668.651Z"/><path fill="#E8E6F2" d="M646.308 409.136C668.628 410.658 669.622 450.512 645.87 454.232C621.518 453.194 622.636 412.374 646.308 409.136Z"/><path fill="#E8E6F2" d="M628.99 344.097C651.576 342.528 661.764 381.473 638.556 386.42C614.336 386.366 605.906 349.345 628.99 344.097Z"/><path fill="#E8E6F2" d="M586.255 295.216C611.231 296.031 624.053 325.858 599.175 332.262C592.707 332.06 588.683 331.47 583.166 327.627C570.21 318.605 566.629 298.311 586.255 295.216Z"/><path fill="#E8E6F2" d="M526.813 271.142C533.783 270.783 538.443 271.52 544.358 275.244C554.848 281.848 555.045 295.876 543.216 300.972C540.29 302.233 538.924 302.456 535.872 302.833C525.417 303.803 513.077 299.144 510.874 287.791C510.194 284.362 510.995 280.804 513.08 277.998C516.455 273.406 521.492 271.924 526.813 271.142Z"/><path fill="#E8E6F2" d="M468.244 275.139C491.582 273.052 495.012 298.412 469.597 303.802C443.831 305.867 443.821 278.678 468.244 275.139Z"/><path fill="#E8E6F2" d="M418.837 300.601C440.256 298.5 436.893 322.877 417.14 328.482C395.594 329.3 399.403 307.144 418.837 300.601Z"/><path fill="#E8E6F2" d="M384.737 338.546C402.007 335.865 400.165 358.761 385.873 365.227C367.838 367.336 370.261 345.466 384.737 338.546Z"/><path fill="#E8E6F2" d="M369.157 380.02C383.75 379.01 384.34 399.298 372.142 404.981C370.824 405.297 369.446 405.66 368.107 405.392C365.905 404.944 363.994 403.592 362.837 401.666C358.558 394.401 362.012 384.333 369.157 380.02Z"/><path fill="#E8E6F2" d="M368.599 419.466C372.83 419.999 375.784 421.786 377.813 425.64C379.587 429.076 379.881 433.087 378.626 436.745C377.313 440.572 375.568 441.764 372.167 443.493C361.453 442.581 356.924 424.759 368.599 419.466Z"/><path fill="#E8E6F2" d="M379.671 454.039C390.273 454.182 396.273 469.199 385.381 474.054C374.407 472.147 368.486 457.107 379.671 454.039Z"/><path fill="#E8E6F2" d="M398.493 480.051C407.71 479.749 416.059 489.725 407.929 496.739C397.923 496.769 388.32 486.669 398.493 480.051Z"/><path fill="#E8E6F2" d="M423.639 497.625C433.145 497.376 441.41 507.792 430.662 512.851C425.225 512.424 415.291 508.688 418.491 500.54C419.086 499.023 422.077 498.04 423.639 497.625Z"/><path fill="#E8E6F2" d="M452.295 506.61C462.882 506.709 467.242 517.854 455.272 519.822C444.465 519.464 440.466 509.297 452.295 506.61Z"/><path fill="#E8E6F2" d="M479.509 506.095C490.109 505.256 493.618 515.097 482.974 518.416C472.125 520.572 468.163 510.228 479.509 506.095Z"/><path fill="#E8E6F2" d="M504.049 497.13C515.41 495.08 516.25 504.802 505.966 509.763C495.269 511.492 495.126 502.106 504.049 497.13Z"/><defs><linearGradient id="gradient_0" gradientUnits="userSpaceOnUse" x1="518.32361" y1="488.03085" x2="530.26526" y2="486.96121"><stop offset="0" stop-color="#DDD8EF"/><stop offset="1" stop-color="#F3F1F7"/></linearGradient></defs><path fill="url(#gradient_0)" d="M524.497 480.978C535.371 480.033 531.983 490.226 525.026 494.485C513.899 495.196 516.905 485.274 524.497 480.978Z"/><path fill="#E8E6F2" d="M537.658 460.933C546.798 460.814 544.168 471.561 537.382 475.507C529.017 475.889 529.931 465.1 537.658 460.933Z"/><path fill="#E8E6F2" d="M544.359 439.386C549.528 442.141 549.833 451.248 543.862 453.456C535.731 452.231 536.686 442.453 544.359 439.386Z"/><path fill="#E8E6F2" d="M540.673 419.952C548.068 419.764 548.995 427.968 544.178 432.675C536.712 432.149 535.64 424.934 540.673 419.952Z"/><path fill="#E8E6F2" d="M532.021 401.851C538.836 401.471 542.248 407.517 538.932 413.466C531.362 414.508 528.499 407.987 532.021 401.851Z"/><path fill="#E8E6F2" d="M505.462 380.011C510.938 379.51 518.205 382.632 512.823 388.553C507.64 388.687 499.561 385.736 505.462 380.011Z"/><path fill="#E8E6F2" d="M491.396 376.564C494.891 376.877 498.752 377.782 497.709 382.237C496.358 383.908 496.169 383.895 494.093 384.705C490.711 384.338 486.145 383.465 487.644 378.891C489.08 377.353 489.365 377.354 491.396 376.564Z"/><path fill="#E8E6F2" d="M462.586 384.353C464.377 384.62 464.322 384.548 465.924 385.608C468.198 389.488 465.058 392.107 461.862 393.896C460.07 393.658 459.87 393.77 458.363 392.724C456.151 388.97 459.558 386.149 462.586 384.353Z"/></svg>