<?xml version="1.0" encoding="utf-8" ?><svg xmlns="http://www.w3.org/2000/svg" xmlns:xlink="http://www.w3.org/1999/xlink" width="1024" height="1024" viewBox="0 0 1024 1024"><path fill="#1E2B45" d="M297.375 219.237C299.523 219.087 302.091 219.036 304.247 219.021L600.439 219.031L681.952 219.058C704.98 219.062 728.444 217.447 750.753 222.298C783.535 229.354 813.579 245.732 837.271 269.462C864.026 296.062 881.338 332.123 885.884 369.66C886.945 378.423 886.755 389.957 886.823 398.997L887.063 438.94L886.996 531.295C887.009 550.232 887.747 574.616 885.905 593.137C881.818 631.869 864.443 667.99 836.733 695.358C810.273 721.827 775.582 739.22 738.146 743.141C728.714 744.129 716.554 743.824 706.867 743.769L664.035 743.591L556.217 743.535C533.311 743.701 510.406 743.738 487.5 743.646C467.572 743.606 447.648 742.743 427.838 746.239C389.102 753.076 352.069 770.899 331.121 805.679C326.958 812.823 324.24 820.853 320.915 828.41C304.827 864.985 263.645 880.965 226.965 865.755C208.814 858.052 194.454 843.473 187.026 825.208C179.4 806.58 179.64 785.658 187.692 767.21C194.771 750.862 211.489 732.725 227.907 726.211C217.088 720.493 208.448 715.262 198.953 707.417C162.993 677.702 140.749 632.018 139.301 585.45C138.974 574.955 139.025 564.42 139.018 553.927L139.021 495.748L138.988 424.909C138.956 397.894 137.37 377.42 143.705 351.008C150.403 323.159 163.778 297.359 182.676 275.835C212.258 241.461 252.462 222.735 297.375 219.237ZM509.492 719.363L662.061 719.163L704.561 719.233C722.682 719.274 741.174 719.709 758.586 715.282C819.007 699.921 862.384 640.205 863.24 578.661C863.349 570.83 863.41 562.96 863.424 555.097L863.444 513.448L863.338 399.69C863.286 388.305 862.878 376.64 861.049 365.433C851.798 308.719 807.209 257.905 750.294 245.978C731.427 242.025 707.128 243.322 687.46 243.358L607.726 243.446L306.791 243.449C303.356 243.474 299.211 243.47 295.828 243.747C258.223 246.441 223.24 264 198.61 292.544C182.555 311.016 170.627 335.269 165.174 359.098C160.648 378.877 161.642 400.285 161.596 420.646L161.509 483.702L161.616 548.749C161.631 562.484 161.099 576.407 162.174 590.109C165.184 628.491 182.528 663.623 211.947 688.58C229.236 703.247 250.665 712.978 272.785 717.558C278.982 718.841 286.23 718.455 291.973 721.208C295.597 722.946 298.063 727.097 298.37 731.046C298.633 734.439 296.83 737.19 294.562 739.577C285.108 749.529 242.046 729.887 215.874 763.427C208.808 772.481 205.261 783.572 205.023 794.991C204.768 809.083 210.165 822.691 220.01 832.777C229.25 842.276 242.843 847.571 256.014 847.602C269.04 847.506 281.512 842.321 290.766 833.154C299.156 824.753 301.545 817.184 306.03 806.612C329.173 752.052 390.335 722.945 447.028 719.972C454.603 719.573 462.125 719.399 469.688 719.35L509.492 719.363Z"/><path fill="#1E2B45" d="M671.518 304.145C678.126 303.711 679.715 305.457 683.667 310.216C685.326 319.35 684.121 328.128 687.382 338.364C695.781 366.275 718.939 385.727 747.396 390.963C759.86 393.256 767.597 388.496 771.606 403.823C771.467 404.449 771.305 405.071 771.121 405.685C768.753 413.801 763.821 414.418 756.302 415.228C716.91 419.47 685.242 448.634 684.395 489.344C684.219 497.829 684.938 501.944 676.543 505.947C661.418 507.328 663.16 496.938 662.48 486.384C661.901 477.4 658.627 466.072 654.637 457.998C644.14 436.665 624.488 421.282 601.258 416.216C592.834 414.385 580.64 416.627 577.142 407.582C576.053 404.766 576.27 400.975 577.416 398.213C578.423 395.718 580.381 393.726 582.859 392.676C586.294 391.224 592.449 391.38 596.486 390.907C603.553 390.135 610.48 388.387 617.068 385.714C641.985 375.507 656.833 354.591 661.6 328.496C663.544 317.851 659.048 309.127 671.518 304.145ZM634.792 403.675C648.425 412.057 656.211 417.595 665.957 430.989C667.525 433.144 671.963 440.94 672.929 441.894C684.512 423.984 693.127 415.897 711.167 404.184C698.325 396.185 690.926 391.044 681.489 378.387C678.596 374.506 676.118 369.873 673.301 366.102C662.148 384.182 653.208 393.388 634.792 403.675Z"/></svg>