<?xml version="1.0" encoding="utf-8" ?><svg xmlns="http://www.w3.org/2000/svg" xmlns:xlink="http://www.w3.org/1999/xlink" width="1024" height="1024" viewBox="0 0 1024 1024"><path fill="#1E2B45" d="M502.623 102.228C576.008 100.098 641.319 124.738 695.544 174.639C743.32 218.605 773.251 280.653 779.7 345.258C781.086 359.152 780.584 377.987 780.572 392.246L780.519 465.466C780.52 478.231 780.157 491.897 780.682 504.587C782.432 546.814 803.458 568.189 833.092 594.183C842.505 602.386 851.816 610.706 861.024 619.141C880.2 636.631 890.306 655.112 892.116 681.615C893.651 704.09 885.116 727.456 869.772 744.102C857.959 757.113 842.577 766.357 825.543 770.68C811.883 774.085 781.77 772.853 766.277 772.828L690.355 772.646C673.409 772.589 654.955 772.277 638.167 772.929C636.458 782.245 634.698 790.309 631.413 799.292C615.044 844.063 571.05 875.564 524.282 880.877C495.143 883.521 466.033 875.512 442.346 858.335C413.361 837.056 395.281 808.712 389.759 772.955C376.882 772.229 358.812 772.745 345.575 772.71L257.021 772.595C221.986 772.578 194.409 776.894 165.343 752.246C147.809 737.378 136.954 716.112 135.2 693.191C133.567 671.245 140.393 649.506 154.278 632.433C161.523 623.514 168.664 618.339 177.006 610.825C198.674 591.306 223.653 572.091 236.863 545.473C249.538 519.932 247.291 499.906 247.221 473.045L247.179 399.879C247.105 381.993 246.43 362.049 248.158 344.427C253.49 289.275 275.845 237.148 312.127 195.27C350.663 150.951 400.186 121.237 457.612 107.872C471.251 104.698 488.683 103.187 502.623 102.228ZM520.25 722.829L722.354 722.815L781.756 722.882C791.156 722.873 803.256 723.466 812.192 722.358C829.127 720.259 843.228 703.416 842.295 686.362C841.999 674.155 837.388 666.219 828.569 657.926C816.177 646.39 803.927 634.711 791.704 622.987C783.381 615.004 774.58 607.512 766.89 598.869C744.011 573.438 731.213 540.524 730.903 506.318C730.586 473.483 730.482 440.647 730.59 407.811C730.6 390.354 731.224 366.804 729.599 349.814C724.824 298.229 701.44 250.144 663.812 214.536C623.557 175.74 565.673 150.872 509.427 152.171C508.953 152.184 508.479 152.201 508.005 152.224C449.621 154.468 394.509 179.766 354.746 222.576C323.506 256.683 303.219 299.523 298.446 345.749C296.795 361.741 297.412 381.498 297.434 397.847L297.508 471.018C297.51 508.661 298.247 529.343 281.493 565.256C266.478 598.097 239.245 620.554 213.361 644.527C206.287 651.079 195.776 658.523 190.492 666.507C177.171 686.632 189.977 718.625 214.431 722.031C225.28 723.543 239.253 722.873 250.54 722.874L310.086 722.896L520.25 722.829ZM566.377 808.949C577.708 797.094 582.317 788.611 586.969 773.087C544.654 772.529 502.153 773.283 459.829 773.07C453.529 773.038 446.914 772.996 440.637 773.188C455.836 828.661 524.692 849.463 566.377 808.949Z"/></svg>