<?xml version="1.0" encoding="utf-8" ?><svg xmlns="http://www.w3.org/2000/svg" xmlns:xlink="http://www.w3.org/1999/xlink" width="1024" height="1024" viewBox="0 0 1024 1024"><path fill="#1E2B45" d="M447.286 214.658C474.199 211.302 497.164 237.359 491.093 263.639C490.063 268.098 488.825 271.16 487.04 275.43C498.305 276.136 510.322 275.463 521.657 275.779C526.759 275.921 532.716 275.873 537.764 275.445C533.052 263.337 530.422 253.97 535.161 241.143C538.871 230.971 546.518 222.72 556.379 218.249C566.252 213.807 577.479 213.439 587.622 217.225C597.734 220.997 607.308 229.824 611.448 239.761C616.902 252.851 615.47 263.047 610.513 275.639C618.906 276.193 627.878 275.455 636.203 275.897C680.029 278.224 718.748 308.182 734.328 348.853C736.878 355.51 739.889 360.967 741.207 368.287C742.965 378.23 740.697 388.465 734.903 396.734C728.249 406.181 720.08 408.872 709.294 410.741C708.765 420.383 709.039 433.095 709 442.911L708.861 499.66L709.034 654.336L709.025 704.98C709.022 716.112 709.33 729.483 708.245 740.396C707.148 750.534 704.745 760.487 701.095 770.009C690.311 797.717 668.107 818.909 641.124 830.774C628.436 836.251 614.802 839.204 600.985 839.47C561.559 839.983 520.918 839.239 481.412 839.109L442.829 839.31C428.838 839.343 417.69 839.646 403.827 836.8C361.993 828.213 326.098 795.148 317.855 752.684C315.089 738.435 316.001 721.606 315.999 706.852L316.031 643.032L315.91 410.8C296.885 407.867 283.368 394.167 283.524 374.74C283.641 359.988 296.468 335.602 304.545 323.514C321.898 297.543 353.968 279.279 384.787 276.069C394.512 275.056 405.74 275.775 415.715 275.734C402.831 248.277 416.739 219.204 447.286 214.658ZM661.915 789.304C686.615 761.678 684.949 739.457 685.018 705.041L685.265 651.979L685.26 410.178C661.778 409.617 637.041 409.964 613.497 409.975L495.681 409.98L396.445 409.993C378.163 409.972 357.675 409.533 339.523 410.079L339.582 642.189L339.511 704.272C339.492 717.807 338.485 736.333 341.174 749.271C348.538 784.706 381.313 811.739 417.03 814.792C424.766 815.45 432.202 815.277 439.812 815.256C473.366 815.042 506.919 815.007 540.473 815.151C554.787 815.247 569.102 815.261 583.416 815.193C616.421 815.062 635.224 816.087 660.54 790.712C661.006 790.25 661.464 789.781 661.915 789.304ZM631.25 386.904L682.775 387.014C690.409 387.047 701.272 387.85 708.471 386.849C725.545 384.476 715.808 364.862 712.45 356.6C700.592 327.429 678.359 306.283 646.932 300.5C633.456 298.05 619.547 298.573 605.688 298.553L554.803 298.544L452.475 298.503C433.002 298.509 412.438 298.221 393.049 298.738C368.958 299.933 346.688 309.062 330.399 327.206C327.05 330.889 324.04 334.866 321.406 339.091C315.878 348.07 312.474 357.61 307.81 367.024C302.935 376.866 307.131 385.611 318.288 386.836C328.982 387.242 340.175 387.071 351.081 387.077L417.52 386.994L631.25 386.904ZM454.727 273.35C464.626 271.66 471.308 262.299 469.688 252.388C468.068 242.476 458.755 235.729 448.832 237.278C438.809 238.843 431.979 248.271 433.615 258.282C435.251 268.294 444.727 275.057 454.727 273.35ZM575.242 273.71C585.092 272.494 592.124 263.57 591.003 253.708C589.882 243.846 581.025 236.729 571.153 237.756C561.146 238.797 553.91 247.801 555.047 257.797C556.184 267.793 565.257 274.943 575.242 273.71Z"/></svg>