<?xml version="1.0" encoding="utf-8" ?><svg xmlns="http://www.w3.org/2000/svg" xmlns:xlink="http://www.w3.org/1999/xlink" width="1024" height="1024" viewBox="0 0 1024 1024"><path fill="#1E2B45" d="M551.679 329.26C553.414 329.163 555.15 329.095 556.888 329.058C586.935 328.383 616.702 340.757 638.229 361.553C657.647 380.381 669.965 405.339 673.096 432.204C673.698 437.446 673.688 444.048 673.787 449.401C707.538 456.327 734.998 469.926 756.686 497.596C773.751 519.368 783.365 544.835 783.441 572.608C783.391 605.189 770.59 636.457 747.776 659.718C731.291 676.314 712.959 686.563 690.116 691.867C675.726 695.208 660.779 694.532 646.029 694.527L607.896 694.591L464.75 694.537L373.855 694.535C360.534 694.547 333.892 695.341 321.526 693.619C311.212 692.085 301.216 688.879 291.934 684.127C270.409 673.125 252.918 651.532 245.685 628.528C238.112 604.88 240.348 579.181 251.891 557.196C263.951 534.194 285.131 518.023 309.734 510.385C309.258 501.552 308.803 492.901 310.345 484.146C322.134 417.198 385.995 384.095 447.525 409.452C467.157 362.001 499.163 333.632 551.679 329.26ZM457.316 675.501L608.542 675.46L644.097 675.568C659.83 675.69 671.594 676.562 687.233 672.879C706.17 668.42 720.684 660.056 734.465 646.274C753.716 626.705 764.465 600.327 764.372 572.876C764.122 522.916 726.785 480.664 678.968 469.353C668.111 466.785 660.411 470.911 654.028 460.362C653.851 452.029 654.98 444.334 654.441 435.918C652.859 411.26 642.008 391.125 624.495 374.239C605.765 356.522 580.773 346.959 555.001 347.646C554.516 347.668 554.031 347.691 553.546 347.713C528.051 348.743 504.049 360.013 486.973 378.972C478.119 388.688 472.056 399.055 467.261 411.269C464.468 417.64 463.178 432.447 453.686 432.055C448.37 431.835 441.067 426.695 435.846 424.628C383.898 404.007 327.155 442.711 327.965 498.765C327.995 500.855 328.009 504.19 328.381 506.193C332.624 529.05 327.245 523.551 308.842 530.403C281.972 540.189 263.104 564.529 260.326 592.989C256.213 634.282 287.015 671.951 328.409 675.192C343.66 676.386 360.449 675.654 375.836 675.588L457.316 675.501Z"/><path fill="#1E2B45" d="M506.076 474.192C532.056 472.279 547.556 480.07 566.69 496.481C567.024 490.429 565.164 482.091 570.538 477.876C576.501 473.199 585.354 477.6 585.856 484.976C586.306 491.585 585.911 498.261 585.978 504.885C585.752 512.898 586.405 521.639 585.341 529.526C582.555 533.913 581.084 534.883 575.758 534.91C563.044 534.976 549.657 535.649 537.017 534.603C530.825 534.091 527.765 522.802 532.546 518.776C538.143 514.063 549.735 515.505 556.845 515.691C554.663 512.684 551.52 510.099 548.724 507.601C521.477 485.971 484.738 491.677 463.92 519.114C459.217 525.312 457.168 538.571 449.826 540.243C447.238 540.842 444.518 540.355 442.299 538.894C432.434 532.427 446.249 510.767 451.321 504.27C465.111 486.606 483.986 477.046 506.076 474.192Z"/><path fill="#1E2B45" d="M579.145 554C592.079 552.789 591.515 563.254 587.702 572.175C576.698 597.917 551.134 616.318 523.384 619.232C505.706 621.233 487.902 616.742 473.288 606.595C468.815 603.509 464.244 599.4 459.959 595.891C460.13 600.108 461.115 608.647 457.553 611.091C436.596 625.472 441.402 586.316 441.361 578.667C441.024 572.11 439.821 566.328 443.741 560.973C450.801 556.883 478.306 559.017 487.67 558.823C495.131 558.669 500.789 568.747 494.287 574.78C489.066 579.624 476.193 577.599 469.184 577.714C474.811 585.915 486.515 593.876 495.901 597.117C520.902 605.752 547.833 597.27 563.974 576.358C570.4 568.032 570.791 557.772 578.569 554.253L579.145 554Z"/></svg>