<?xml version="1.0" encoding="utf-8" ?><svg xmlns="http://www.w3.org/2000/svg" xmlns:xlink="http://www.w3.org/1999/xlink" width="1024" height="1024" viewBox="0 0 1024 1024"><path fill="#1E2B45" d="M291.416 241.275C298.906 240.872 303.364 240.419 309.371 245.342C312.575 252.77 311.658 261.888 311.639 269.963L311.532 303.757C311.511 310.13 311.244 318.31 311.848 324.451C325.279 313.899 338.203 298.98 351.644 288.077C356.663 284.006 364.755 282.686 368.243 288.952C388.774 325.843 378.272 375.384 344.808 401.17C339.415 405.332 333.168 408.289 328.033 412.449C327.601 419.247 329.095 426.029 332.345 432.015C337.705 441.998 346.359 446.821 356.808 449.973C372.184 434.832 395.141 422.442 416.31 418.08C417.514 398.675 413.169 384.802 427.512 368.57C442.635 351.286 468.778 349.601 485.443 365.47C496.781 376.266 499.144 388.254 498.526 403.078C498.178 411.413 504.101 418.968 513.348 417.988C530.881 416.13 523.278 398 526.214 386.504C533.675 355.744 570.836 343.442 594.224 365.564C610.342 380.773 607.178 396.952 607.819 416.936C634.185 423.853 646.398 431.608 666.926 448.964C683.139 446.478 697.42 434.266 697.364 415.983C697.348 410.755 683.778 402.986 679.288 399.438C660.96 384.912 649.2 363.663 646.626 340.419C644.981 325.908 646.709 311.6 651.989 297.981C653.313 294.567 655.111 289.863 657.701 287.314C667.501 277.67 678.247 291.501 684.672 297.41C693.925 305.866 703.126 314.377 712.276 322.944C714.019 300.591 712.321 277.513 713.064 255.082C713.254 249.348 715.728 243.375 721.958 242.18C737.418 239.217 755.458 245.093 768.827 252.487C813.906 277.417 831.735 333.939 805.973 379.241C798.013 393.243 779.243 410.658 763.288 414.831C765.069 454.792 736.467 493.187 697.672 502.883C698.203 506.972 699.294 511.223 699.855 515.533C700.781 522.641 701.109 529.29 701.401 536.442C728.812 541.796 749.179 552.167 766.826 574.338C786.773 599.398 786.428 624.518 785.853 654.514C785.695 662.752 786.437 676.498 785.487 684.348C784.454 692.909 780.022 700.695 773.189 705.955C759.764 716.338 740.215 714.28 729.765 700.446C716.751 675.661 734.368 633.366 716.03 610.648C707.781 600.43 696.923 595.416 684.112 593.789C679.359 601.958 674.387 609.997 669.202 617.899C686.538 626.347 702.666 642.449 711.118 659.71C715.311 668.316 718.114 677.531 719.424 687.013C722.377 707.058 719.735 734.454 720.519 755.024C721.287 775.175 697.349 789.494 679.013 782.461C641.956 768.247 669.105 715.722 655.072 687.25C650.689 678.207 642.786 671.36 633.212 668.309C619.374 663.813 617.461 667.966 605.584 674.759C547.823 707.81 469.72 707.591 413.503 671.207C402.511 664.093 397.524 664.132 385.628 670.195C376.457 674.87 368.113 685.615 366.178 695.682C365.066 701.47 365.478 710.324 365.479 716.461L365.486 743.851C365.454 750.179 365.495 757.28 363.621 763.328C361.27 770.905 355.981 777.224 348.936 780.871C341.587 784.62 333.049 785.289 325.205 782.732C317.47 780.226 311.061 774.724 307.412 767.458C304.776 762.166 303.633 755.219 303.954 749.381C304.971 730.854 302.563 709.459 304.453 691.262C305.162 684.84 306.592 678.519 308.717 672.418C316.457 648.708 333.313 629.052 355.567 617.788C349.85 609.146 346.34 603.318 341.408 594.204C322.076 595.822 306.031 607.68 301.731 627.086C299.973 635.023 300.687 642.99 300.836 651.041C300.951 659.27 300.947 667.5 300.824 675.729C300.67 683.866 300.753 690.788 296.291 698.134C287.575 712.485 267.615 716.83 253.539 707.898C247.064 703.789 241.616 695.499 240.278 687.92C238.621 678.531 239.882 668.118 239.592 658.575C239.498 628.711 236.876 607.159 254.356 580.662C267.728 560.393 286.475 547.384 309.568 540.022C314.611 538.415 320.065 537.522 325.267 536.425C325.405 520.369 325.367 518.362 328.604 502.287C286.767 489.485 262.608 459.762 262.057 415.54C254.239 411.831 245.803 407.992 239.205 402.35C176.935 349.098 211.141 248.968 291.416 241.275ZM606.303 650.566C642.072 624.493 672.053 588.991 679.088 543.952C682.995 518.935 675.623 493.689 660.795 473.457C647.506 455.326 626.268 441.135 603.882 437.77C598.831 437.011 593.047 436.563 589.69 432.156C579.521 418.802 600.059 380.422 569.146 375.257C563.682 374.344 558.473 375.695 553.983 378.91C549.796 381.908 546.682 386.874 546.067 392.007C545.477 396.936 546.168 401.996 546.049 406.949C545.833 415.9 541.252 425.173 534.356 430.845C527.261 436.643 518.126 439.331 509.021 438.302C499.585 437.312 491.687 433.627 485.74 426.104C482.04 421.391 479.596 415.815 478.64 409.899C476.857 399.475 480.599 387.079 470.684 379.326C466.057 375.708 460.708 374.734 454.976 375.129C427.221 380.152 441.134 411.875 435.925 430.088C433.766 437.636 420.741 437.332 414.494 439.093C392.157 445.384 372.864 459.573 360.203 479.021C320.72 540.037 366.185 617.146 420.043 651.596C458.901 676.451 504.124 685.363 549.181 675.173C569.567 670.536 588.929 662.195 606.303 650.566ZM668.882 310.521C664.219 331.627 665.813 350.043 677.818 368.626C684.264 378.605 693.463 386.855 703.876 392.498C707.538 394.486 713.685 396.167 716.701 399.036C727.741 409.539 707.718 413.228 713.612 423.138C714.434 424.52 715.791 425.698 716.892 426.747C712.627 440.807 705.693 451.945 693.486 460.488C689.38 463.027 686.139 464.659 681.851 466.784C685.654 473.104 687.323 476.033 690.333 482.748C711.576 480.685 729.568 462.024 737.773 443.167C741.569 434.445 742.134 428.349 741.995 418.974C727.92 401.291 746.891 400.484 758.294 395.583C778.439 386.707 792.757 368.278 796.376 346.563C799.759 327.318 795.232 307.523 783.82 291.662C770.53 273.333 754.835 265.988 733.263 262.177C732.696 283.039 733.376 303.996 733.102 324.876C733.009 331.983 733.557 339.686 732.583 346.694C732.247 349.12 731.698 350.984 729.834 352.668C727.805 354.502 724.764 355.718 722.004 355.472C715.995 354.936 675.675 317.343 668.882 310.521ZM279.918 685.337C280.435 675.107 280.43 659.912 280.244 649.498C279.814 625.423 281.659 607.937 300.455 590.494C311.18 580.541 319.588 577.868 333.586 574.662C332.802 571.708 329.639 558.89 328.408 557.214L327.35 557.187C306.254 559.619 288.553 569.56 275.44 586.212C257.918 606.864 259.386 630.624 259.98 655.895C260.181 664.481 259.438 674.074 259.944 682.761C260.226 687.598 263.187 690.487 267.599 692C274.187 692.197 276.372 691.345 279.918 685.337ZM686.589 763.747C693.881 764.555 696.131 763.345 699.902 756.765C700.384 744.759 699.818 732.477 700.154 720.841C700.9 695.036 700.32 671.914 681.094 652.13C676.1 646.992 663.004 635.846 655.596 635.873C651.967 638.267 643.837 646.29 640.746 649.711C692.098 670.145 676.825 714.704 680.069 757.968C682.378 761.405 682.86 762.039 686.589 763.747ZM308.441 426.955C320.052 411.45 297.92 414.585 307.137 399.941C309.321 396.472 320.959 392.361 325.245 389.804C349.202 375.233 362.001 347.646 357.655 319.945C357.275 317.491 356.648 314.886 356.071 312.462C345.635 321.635 335.627 331.106 325.283 340.356C320.563 344.577 315.669 349.057 310.326 352.406C305.236 355.598 298.345 357.2 294.095 351.84C292.971 350.423 291.939 348.848 291.694 346.959C289.963 319.033 292.328 290.547 291.062 262.489C290.802 262.351 290.541 262.212 290.28 262.073L289.301 262.154C270.042 265.262 253.96 274.037 242.174 289.901C230.125 306.12 225.238 326.128 228.465 346.065C232.388 369.087 248.203 388.277 269.717 397.12C276.211 399.79 286.212 399.405 287.902 407.894C288.908 412.94 285.897 416.66 282.44 419.66C282.359 449.443 305.715 476.708 334.83 482.41C337.115 476.729 340.046 470.921 343.81 466.058C338.356 464.005 335.98 463.306 331.229 459.874C319.55 450.567 312.502 441.673 308.441 426.955ZM338.592 763.657C340.611 762.544 344.205 760.221 344.415 757.603C345.987 738.001 343.838 717.714 345.319 698.011C346.864 677.456 363.6 655.071 383.799 649.517C381.285 646.586 372.606 635.923 368.957 636.084C355.096 638.978 344.337 648.935 336.783 660.53C331.542 668.589 327.852 677.556 325.901 686.969C325.149 690.656 324.663 694.391 324.447 698.148C324.043 705.186 323.455 750.471 324.708 755.78C325.33 758.417 326.576 760.979 328.929 762.467C331.87 764.327 335.296 764.144 338.592 763.657ZM697.529 556.79C695.912 562.789 694.154 568.748 692.256 574.664C708.7 577.239 724.233 586.906 733.659 599.687C752.57 625.329 741.824 658.309 746.166 687.339C746.398 688.886 748.315 690.765 749.504 691.873C753.965 692.49 755.374 692.861 759.725 691.345C763.602 687.832 765.792 684.126 765.586 678.697C764.631 653.598 769.727 623.579 759.074 600.362C748.062 576.361 723.306 559.394 697.529 556.79Z"/></svg>