<?xml version="1.0" encoding="utf-8" ?><svg xmlns="http://www.w3.org/2000/svg" xmlns:xlink="http://www.w3.org/1999/xlink" width="1024" height="1024" viewBox="0 0 1024 1024"><path fill="#1E2B45" d="M335.895 313.221C360.411 313.2 372.174 328.713 379.005 350.311C381.317 357.622 384.505 365.644 387.074 372.963L409.255 436.969C412.638 446.733 415.864 456.7 419.431 466.335C421.137 470.208 422.834 476.318 427.145 477.953C431.819 479.726 436.984 477.378 438.552 472.554C441.598 463.188 443.737 453.353 446.34 443.776C452.145 422.767 457.797 401.716 463.295 380.624C466.724 367.592 469.99 354.424 474.019 341.753C484.576 307.865 530.969 302.817 548.205 333.986C552.588 341.914 555.264 355.274 557.687 364.305L577.643 438.788C580.571 449.695 583.408 462.369 587.312 472.584C591.615 483.841 602.495 478.775 604.732 468.798C605.735 464.322 608.936 456.41 610.539 451.962L636.85 377.213C640.91 365.495 644.801 353.843 648.991 342.147C661.313 307.756 706.169 302.58 724.582 335.603C731.341 351.24 729.697 367.055 729.733 383.799L729.794 442.49L729.746 509.26C729.691 538.908 731.755 563.05 712.027 588.177C697.964 605.87 677.439 617.239 654.981 619.778C642.991 621.193 620.117 620.547 606.95 620.565L520.661 620.665L423.374 620.739C407.17 620.726 390.516 620.824 374.329 620.165C358.273 619.512 340.156 612.578 327.514 602.486C310.059 588.764 298.869 568.588 296.471 546.516C295.427 537.334 295.981 519.222 296.005 509.47L296.01 445.912L295.979 384.286C295.973 358.962 292.241 331.495 319.185 317.544C324.972 314.548 329.464 313.902 335.895 313.221ZM333.604 342.103C323.349 347.441 324.725 355.351 324.592 365.529C324.45 376.427 324.601 387.378 324.619 398.28L324.542 472.715L324.467 517.163C324.443 533.491 322.941 549.134 331.393 563.611C338.302 575.447 351.993 587.061 365.643 589.391C385.113 592.716 409.811 591.321 429.757 591.311L536 591.309L609.304 591.289C622.844 591.289 636.857 591.553 650.361 590.846C659.169 590.386 666.917 587.904 674.554 583.364C687.148 575.788 696.164 563.464 699.573 549.167C701.825 540.031 701.055 519.195 701.034 508.942L700.921 449.684L700.871 392.169C700.917 379.621 701.125 367.068 700.621 354.555C700.484 348.531 695.553 343.128 689.599 342.043C680.056 340.305 675.982 351.054 673.645 358.281C671.188 365.878 668.616 373.48 666.053 381.044L639.421 457.013C636.104 466.427 631.817 482.257 626.87 490.338C611.546 515.376 572.792 513.268 561.242 485.718C556.266 473.655 553.633 460.34 550.306 447.852L532.296 380.233C530.973 375.13 529.738 369.644 528.243 364.601C526.245 357.861 524.663 345.76 517.283 342.942C507.087 339.049 502.085 346.557 499.564 355.355C489.652 392.614 480.321 430.063 470.087 467.239C466.212 482.532 462.432 495.355 447.81 503.347C429.422 513.398 406.026 506.079 396.937 487.28C391.242 475.504 386.731 460.011 382.404 447.502L359.003 380.606C357.176 375.256 355.428 369.481 353.371 364.249C349.278 353.832 348.262 340.321 333.604 342.103Z"/><path fill="#1E2B45" d="M309.305 616.127C325.72 617.656 323.212 629.732 325.502 641.248C326.78 647.515 329.159 653.506 332.528 658.942C351.737 689.359 385.779 684.223 416.757 684.323L518.714 684.268L606.11 684.243C617.25 684.235 641.285 684.847 651.726 683.733C660.851 682.713 669.608 679.56 677.288 674.529C689.04 666.881 696.257 655.658 700.049 642.115C701.16 638.146 700.84 631.6 701.832 627.489C702.728 623.759 705.071 620.539 708.345 618.539C711.585 616.595 715.629 616.142 719.249 617.18C723.119 618.295 726.378 620.92 728.293 624.463C732.59 632.448 728.486 647.255 726.063 655.38C716.537 685.741 688.013 709.014 656.182 712.275C638.407 714.097 617.724 713.162 599.667 713.161L500.341 713.137L415.996 713.228C401.938 713.177 381.576 713.603 368.231 711.968C355.744 710.501 343.772 706.144 333.264 699.242C314.657 687.308 301.601 668.423 297.01 646.8C294.305 634.059 293.177 619.187 309.305 616.127Z"/></svg>