<?xml version="1.0" encoding="utf-8" ?><svg xmlns="http://www.w3.org/2000/svg" xmlns:xlink="http://www.w3.org/1999/xlink" width="1024" height="1024" viewBox="0 0 1024 1024"><path fill="#1E2B45" d="M246.296 383.239C258.668 382.669 272.979 382.997 285.509 382.98L355.43 382.869L590.55 382.81L719.457 382.976L756.573 382.996C765.839 383.003 775.057 382.929 784.203 383.65C840.543 388.092 886.365 431.893 897.695 486.843C906.311 528.635 893.982 569.807 864.938 601.578C842.327 625.887 811.043 640.301 777.873 641.693C740.253 642.586 699.387 641.841 661.523 641.891L416.514 641.9L299.892 641.82C250.901 641.814 211.634 646.777 171.034 612.525C144.293 590.308 127.735 558.171 125.167 523.5C122.328 489.092 133.393 454.981 155.887 428.791C178.681 402.079 211.264 385.662 246.296 383.239ZM754.75 608.993C764.257 609.021 774.84 609.282 784.17 608.207C805.015 605.708 824.446 596.379 839.43 581.674C877.501 544.132 878.501 482.397 840.791 444.386C825.077 428.515 804.345 418.586 782.129 416.29C772.149 415.295 755.38 415.755 744.95 415.759L271.127 415.752C262.142 415.757 251.087 415.252 242.321 416.351C193.27 422.506 156.778 463.85 156.939 513.187C156.998 538.757 167.2 563.259 185.306 581.315C218.115 613.822 252.537 609.004 294.401 608.926L388.554 608.897L754.75 608.993Z"/><path fill="#1E2B45" d="M291.713 495.767C325.121 495.107 360.466 495.682 394.018 495.701L573.934 495.689L684.182 495.614L716.331 495.507C724.452 495.467 737.859 493.976 744.178 499.132C747.951 502.166 750.27 506.649 750.568 511.481C750.835 515.8 749.326 520.04 746.39 523.218C742.436 527.562 738.753 528.32 733.37 528.64L434.154 528.531L338.862 528.601C322.579 528.621 306.171 528.846 289.894 528.423C281.829 528.213 275.218 520.415 275.057 512.47C274.956 508.007 276.659 503.691 279.78 500.498C283.401 496.796 286.85 495.943 291.713 495.767Z"/></svg>