<?xml version="1.0" encoding="utf-8" ?><svg xmlns="http://www.w3.org/2000/svg" xmlns:xlink="http://www.w3.org/1999/xlink" width="1024" height="1024" viewBox="0 0 1024 1024"><path fill="#1E2B45" d="M658.911 455.145C690.603 452.491 718.461 475.994 721.18 507.68C723.9 539.366 700.454 567.273 668.773 570.058C637.001 572.85 608.995 549.321 606.268 517.543C603.54 485.764 627.127 457.807 658.911 455.145Z"/><path fill="#1E2B45" d="M506.693 455.19C538.269 452.223 566.311 475.324 569.441 506.885C572.572 538.446 549.615 566.606 518.071 569.9C486.295 573.217 457.884 550.056 454.73 518.263C451.577 486.471 474.885 458.179 506.693 455.19Z"/><path fill="#1E2B45" d="M354.596 455.187C386.299 451.726 414.786 474.672 418.156 506.386C421.525 538.1 398.496 566.52 366.773 569.798C335.179 573.062 306.9 550.148 303.544 518.564C300.189 486.979 323.021 458.634 354.596 455.187Z"/></svg>