<?xml version="1.0" encoding="utf-8" ?><svg xmlns="http://www.w3.org/2000/svg" xmlns:xlink="http://www.w3.org/1999/xlink" width="1024" height="1024" viewBox="0 0 1024 1024"><path fill="#1E2B45" d="M577.418 261.236C634.11 260.552 687.772 276.605 735.386 307.191C866.633 391.743 887.466 574.938 776.286 685.542C669.553 791.723 503.668 783.088 384.396 703.098C367.412 692.73 349.744 677.284 335.654 663.347C331.199 658.94 327.05 653.922 322.494 649.373C303.068 677.429 268.562 690.688 235.395 683.64C191.679 674.351 167.359 632.011 177.014 589.157C184.431 556.235 204.13 535.206 231.557 517.423C227.683 514.533 223.126 512.273 219.232 509.41C192.974 490.108 174.275 461.261 175.632 427.673C176.629 406.641 185.869 386.847 201.353 372.578C238.196 339.123 288.238 345.622 320.597 381.568C381.13 307.498 483.213 265.078 577.418 261.236ZM339.943 618.451C346.856 628.36 356.453 638.064 365.214 646.408C409.44 688.525 468.339 715.584 528.192 726.277C540.153 728.435 552.238 729.831 564.376 730.458C631.393 733.838 693.983 717.172 744.613 671.514C787.129 633.323 812.538 579.667 815.141 522.576C822.006 386.407 701.752 286.872 570.318 294.218C493.863 297.516 407.512 334.398 355.643 391.387C350.097 397.481 344.347 405.87 339.402 411.007C368.166 484.088 368.297 545.712 339.943 618.451ZM327.25 500.728C324.222 456.009 309.068 380.522 250.691 383.647C227.977 386.945 211.101 403.799 209.736 426.854C207.301 467.993 250.779 499.866 288.475 500.747C301.033 500.727 314.795 501.021 327.25 500.728ZM243.26 651.486C293.042 660.503 316.207 601.598 323.314 562.179C324.867 553.181 326.149 544.138 327.158 535.063C317.209 534.622 304.726 534.146 294.818 534.721C267.192 537.024 244.174 544.701 225.656 566.286C201.263 594.719 201.912 640.131 243.26 651.486Z"/><path fill="#1E2B45" d="M617.017 392.393C683.086 390.879 737.891 443.174 739.473 509.241C741.056 575.308 688.818 630.168 622.752 631.819C556.59 633.472 501.632 581.141 500.047 514.976C498.463 448.812 550.851 393.909 617.017 392.393ZM628.263 598.175C676.015 593.407 710.858 550.829 706.087 503.078C701.315 455.326 658.735 420.486 610.984 425.261C563.237 430.035 528.4 472.61 533.172 520.357C537.943 568.104 580.516 602.943 628.263 598.175Z"/></svg>