<?xml version="1.0" encoding="utf-8" ?><svg xmlns="http://www.w3.org/2000/svg" xmlns:xlink="http://www.w3.org/1999/xlink" width="1024" height="1024" viewBox="0 0 1024 1024"><path fill="#1E2B45" d="M502.853 237.187C508.223 236.602 513.644 236.675 518.997 237.403C547.698 241.14 570.016 264.467 575.659 292.421C576.743 297.793 577.101 314.762 579.789 318.002C580.715 319.119 581.875 320.125 583.148 320.827C586.56 322.707 590.787 323.917 594.422 325.417C601.235 328.227 608.449 331.69 614.687 335.635C618.831 338.256 626.688 346.217 631.427 346.177C633.858 346.156 648.771 335.663 653.401 333.658C663.286 329.377 676.365 328.339 686.983 329.483C704.694 331.361 720.917 340.252 732.029 354.171C743.667 368.506 749.081 386.904 747.062 405.258C744.857 424.802 734.384 441.629 718.758 453.403C715.754 455.666 701.599 462.299 701.638 465.423C701.868 483.914 702.673 501.847 699.858 520.267C698.809 527.131 708.644 528.156 712.804 531.215C719.049 535.492 725.332 541.064 730.488 546.769C742.319 559.725 748.426 576.903 747.427 594.419C746.492 611.812 737.746 629.723 724.764 641.181C703.569 659.894 673.264 664.182 647.71 652.083C642.92 649.822 634.611 643.408 630.692 643.173C628.051 644.642 623.588 648.879 620.701 651.1C614.228 656.078 608.93 659.718 601.825 664.221C594.751 668.706 586.019 671.081 578.816 674.871C578.384 675.414 577.889 676.606 577.907 677.26C578.503 698.525 574.86 718.68 560.003 735.134C547.514 748.866 530.093 757.09 511.554 758.007C473.404 758.938 444.459 734.164 438.071 696.668C437.208 691.602 438.405 676.428 434.324 674.323C422.169 668.054 410.067 661.422 398.425 654.15C393.103 650.825 388.073 645.22 382.522 642.55C368.795 653.597 347.986 660.367 330.356 658.985C311.916 657.417 294.851 648.599 282.904 634.465C254.631 601.078 265.604 556.357 299.995 532.403C304.146 529.511 309.593 527.997 313.567 524.753C315.278 523.356 314.934 521.949 315.163 519.917C315.207 510.706 314.36 501.636 314.505 492.384C314.642 483.572 316.147 474.593 315.964 465.902L315.941 465.015C312.141 462.463 307.022 460.498 303.139 458.122C294.813 452.793 286.844 445.986 281.145 437.883C235.621 373.144 310.291 300.217 376.061 340.109C379.033 341.912 384.675 345.732 387.777 346.244C392.968 344.816 395.96 339.509 400.106 336.64C410.541 329.419 423.304 325.595 434.399 319.813C437.766 318.058 438.196 302.855 438.758 299.141C439.42 294.71 440.383 290.328 441.639 286.028C443.931 278.27 447.694 271.025 452.722 264.688C465.75 248.191 482.25 239.697 502.853 237.187ZM506.619 737.023C535.863 736.951 556.673 714.721 555.987 685.515C555.624 670.031 557.746 657.999 574.126 651.904C583.572 648.389 593.247 645.214 601.389 639.164C611.281 632.552 619.035 620.88 632.003 620.72C642.53 620.59 649.213 629.773 657.995 633.576C684.063 644.691 713.424 632.137 723.588 605.701C731.578 584.92 720.551 561.149 702.264 550.111C688.422 541.756 676.265 539.037 678.863 518.187C680.643 503.904 681.742 489.417 679.852 475.054C677.68 459.281 680.402 448.421 696.271 441.759C727.11 429.152 736.035 389.57 713.67 364.817C699.801 350.153 675.741 345.502 657.804 355.219C648.35 360.34 644.084 367.626 631.959 368.181C622.086 369.317 615.518 362.74 608.11 357.475C604.397 354.838 601.001 352.597 596.866 350.402C582.588 342.822 561.286 340.343 556.619 321.911C555.07 315.794 556.644 308.332 555.538 302.072C553.101 280.713 535.447 258.297 512.502 257.67C511 257.643 509.498 257.654 507.997 257.701C483.159 259.249 463.786 276.275 459.795 300.994C457.988 312.187 460.614 328.376 449.56 335.815C439.649 342.484 426.612 345.636 416.398 352.111C406.13 358.394 400.877 367.478 387.85 368.247C376.903 369.632 371.165 361.845 362.322 356.815C323.84 334.929 278.443 367.599 291.313 411.219C297.383 431.79 311.329 437.478 327.78 447.768C336.79 453.404 338.854 465.73 336.882 475.255C335.03 487.2 335.246 499.851 336.357 511.902C336.791 516.546 337.417 521.724 336.713 526.33C335.993 531.079 333.863 535.501 330.6 539.025C325.047 544.965 318.519 546.009 312.104 550.101C298.206 558.967 288.592 575.792 288.905 592.262C289.404 618.496 311.823 639.577 338.012 638.069C343.234 637.768 348.6 636.908 353.498 634.851C364.987 629.753 378.465 615.989 392.038 622.487C394.08 623.465 401.217 629.462 403.549 631.304C407.764 634.66 412.187 637.748 416.789 640.551C422.282 643.921 428.359 647.056 434.129 649.743C447.725 656.073 459.906 661.227 458.97 678.907C457.273 710.967 473.745 733.538 506.619 737.023Z"/><path fill="#1E2B45" d="M498.875 393.172C555.845 388.486 605.758 431.032 610.153 488.025C614.548 545.018 571.748 594.713 514.733 598.817C458.128 602.891 408.869 560.466 404.506 503.883C400.143 447.3 442.315 397.825 498.875 393.172ZM514.228 577.249C559.294 573.408 592.653 533.668 588.627 488.618C584.601 443.568 544.724 410.373 499.692 414.584C454.92 418.77 421.958 458.366 425.961 503.155C429.963 547.944 469.424 581.067 514.228 577.249Z"/><path fill="#16191E" fill-opacity="0.96862745" d="M383.993 678.733C386.393 677.855 391.539 675.476 392.106 680.41L392.296 682.123C391.957 681.618 391.444 680.912 391.189 680.381C390.045 678.576 388.84 677.686 386.716 678.722C385.02 679.549 385.484 684.52 385.581 685.844L385.431 686.646C384.853 688.264 384.995 689.655 384.916 691.418C384.751 690.749 383.969 678.859 383.993 678.733Z"/><path fill="#2E333D" fill-opacity="0.93725491" d="M379.617 674.433C384.522 679.361 374.731 683.734 375.526 686.236L375.622 687.257C367.692 687.256 380.121 682.046 379.896 676.335C379.61 675.799 379.326 675.276 379.056 674.731L379.617 674.433Z"/><path fill="#16191E" fill-opacity="0.90980393" d="M814.754 501.275C814.058 501.059 813.361 500.843 812.665 500.627C813.264 498.299 815.704 496.225 816.78 493.992C817.22 493.41 817.697 492.269 818.218 491.795C820.392 489.817 820.791 492.008 820.674 493.632L820.068 493.688L819.846 492.896C819.662 492.623 819.518 492.324 819.248 492.148C818.882 492.157 815.498 498.264 814.507 498.745C814.369 498.812 814.118 499.254 814.064 499.47C814.228 499.81 814.607 499.826 814.951 499.937L814.754 501.275Z"/><path fill="#16191E" fill-opacity="0.92941177" d="M837.854 501.532C839.953 497.722 836.379 497.223 834.592 495.016C834.515 494.522 834.786 494.475 835.253 494.553C837.276 494.892 838.219 497.695 839.333 498.555C840.21 498.359 841.32 495.242 842.706 494.87C843.302 495.314 840.359 499.321 839.909 499.878C839.294 500.765 838.961 501.307 838.419 502.238L837.854 501.532Z"/><path fill="#16191E" fill-opacity="0.94901961" d="M824.686 494.976C825.16 495.008 828.726 495.093 828.888 495.227C828.752 495.347 827.752 495.381 827.528 495.397C827.099 495.584 826.671 495.771 826.242 495.957C825.998 498.644 825.747 501.029 826.393 503.644L826.362 503.911C826.117 505.283 825.983 506.078 825.623 507.432C825.321 503.15 825.364 499.226 824.686 494.976Z"/><path fill="#0B0B0E" fill-opacity="0.95294118" d="M830.582 494.914C832.097 495.272 832.057 495.246 833.211 496.33C833.02 498.721 833.012 499.552 833.173 501.984C832.285 503.045 831.915 503.375 830.842 504.251C829.647 504.1 829.221 503.984 828.05 504.07C827.944 503.951 827.524 503.382 827.454 503.288C827.622 503.137 834.289 505.686 831.919 496.465C831.501 496.114 831.623 496.157 831.133 496.051L830.415 495.892C830.115 495.333 830.019 495.267 830.582 494.914Z"/><path fill="#2E333D" fill-opacity="0.94117647" d="M512.761 183.121C516.591 182.849 515.844 181.608 519.656 182.87L519.317 183.298C518.637 183.258 513.904 183.29 513.639 183.816C513.186 184.712 513.913 193.213 513.22 193.483C513.018 193.405 512.874 192.948 512.8 192.785C513.023 189.948 513.214 185.899 512.761 183.121Z"/><path fill="#2E333D" fill-opacity="0.77254903" d="M808.454 492.184C804.003 490.312 803.723 494.011 803.214 494.431C800.695 494.43 805.608 488.065 810.034 492.449L809.491 492.677L808.454 492.184Z"/><path fill="#5C5B64" fill-opacity="0.45490196" d="M803.418 504.337L803.605 503.769C804.605 503.747 810.711 502.822 810.769 504.22C810.363 504.849 804.43 504.476 803.418 504.337Z"/><path fill="#2E333D" fill-opacity="0.74901962" d="M805.833 500.15C806.697 499.268 808.533 497.705 809.521 496.863L810.138 497.266C808.816 498.849 806.711 501.165 805.079 502.368C805.671 501.299 805.658 501.353 805.833 500.15Z"/><path fill="#0B0B0E" fill-opacity="0.96862745" d="M819.603 499.945L820.223 500.619C820.151 501.813 820.336 502.467 819.544 503.32C819.488 502.525 819.225 501.893 818.983 501.122C817.325 500.88 816.397 501.053 814.754 501.275L814.951 499.937C816.083 499.938 818.819 500.301 819.603 499.945Z"/><path fill="#0B0B0E" fill-opacity="0.63137257" d="M519.656 182.87C521.395 184.78 521.335 187.89 520.622 190.234L520.01 190.144C520.058 187.169 520.521 186.017 519.317 183.298L519.656 182.87Z"/><path fill="#16191E" fill-opacity="0.80784315" d="M377.765 674.434C373.76 674.612 373.955 676.774 373.205 676.847C372.625 676.215 375.379 671.432 379.617 674.433L379.056 674.731L377.765 674.434Z"/><path fill="#0B0B0E" fill-opacity="0.83529413" d="M396.697 680.814L396.681 679.099C397.45 680.312 398.819 681.424 398.689 682.544C397.423 683.653 396.755 685.472 395.746 686.11C395.464 685.949 395.572 686.062 395.425 685.769C395.61 683.926 399.033 682.951 396.697 680.814Z"/><path fill="#2E333D" fill-opacity="0.58823532" d="M495.918 179.872C490.695 178.439 491.883 181.164 490.289 181.947L490.157 181.879C489.089 179.609 493.021 177.81 496.01 179.33L495.918 179.872Z"/><path fill="#1E2B45" fill-opacity="0.9254902" d="M805.833 500.15C805.658 501.353 805.671 501.299 805.079 502.368C804.564 502.828 804.1 503.289 803.605 503.769L803.418 504.337C800.33 504.12 804.967 500.833 805.833 500.15Z"/><path fill="#5C5B64" fill-opacity="0.15686275" d="M512.8 192.785C512.519 191.39 512.149 184.08 512.761 183.121C513.214 185.899 513.023 189.948 512.8 192.785Z"/><path fill="#16191E" fill-opacity="0.81176472" d="M507.415 178.363C508.48 179.43 505.179 182.17 504.037 183.722C502.813 183.185 506.765 179.046 507.415 178.363Z"/><path fill="#0B0B0E" fill-opacity="0.3882353" d="M526.18 187.467C526.556 186.673 528.056 183.591 528.867 183.667C529.513 184.437 527.312 187.427 526.636 188.063L526.18 187.467Z"/><path fill="#16191E" fill-opacity="0.34901962" d="M520.622 190.234C519.388 191.282 515.327 193.67 514.418 191.248C514.551 190.907 514.444 191.055 514.756 190.816C516.087 190.731 516.701 192.711 520.01 190.144L520.622 190.234Z"/><path fill="#5C5B64" fill-opacity="0.45490196" d="M398.689 682.544C400.281 684.011 401.029 685.366 401.884 687.37L401.22 686.89C399.662 685.795 399.364 685.343 398.925 683.496L398.689 682.544Z"/><path fill="#16191E" fill-opacity="0.9137255" d="M810.034 492.449L810.33 493.008C811.3 494.772 811.08 495.527 810.138 497.266L809.521 496.863C810.065 495.323 810.172 495.151 809.61 493.674L809.491 492.677L810.034 492.449Z"/><path fill="#4D4D54" fill-opacity="0.58431375" d="M521.876 181.829C524.06 182.38 525.296 182.841 525.91 185.306C525.165 185.251 522.875 182.651 521.876 181.829Z"/><path fill="#16191E" fill-opacity="0.42352942" d="M501.606 188.241C504.41 187.84 504.923 187.701 507.283 188.761C504.668 189.075 503.693 189.429 501.606 188.241Z"/><path fill="#4D4D54" fill-opacity="0.66666669" d="M824.686 494.976C826.907 494.471 828.382 494.287 830.582 494.914C830.019 495.267 830.115 495.333 830.415 495.892C829.315 495.751 828.601 495.665 827.528 495.397C827.752 495.381 828.752 495.347 828.888 495.227C828.726 495.093 825.16 495.008 824.686 494.976Z"/><path fill="#2E333D" fill-opacity="0.54901963" d="M494.128 186.989C494.528 188.637 492.718 189.426 491.416 190.548C490.929 188.867 492.752 188.167 494.128 186.989Z"/><path fill="#0B0B0E" fill-opacity="0.64705884" d="M819.846 492.896L820.068 493.688C819.902 496.001 820.024 496.974 820.386 499.27C820.332 499.72 820.277 500.169 820.223 500.619L819.603 499.945C819.531 497.477 819.28 495.252 819.846 492.896Z"/><path fill="#16191E" fill-opacity="0.76862746" d="M385.581 685.844C386.896 686.158 388.186 686.449 389.524 686.638L389.564 687.165C387.5 687.653 387.458 687.438 385.431 686.646L385.581 685.844Z"/><path fill="#0B0B0E" fill-opacity="0.89411765" d="M391.464 683.656L392.249 683.416L392.085 684.208C391.795 685.849 390.979 686.389 389.564 687.165L389.524 686.638C390.648 685.347 390.673 685.219 391.464 683.656Z"/><path fill="#0B0B0E" fill-opacity="0.63921571" d="M506.99 184.507C506.887 180.64 508.344 178.507 507.945 183.584L506.99 184.507Z"/><path fill="#0B0B0E" fill-opacity="0.22745098" d="M506.99 184.507L507.945 183.584C507.79 185.388 508.114 186.315 507.5 187.968L506.921 187.966C506.981 186.762 507.002 185.712 506.99 184.507Z"/><path fill="#5C5B64" fill-opacity="0.50980395" d="M396.697 680.814C396.375 680.455 393.995 677.844 394.316 677.524L394.359 677.555L395.035 677.508C395.87 678.063 396.125 678.312 396.681 679.099L396.697 680.814Z"/><path fill="#4D4D54" fill-opacity="0.47450981" d="M826.242 495.957C826.647 498.561 826.551 501.013 826.393 503.644C825.747 501.029 825.998 498.644 826.242 495.957Z"/><path fill="#0B0B0E" fill-opacity="0.75294119" d="M496.01 179.33C498.111 181.313 497.84 181.649 497.262 184.133L496.935 183.369C496.966 181.56 496.826 181.518 495.918 179.872L496.01 179.33Z"/><path fill="#0B0B0E" fill-opacity="0.44313726" d="M506.921 187.966L507.5 187.968C508.241 192.38 506.934 191.851 506.921 187.966Z"/><path fill="#16191E" fill-opacity="0.98431373" d="M820.068 493.688L820.674 493.632C820.5 495.495 820.498 497.377 820.386 499.27C820.024 496.974 819.902 496.001 820.068 493.688Z"/><path fill="#4D4D54" fill-opacity="0.61960787" d="M391.189 680.381C391.444 680.912 391.957 681.618 392.296 682.123C392.28 682.554 392.264 682.985 392.249 683.416L391.464 683.656C391.215 682.237 391.206 681.829 391.189 680.381Z"/><path fill="#2E333D" fill-opacity="0.74509805" d="M839.909 499.878C840.939 500.974 841.787 501.404 841.722 502.904C840.532 502.544 840.245 500.931 839.909 499.878Z"/><path fill="#0B0B0E" fill-opacity="0.44313726" d="M825.623 507.432C825.983 506.078 826.117 505.283 826.362 503.911C826.451 504.616 827.148 508.223 825.623 507.432Z"/><path fill="#4D4D54" fill-opacity="0.7764706" d="M375.526 686.236L376.224 685.989C378.667 685.046 377.796 686.391 375.622 687.257L375.526 686.236Z"/><path fill="#5C5B64" fill-opacity="0.16078432" d="M378.987 686.343C379.85 686.01 379.916 685.776 380.391 686.627C379.625 686.823 379.565 686.928 378.987 686.343Z"/><path fill="#16191E" fill-opacity="0.58431375" d="M833.211 496.33C833.596 498.993 833.656 499.354 833.173 501.984C833.012 499.552 833.02 498.721 833.211 496.33Z"/><path fill="#0B0B0E" fill-opacity="0.43921569" d="M384.916 691.418C384.995 689.655 384.853 688.264 385.431 686.646C385.633 689.063 385.649 689.086 384.916 691.418Z"/><path fill="#0B0B0E" fill-opacity="0.64313728" d="M526.18 187.467L526.636 188.063C525.025 190.997 524.349 190.08 526.18 187.467Z"/><path fill="#16191E" fill-opacity="0.98823529" d="M822.036 500.447C822.32 500.333 822.219 500.348 822.369 500.348C822.503 500.43 822.422 500.359 822.604 500.637C822.227 500.666 822.315 500.682 822.036 500.447Z"/><path fill="#0B0B0E" fill-opacity="0.65882355" d="M837.854 501.532L838.419 502.238C838.199 502.508 837.553 503.614 837.103 503.245C837.044 502.806 837.274 502.456 837.503 502.103L837.854 501.532Z"/><path fill="#0B0B0E" fill-opacity="0.56470591" d="M496.935 183.369L497.262 184.133C496 186.261 495.66 185.302 496.537 183.996L496.935 183.369Z"/><path fill="#16191E" fill-opacity="0.34509805" d="M828.05 504.07C829.221 503.984 829.647 504.1 830.842 504.251C829.401 504.487 829.124 504.8 828.05 504.07Z"/><path fill="#0B0B0E" fill-opacity="0.79215688" d="M509.165 188.435C509.269 188.403 509.372 188.371 509.476 188.339C509.587 188.423 509.521 188.351 509.654 188.63C509.556 188.637 509.458 188.644 509.361 188.65C509.218 188.566 509.287 188.63 509.165 188.435Z"/><path fill="#5C5B64" fill-opacity="0.26274511" d="M819.544 503.32C818.72 502.543 818.937 502.232 818.983 501.122C819.225 501.893 819.488 502.525 819.544 503.32Z"/></svg>