<?xml version="1.0" encoding="utf-8" ?><svg xmlns="http://www.w3.org/2000/svg" xmlns:xlink="http://www.w3.org/1999/xlink" width="1024" height="1024" viewBox="0 0 1024 1024"><path fill="#1E2B45" d="M415.836 235.196C435.959 233.115 455.669 242.157 469.035 256.773C482.199 271.168 488.61 280.429 509.353 282.008C550.075 285.107 556.899 239.244 596.835 235.679C626.255 233.052 639.391 246.237 662.483 261.571C672.037 267.805 683.836 275.631 692.552 282.435C709.352 295.548 717.43 323.22 712.585 343.69C709.281 357.648 704.407 364.697 706.022 380.666C706.805 396.835 719.828 414.5 736.086 418.276C753.57 422.338 764.914 421.647 780.293 434.379C793.855 445.782 802.305 462.127 803.766 479.786C804.048 482.913 804.095 486.191 804.043 489.335C803.904 497.766 804.229 506.266 804.054 514.686C803.841 524.942 804.885 536.224 803.628 546.34C800.166 574.218 780.445 595.847 753.136 602.312C747.657 603.696 742.043 604.299 736.586 605.784C712.783 612.263 701.606 637.984 707.191 660.89C709.317 669.609 712.753 678.68 713.492 687.609C714.969 705.468 709.347 721.864 697.94 735.516C695.367 738.632 692.458 741.455 689.267 743.936C679.342 751.646 667.262 758.451 656.806 765.581C648.732 771.087 640.041 777.938 631.376 782.124C624.6 785.404 617.281 787.415 609.781 788.057C590.558 789.301 573.073 784.139 558.863 770.755C552.725 764.973 547.068 758.017 540.435 752.869C532.938 747.094 523.807 743.839 514.348 743.57C501.183 743.157 488.878 746.661 479.472 756.2C474.862 760.876 470.954 766.009 466.115 770.664C455.999 780.21 443.079 786.244 429.266 787.875C400.011 791.347 385.303 776.866 362.471 761.973C353.38 756.043 343.872 749.777 335.272 743.298C316.153 728.896 307.27 703.619 312.366 680.378C315.417 667.957 320.324 655.956 318.533 643.003C315.092 618.104 298.257 605.346 274.112 602.919C265.659 602.07 252.38 596.15 245.452 590.616C232.424 580.209 222.686 563.785 220.905 546.975C219.899 536.077 220.191 521.294 220.231 510.013C220.263 501.174 219.761 484.033 221.03 475.929C224.767 451.373 242.241 431.128 265.988 423.843C282.596 418.858 297.151 420.127 309.177 404.696C318.567 392.647 320.599 377.289 317.362 362.587C315.467 353.981 312.734 347.108 311.61 338.009C309.526 321.148 314.082 303.384 324.69 290.033C327.472 286.523 330.666 283.36 334.203 280.613C340.141 275.973 354.223 267.276 360.981 263.01C370.522 256.988 386.278 245.448 395.771 240.919C402.076 237.859 408.866 235.922 415.836 235.196ZM608.016 769.882C624.512 767.18 634.44 758.415 647.95 749.371C657.662 742.87 669.524 736.091 678.544 728.863C681.572 726.44 684.258 723.62 686.53 720.477C694.761 709.05 696.66 693.964 693.104 680.507C691.744 675.361 690.064 670.29 688.902 665.092C684.604 646.68 688.209 627.31 698.844 611.678C705.756 601.727 715.409 593.998 726.631 589.43C733.942 586.512 743.788 584.929 751.622 582.814C768.785 578.18 781.386 565.049 784.922 547.621C786.147 541.587 786.148 527.036 785.942 520.276C785.556 507.635 786.857 487.841 784.688 475.957C782.618 463.985 775.802 453.357 765.785 446.482C754.89 439.149 745.504 439.864 733.384 436.882C709.856 431.093 693.284 411.339 688.582 387.989C686.913 379.699 686.823 370.508 688.375 362.191C689.697 355.102 692.572 348.425 694.125 341.402C697.46 326.317 693.807 309.071 682.51 298.047C676.252 291.94 667.676 287.024 660.43 282.144C654.539 278.177 648.638 274.25 642.8 270.202C628.443 260.246 614.628 251.086 596.311 254.609C562.677 261.078 562.18 300.903 511.757 300.579C499.107 300.498 487.239 297.366 476.626 290.319C455.367 276.202 448.395 251.999 417.847 253.73C400.574 255.444 391.055 264.765 377.255 274.082C367.228 280.851 355.49 287.551 345.955 294.876C343.385 296.834 341.039 299.071 338.961 301.544C330.857 311.322 328.576 323.4 329.796 335.81C330.635 344.34 333.963 352.423 335.958 360.735C340.541 379.836 335.264 401.676 323.003 416.982C314.507 427.459 302.768 434.813 289.634 437.886C271.591 442.275 259.732 441.66 247.85 458.266C243.622 464.174 240.682 470.728 239.386 477.882C237.65 487.459 238.449 497.934 238.46 507.673C238.474 519.283 237.67 531.633 238.842 543.143C240.083 555.328 245.561 566.26 255.203 573.95C267.087 583.429 280.927 584.053 294.741 588.475C318.06 595.94 334.121 617.507 337.085 641.487C339.17 658.356 333.5 669.262 330.575 684.966C327.421 701.893 332.355 717.18 345.919 727.974C354.412 734.732 364.188 740.31 373.161 746.444C382.45 752.795 393.469 762.711 403.704 766.8C411.114 769.762 419.51 770.732 427.422 769.788C463.208 765.517 466.348 720.538 517.69 725.014C530.602 726.139 541.781 730.258 552.046 738.225C573.162 754.616 576.659 771.106 608.016 769.882Z"/><path fill="#000001" fill-opacity="0.87450981" d="M164.634 190.777C178.468 187.573 179.029 204.82 169.759 207.151C166.122 208.066 163.057 205.999 160.848 203.025L160.639 203.076C161.275 201.818 159.722 213.902 159.651 214.3C158.445 206.797 159.1 198.728 159.177 191.156C159.179 190.934 160.091 190.825 160.364 191.113C161.022 191.809 160.186 193.724 160.99 194.092C161.439 193.923 162.006 192.423 163.112 191.643L163.436 192.419C159.398 196.931 160.282 194.856 160.971 201.862C163.012 204.15 164.076 205.986 167.495 206.019C172.021 206.062 174.388 201.574 173.908 197.497C173.302 192.35 170.256 191.227 165.535 191.54L164.634 190.777Z"/><path fill="#000001" fill-opacity="0.90980393" d="M146.053 183.744C146.379 183.816 147.427 183.993 147.739 184.256C147.775 184.748 138.411 197.379 137.282 198.695L136.905 199.145C140.584 199.265 144.403 199.544 148.078 199.779C148.08 199.267 147.444 192.758 149.167 193.1C150.57 193.379 149.323 198.894 149.717 199.764C150.031 199.996 150.758 199.993 151.023 200.026C151.573 200.233 151.988 200.319 152.396 200.699C152.389 200.738 152.382 200.778 152.375 200.818C151.608 201.247 150.584 200.754 149.863 201.293C149.85 202.172 149.876 206.267 149.145 206.757C147.294 206.104 148.145 202.591 148.012 200.951C143.187 201.047 138.505 201.019 133.692 201.038C135.671 197.939 137.753 194.908 139.935 191.949C141.999 189.161 143.933 186.513 146.053 183.744Z"/><path fill="#000001" fill-opacity="0.91764706" d="M185.747 198.427C178.475 191.664 178.224 185.444 186.623 197.122L187.158 196.375C188.562 194.333 190.316 191.35 192.621 190.567C192.782 190.625 192.943 190.684 193.104 190.743C193.404 191.614 189.036 197.496 188.238 198.604L188.201 198.634C188.18 198.241 192.992 205.018 193.682 209.058C191.748 206.729 187.975 201.24 186.547 199.959C186.073 199.245 185.982 199.197 185.747 198.427Z"/><path fill="#000001" fill-opacity="0.9137255" d="M121.693 199.214C124.18 196.526 128.288 193.174 127.855 189.498C127.193 184.437 119.487 184.515 116.533 187.596C116.173 187.971 114.299 187.676 115.116 186.6C118.744 181.823 128.595 182.387 129.419 189.246C130.021 194.251 126.29 197.338 122.749 200.23L121.693 199.214Z"/><path fill="#000001" fill-opacity="0.94901961" d="M117.263 203.373C117.646 203.854 117.976 204.317 118.337 204.814C120.431 205.086 131.693 203.854 129.884 206.84C129.329 207.132 115.854 207.449 115.052 206.282C115.121 205.295 116.556 204.113 117.263 203.373Z"/><path fill="#000001" fill-opacity="0.79607844" d="M185.747 198.427C185.982 199.197 186.073 199.245 186.547 199.959C185.872 200.889 181.423 206.945 181.461 206.931C177.221 208.388 185.049 199.14 185.747 198.427Z"/><path fill="#000001" fill-opacity="0.78039217" d="M121.693 199.214L122.749 200.23C120.73 201.844 119.902 202.752 118.337 204.814C117.976 204.317 117.646 203.854 117.263 203.373C118.788 201.96 120.198 200.672 121.693 199.214Z"/><path fill="#000001" fill-opacity="0.61176473" d="M163.112 191.643L164.634 190.777L165.535 191.54L163.436 192.419L163.112 191.643Z"/></svg>