<?xml version="1.0" encoding="utf-8" ?><svg xmlns="http://www.w3.org/2000/svg" xmlns:xlink="http://www.w3.org/1999/xlink" width="1024" height="1024" viewBox="0 0 1024 1024"><path fill="#1E2B45" d="M570.24 165.755C624.094 165.061 678.92 166.948 732.616 172.892C769.136 177.426 809.533 181.778 840.002 204.276C854.534 215.007 862.061 234.291 852.605 250.628C834.251 282.34 790.877 281.765 761.813 297.259C742.856 307.365 726.37 323.651 715.254 341.915C693.844 377.556 692.525 408.267 692.505 447.66L692.444 493.419C692.278 530.543 692.19 549.693 666.95 580.113C666.392 593.395 666.869 608.144 666.92 621.52L666.896 704.421C666.793 715.151 666.653 725.887 666.476 736.616C665.783 778.751 646.189 822.061 615.013 850.4C584.09 878.898 542.999 893.752 501.002 891.614C466.379 889.827 433.472 877.629 407.149 854.715C383.056 833.741 365.542 806.768 357.648 775.633C350.374 746.942 353.695 715.206 353.028 685.743C352.834 676.398 353.673 666.746 352.288 657.488C350.179 643.381 336.457 632.798 322.504 632.419C314.658 632.241 307.055 635.149 301.332 640.518C296.956 644.686 293.921 650.064 292.617 655.965C290.927 663.401 291.601 681.85 291.574 690.29C291.502 713.375 291.824 736.646 291.522 759.74C291.301 776.706 285.464 790.569 273.154 802.26C251.019 822.139 215.964 821.115 195.468 799.265C188.771 792.25 184.06 783.579 181.818 774.143C179.036 762.515 180 734 180.048 720.5C180.109 703.442 179.515 683.484 180.079 666.52C181.402 626.722 196.549 590.154 225.806 562.739C253.04 537.126 289.391 523.475 326.752 524.83C401.609 527.634 456.992 585.231 463.187 658.491C464.287 671.5 463.965 684.706 463.959 697.759L463.937 722.178C463.924 727.485 463.63 735.176 464.686 740.196C465.868 746.053 468.673 751.459 472.782 755.798C478.577 761.9 487.795 765.775 496.196 765.868C504.972 765.951 513.426 762.571 519.726 756.46C530.763 745.644 529.585 731.642 529.415 717.412C529.314 709.047 529.128 700.668 529.082 692.303L528.987 615.203C528.979 604.397 528.564 592.528 528.754 581.942C528.427 581.652 528.104 581.357 527.787 581.056C522.879 576.394 518.865 570.315 515.356 564.617C498.604 538.569 500.877 510.848 500.569 481.536C500.205 446.903 503.645 414.544 494 380.825C482.68 341.252 459.405 308.293 419.939 292.853C394.014 282.711 365.397 281.085 344.338 261.169C328.677 247.01 328.029 222.76 343.635 208.47C376.577 178.305 437.475 173.391 479.502 169.873C509.683 167.331 539.952 165.958 570.24 165.755ZM369.39 234.127C369.533 234.266 369.674 234.406 369.818 234.542C379.18 243.347 415.282 252.407 429.184 257.392C499.642 282.656 534.273 350.415 537.263 421.859C538.19 444.021 537.523 466.449 537.524 488.64C537.524 501.553 536.29 515.839 539.491 528.382C542.403 539.698 548.503 549.94 557.067 557.89C571.135 570.872 587.707 574.883 606.389 572.541C621.676 570.218 635.395 561.866 644.476 549.352C657.988 530.983 655.786 510.161 655.633 488.73L655.616 442.082C655.651 430.971 655.528 419.641 656.453 408.713C662.26 340.132 702.224 274.246 770.912 254.023C786.474 249.441 807.164 243.627 820.473 234.365C800.47 218.156 762.202 212.965 736.806 210.057C687.014 204.356 634.889 201.7 584.712 202.243C541.1 202.779 398.001 204.838 369.39 234.127ZM545.206 849.109C576.087 839.157 601.768 817.379 616.631 788.539C632.693 756.816 630.057 726.939 630.006 692.855L629.974 603.278C606.813 610.08 589.978 611.048 566.123 604.67C564.866 646.422 566.833 689.007 565.966 730.83C565.822 737.77 565.703 744.291 563.802 751.031C556.04 782.051 526.339 804.154 494.366 802.467C463.319 801.352 438.194 782.014 429.657 752.053C426.413 740.665 427.595 728.115 427.312 716.389C427.479 664.722 432.773 621.745 388.077 585.233C370.558 570.837 348.821 562.547 326.165 561.621C322.748 561.475 318.264 561.494 314.826 561.745C287.487 563.584 262.015 576.266 244.072 596.974C212.976 632.352 217.427 665.988 217.201 708.864L216.999 742.179C216.942 751.374 215.186 767.914 222.827 774.439C231.244 781.625 244.434 780.812 250.883 771.408C256.006 764.252 254.408 752.283 254.321 743.747L254.133 694.337C254.09 683.423 253.519 663.398 255.093 653.364C259.391 624.702 281.458 601.956 309.976 596.791C346.778 590.265 382.16 614.987 388.6 652.2C390.453 662.908 389.657 676.133 389.633 687.196L389.555 721.228C389.534 730.486 389.361 740.736 390.377 749.883C393.831 783.238 411.525 813.475 438.913 832.824C464.507 851.173 496.361 858.56 527.418 853.347C533.428 852.295 539.368 850.88 545.206 849.109Z"/></svg>