<?xml version="1.0" encoding="utf-8" ?><svg xmlns="http://www.w3.org/2000/svg" xmlns:xlink="http://www.w3.org/1999/xlink" width="1024" height="1024" viewBox="0 0 1024 1024"><path fill="#1E2B45" d="M490 130.442C701.367 117.746 882.991 278.836 895.623 490.207C908.255 701.578 747.11 883.153 535.735 895.721C324.45 908.284 142.97 747.223 130.343 535.942C117.717 324.661 278.723 143.132 490 130.442ZM530.233 865.843C725.057 856.318 875.264 690.649 865.714 495.827C856.165 301.005 690.476 150.819 495.656 160.393C300.87 169.965 150.717 335.617 160.264 530.405C169.812 725.192 335.445 875.366 530.233 865.843Z"/><path fill="#1E2B45" d="M510.253 279.185C510.857 279.131 511.464 279.095 512.07 279.076C535.928 278.366 559.055 295.469 564.693 319.09C567.788 332.055 566.214 351.694 566.465 365.431C567.026 396.139 565.768 427.182 566.433 457.918C606.249 458.584 646.362 457.397 686.202 457.894C691.428 457.959 697.125 457.998 702.238 459.237C741.589 468.773 757.227 518.159 730.296 548.671C722.732 557.115 712.753 563.028 701.714 565.608C692.701 567.719 671.676 567.037 661.298 567.02L602.036 567C590.926 567.003 577.2 566.651 566.348 567.386C565.921 576.568 566.436 589.678 566.443 599.203L566.481 664.759C566.52 687.798 569.796 710.383 553.312 728.896C543.332 740.104 531.787 745.985 516.804 747.149C515.882 747.212 514.959 747.245 514.035 747.249C498.676 747.405 486.161 742.282 475.22 731.621C458.021 714.86 459.587 693.612 459.971 671.621C460.048 667.262 459.994 662.766 459.995 658.392L459.939 567.072C431.42 566.865 402.901 566.811 374.382 566.912C369.321 566.922 364.161 566.918 359.107 566.962C336.293 567.163 317.223 569.244 299.489 552.038C288.882 541.918 282.822 527.937 282.689 513.277C282.483 497.715 287.598 485.268 298.204 473.992C317.598 453.373 348.182 457.902 374.27 457.904L459.975 457.93C460.565 427.39 459.525 396.056 459.96 365.467C460.105 355.234 459.192 331.564 460.83 322.643C462.373 313.996 466.052 305.872 471.533 299.009C481.966 286.043 494.083 280.925 510.253 279.185ZM516.565 717.102C526.417 714.597 535.498 707.375 536.06 696.459C536.762 682.819 536.315 668.726 536.258 655.031L536.197 579.904C536.193 576.911 536.357 572.753 536.188 569.881C533.965 532.105 544.799 536.463 576.226 536.566L645.194 536.659C659.53 536.675 674.255 536.585 688.548 536.536C719.988 536.429 721.543 490.643 690.722 488.961C678.539 488.297 665.476 488.656 653.213 488.611L578.089 488.589C569.83 488.61 553.975 489.886 546.554 487.634C543.142 486.599 539.156 483.418 537.937 479.991C535.073 471.939 536.299 439.867 536.275 428.728L536.267 357.619C536.304 337.642 540.585 308.644 510.864 309.681C499.76 311.602 491.073 319.003 490.638 330.539C490.175 342.811 490.46 355.53 490.472 367.822L490.519 445.536C490.518 452.755 490.136 461.171 490.49 468.271C491.784 494.288 467.483 488.974 448.979 488.893L376.296 488.842C366.181 488.806 337.451 487.764 329.721 489.758C324.695 491.055 320.312 494.132 317.386 498.419C313.566 504.079 312.249 511.063 313.744 517.726C315.119 524.085 319.033 529.605 324.578 533.007C329.588 536.101 334.23 536.45 339.943 536.483C350.889 536.548 361.838 536.529 372.784 536.535L449.049 536.58C463.136 536.567 488.854 532.065 490.033 550.68C490.795 562.697 490.493 576.607 490.501 588.769L490.482 668.162C490.438 676.109 490.41 684.096 490.401 692.04C490.385 707.499 500.528 718.629 516.565 717.102Z"/></svg>