<?xml version="1.0" encoding="utf-8" ?><svg xmlns="http://www.w3.org/2000/svg" xmlns:xlink="http://www.w3.org/1999/xlink" width="1024" height="1024" viewBox="0 0 1024 1024"><path fill="#1E2B45" d="M515.347 109.691C531.119 107.665 550.498 112.717 563.727 121.203C572.375 126.75 579.666 133.989 587.188 140.91C595.405 148.407 603.581 155.949 611.717 163.535L677.684 223.681L821.052 352.127L855.458 382.543C877.29 401.747 895.265 415.86 895.558 447.746C895.935 474.084 881.372 498.366 857.96 510.436C850.807 514.07 841.928 515.483 835.577 519.929C820.03 530.813 821.432 546.614 821.448 563.042L821.35 590.25L821.28 716.027L821.279 762.044C821.234 775.186 821.839 792.229 818.681 805.014C810.899 836.514 782.584 861.944 750.466 866.434C743.242 867.444 734.543 867.311 727.245 867.354L420.953 867.295L341.23 867.34C327.944 867.363 303.671 868.02 291.258 865.961C274.238 863.234 258.489 855.275 246.198 843.189C234.961 831.983 227.332 818.62 223.96 803.093C221.633 792.376 222.248 780.088 222.255 769.037L222.276 727.784L222.306 581.229C222.328 572.551 222.754 565.62 229.555 559.117C234.288 554.667 240.579 552.254 247.073 552.399C256.103 552.609 263.453 557.906 266.48 566.41C269.423 574.679 268.079 600.255 268.078 610.167L268.247 730.128L268.218 768.353C268.253 783.207 266.411 797.292 277.882 808.61C289.299 819.876 302.576 819.136 317.519 818.943C323.567 818.865 329.753 818.897 335.794 818.88L403.232 818.879L626.875 818.86L701.162 818.924C713.717 818.917 730.571 819.895 742.672 818.466C782.328 813.782 774.84 772.455 774.816 743.531L774.973 607.574L775.007 566.396C775.01 557.204 774.743 546.617 775.755 537.626C776.84 528.55 779.413 519.715 783.371 511.476C794.909 487.954 813.01 475.922 836.556 468.062C851.017 463.235 853.642 442.999 842.122 433.031C835.991 427.725 829.215 421.244 822.836 415.475C809.181 403.15 795.465 390.895 781.687 378.71C744.079 345.613 706.648 312.316 669.393 278.822L582.838 199.846C575.094 192.759 567.397 185.62 559.748 178.431C546.746 166.143 536.262 153.224 516.312 156.031C510.687 156.831 505.385 159.142 500.97 162.718C496.295 166.509 489.431 173.288 484.863 177.51C475.08 186.538 465.239 195.502 455.339 204.401L319.067 329.071L244.852 396.926L219.099 420.157C209.736 428.732 195.298 439.305 198.604 453.949C203.186 475.931 224.977 464.653 237.768 474.172C254.238 486.429 244.138 513.769 224.773 515.052C190.45 517.324 155.345 492.216 152.382 456.659C150.835 438.102 155.347 420.937 167.752 406.474C180.651 392.195 195.934 379.629 210.013 366.572L312.655 272.551L426.103 168.797C435.236 160.525 444.302 152.18 453.3 143.761C460.111 137.439 467.606 130.145 475.067 124.796C486.885 116.219 500.804 111 515.347 109.691Z"/></svg>