<?xml version="1.0" encoding="utf-8" ?><svg xmlns="http://www.w3.org/2000/svg" xmlns:xlink="http://www.w3.org/1999/xlink" width="1024" height="1024" viewBox="0 0 1024 1024"><path fill="#1E2B45" d="M715.132 131.69C731.937 130.509 739.352 140.858 749.797 151.547L772.444 174.303L801.42 203.15C808.111 209.775 815.448 216.58 821.088 223.884C830.469 236.034 828.677 253.61 818.093 264.38C813.68 268.87 809.298 273.268 804.828 277.715L774.955 307.231L751.232 331.149C746.896 335.515 741.15 341.777 736.295 345.156C731.219 348.754 725.222 350.83 719.008 351.142C707.313 351.706 697.085 346.657 691.257 336.343C686.662 328.21 687.502 319.65 687.521 310.683C687.597 303.785 687.536 296.885 687.339 289.989C678.86 289.536 668.329 289.707 659.754 289.701L608.768 289.776L550.301 289.638C515.709 289.637 492.299 289.248 458.391 298.455C397.648 315.034 345.915 354.94 314.457 409.483C303.937 427.957 299.096 440.791 293.246 461.026C279.916 507.132 281.819 545.377 294.434 591.174C301.916 613.456 309.535 632.071 292.229 652.865C275.917 672.464 247.631 672.031 229.207 655.7C224.786 651.781 220.776 646.35 218.089 641.003C171.946 528.097 199.318 394.785 281.901 305.958C306.651 279.337 328.648 261.806 359.376 243.675C401.125 219.097 447.897 204.29 496.184 200.364C516.082 198.849 534.97 199.385 554.856 199.284L639.965 199.121C654.773 199.18 673.019 199.752 687.511 199.012C689.411 173.934 678.366 135.991 715.132 131.69ZM270.413 562.885C261.134 494.514 274.808 432.197 316.208 376.293C356.709 321.603 418.8 283.5 486.351 274.962C507.252 272.32 525.389 272.564 546.429 272.489L618.974 272.434L665.921 272.115C674.017 272.067 682.236 271.858 690.292 272.285C697.826 272.639 704.513 278.403 704.942 286.22C705.299 294.806 705.251 304.535 704.999 313.059C704.673 324.068 705.882 335.278 720.068 333.82C727.765 333.028 738.319 319.492 743.824 313.928L775.176 282.839L796.317 262C801.851 256.545 812.038 248.157 810.557 240.025C809.415 233.76 796.741 222.919 792.168 218.348L760.695 186.919C753.849 180.109 747.062 173.241 740.332 166.317C735.64 161.48 730.175 155.317 724.87 151.253C721.782 148.888 718.367 148.641 714.62 149.096C710.531 150.739 707.73 152.198 705.946 156.515C703.34 162.819 704.746 187.875 704.843 196.207C704.892 200.417 705.407 205.067 704.074 209.12C703.243 211.648 701.565 213.762 699.104 214.85C693.223 217.452 644.274 216.064 634.436 216.078L554.844 216.086C532.864 216.072 510.819 215.535 488.972 218.225C377.308 231.622 281.305 303.644 237.208 407.102C214.226 460.746 207.427 519.937 217.647 577.394C220.749 595.891 225.05 611.53 231.407 629.415C240.208 654.173 274.495 659.223 284.502 632.667C288.262 622.687 284.403 614.359 281.188 604.874C276.247 591.086 273.18 577.256 270.413 562.885Z"/><path fill="#1E2B45" d="M767.321 381.159C780.858 379.767 793.954 383.635 804.14 392.761C808.97 397.127 812.95 402.351 815.876 408.168C818.514 413.436 820.695 420.836 822.38 426.588C829.441 450.679 834.59 477.178 835.996 502.282C841.282 586.225 812.821 668.801 756.939 731.662C701.001 793.981 628.54 830.971 544.621 838.155C530.439 839.368 516.857 838.874 502.659 839.158C471.132 839.765 439.6 840.05 408.067 840.012C394.146 840.007 377.192 839.52 363.63 840.25C363.748 849.573 363.807 858.897 363.807 868.221C363.79 881.084 364.473 891.682 354.489 901.592C348.412 907.37 341.828 910.379 333.387 910.261C321.938 910.1 315.63 904.826 308.181 896.968C305.026 893.639 301.494 890.196 298.256 886.955C286.434 875.327 274.755 863.554 263.22 851.639C256.536 844.807 249.8 838.026 243.012 831.297C237.859 826.191 228.906 817.98 225.336 812.139C222.624 807.656 221.01 802.595 220.627 797.369C219.952 787.363 223.951 778.304 230.698 771.168C242.989 758.167 256.414 745.832 269.007 733.102L299.373 702.386C304.308 697.469 309.696 691.583 315.211 687.415C326.708 678.724 343.036 679.747 353.723 689.291C364.414 698.839 363.243 711.538 363.324 724.596C363.398 732.607 363.07 740.882 363.437 748.915C373.587 749.19 384.784 748.89 395.042 748.858L454.857 748.792L501.783 748.784C526.061 748.793 542.179 749.395 566.312 744.738C624.653 733.063 675.993 698.753 709.096 649.315C747.233 592.757 757.887 523.161 739.232 457.492C736.785 448.877 732.412 440.724 730.855 431.746C726.446 406.316 742.317 385.624 767.321 381.159ZM265.153 829.544L305.663 869.944C311.992 876.275 318.135 883.7 325.131 889.235C327.351 890.992 329.959 892.857 332.89 892.923C336.675 893.007 340.724 892.186 343.436 889.357C352.019 880.402 341.405 833.933 349.457 825.534C351.93 822.955 355.609 822.998 358.929 822.82C372.741 822.082 386.853 822.715 400.701 822.709C428.773 822.775 456.845 822.539 484.912 822.004C500.017 821.855 515.239 821.957 530.34 821.467C573.839 820.055 613.461 809.692 652.612 790.641C685.985 774.084 715.986 751.461 741.081 723.927C794.804 665.496 822.942 588.015 819.231 508.727C818.021 485.25 810 421.436 793.009 406.096C787.176 400.83 779.177 397.647 771.264 398.081C771.008 398.095 770.753 398.117 770.497 398.135C762.401 399.565 756.786 402.417 752.043 409.125C742.47 422.66 750.355 434.365 754.865 447.491C757.378 454.807 759.427 464.304 760.908 471.929C773.999 536.148 760.91 602.935 724.546 657.461C688.36 711.873 631.808 749.443 567.624 761.709C542.106 766.619 520.78 766.095 494.975 766.152L427.161 766.177L381.734 766.304C373.775 766.334 357.612 767.677 350.134 764.029C348.134 763.053 346.025 757.513 346.01 755.396C345.787 743.821 345.799 732.028 346.027 720.435C346.215 710.85 345.653 696.367 331.494 698.728C328.943 699.136 326.549 700.224 324.565 701.879C320.055 705.581 312.382 713.522 308.073 717.756L273.098 752.625L250.65 774.883C247.193 778.361 242.956 782.032 240.128 786.029C237.655 789.525 236.84 794.039 237.703 798.215C239.413 806.489 258.441 822.751 265.153 829.544Z"/><path fill="#1E2B45" d="M506.915 392.919C578.674 386.75 641.814 439.999 647.843 511.77C653.871 583.541 600.499 646.577 528.716 652.465C457.132 658.337 394.309 605.144 388.297 533.571C382.284 461.999 435.354 399.071 506.915 392.919ZM405.919 514.05C415.669 513.938 448.535 509.77 435.653 529.507C433.077 533.454 411.016 531.809 405.651 532.094C409.305 586.722 455.299 633.521 510.283 636.415L510.325 635.76C510.454 633.454 510.429 622.751 510.099 620.918C508.137 610.02 513.311 595.812 525.482 605.338C529.323 608.344 527.474 630.628 527.829 635.872C583.821 629.806 623.999 588.159 630.446 532.522C621.377 532.449 586.039 537.207 599.673 517.294C602.701 512.872 624.455 514.576 630.39 514.552C628.314 482.844 614.89 458.919 591.491 437.349C576.356 423.397 548.65 410.399 528.003 410.277C527.958 414.713 527.885 419.179 527.984 423.613C528.14 430.649 529.91 445.012 518.708 444.43C516.441 444.314 514.317 443.289 512.815 441.587C507.683 435.822 512.041 412.886 510.105 409.791C461.323 411.585 417.831 451.706 408.111 498.64C406.969 504.157 405.961 508.381 405.919 514.05Z"/><path fill="#1E2B45" d="M518.694 459.602C523.358 460.287 527.293 462.023 527.577 467.263C528.484 484.013 527.449 501.743 527.809 518.485C533.878 524.414 559.363 547.77 560.978 553.833C561.479 555.715 561.264 557.756 560.265 559.439C558.759 561.975 556.706 563.168 553.96 563.995C552.613 563.955 549.924 563.669 548.974 563.015C543.808 559.072 511.298 527.797 511.03 524.191C509.705 506.383 510.868 489.947 510.49 472.287C510.334 464.971 511.73 461.15 518.694 459.602Z"/></svg>