<?xml version="1.0" encoding="utf-8" ?><svg xmlns="http://www.w3.org/2000/svg" xmlns:xlink="http://www.w3.org/1999/xlink" width="1024" height="1024" viewBox="0 0 1024 1024"><path fill="#1E2B45" d="M782.751 141.113C786.446 140.811 789.493 141.278 792.68 143.219C796.538 145.611 799.262 149.465 800.229 153.9C803.337 167.655 790.885 172.569 782.792 180.86C781.156 182.537 779.254 184.103 777.55 185.755C765.215 197.917 754.22 211.366 744.753 225.872C729.208 249.92 718.039 276.527 711.76 304.465C695.043 376.609 708.18 434.218 722.656 505.015C736.619 573.301 748.36 639.445 722.674 706.519C716.596 723.895 708.422 739.697 698.455 755.189C623.63 871.493 469.486 906.236 352.899 829.22C298.644 793.559 260.782 737.8 247.648 674.217C234.06 606.718 245.778 543.202 282.454 485.042C315.924 432.049 369.22 394.666 430.442 381.24C440.278 379.065 451.815 378.242 457.502 388.799C462.877 399.295 454.886 408.886 449.813 417.384C421.511 464.794 411.078 542.788 461.195 579.742C464.269 582.009 469.507 584.414 473.135 585.671C503.922 596.342 531.942 574.171 543.421 546.627C550.206 530.458 550.598 516.022 552.308 499.309C553.391 489.092 554.675 478.898 556.159 468.731C573.379 349.879 617.621 217.613 731.984 160.39C748.147 152.303 764.914 144.622 782.751 141.113ZM411.688 419.617C359.547 439.032 317.309 478.453 294.348 529.133C280.797 558.844 273.962 592.32 274.203 625.011C274.266 633.55 275.62 644.043 276.562 652.616C283.646 695.206 296.325 727.537 324.32 761.358C334.878 774.114 346.712 785.758 360.278 795.441C408.178 830.164 467.954 844.334 526.343 834.808C581.775 825.764 631.214 794.74 663.467 748.759C728.296 657.343 703.085 579.804 683.839 479.202C680.94 463.578 678.51 447.87 676.551 432.1C670.659 386.432 669.038 347.831 679 302.378C685.713 271.748 696.005 245.004 712.24 218.172C713.739 215.695 718.442 207.329 720.684 204.351C720.512 204.227 720.34 204.103 720.168 203.979C646.707 251.389 613.707 344.329 596.888 426.039C593.539 442.311 588.072 467.073 586.866 483.488C583.318 531.748 578.102 577.626 533.668 607.111C516.215 618.693 492.241 623.701 471.252 618.901C403.318 599.707 383.88 519.572 399.286 458.038C402.897 443.612 407.475 432.913 411.688 419.617Z"/></svg>