<?xml version="1.0" encoding="utf-8" ?><svg xmlns="http://www.w3.org/2000/svg" xmlns:xlink="http://www.w3.org/1999/xlink" width="1024" height="1024" viewBox="0 0 1024 1024"><path fill="#1E2B45" d="M505.638 220.196C526.858 218.433 548.936 225.731 564.277 240.65C575.079 251.156 582.396 266.479 589.756 279.592L612.736 321.034L671.43 426.043L777.958 615.305L811.956 676.079C816.395 684.056 822.943 694.629 826.787 702.595C831.134 711.529 833.458 721.311 833.595 731.246C833.791 750.737 826.131 769.487 812.342 783.264C802.984 792.707 788.037 800.46 774.989 802.846C764.382 804.787 750.075 804.128 739.067 804.069L695.843 804.001L519.875 803.978L332.731 804.004L283.484 804.047C258.224 804.106 241.455 805.702 219.957 789.283C204.809 777.755 194.885 760.662 192.384 741.792C190.598 728.748 192.52 715.466 197.931 703.464C201.129 696.27 210.666 680.746 214.867 673.23L251.624 607.548L356.036 421.025L423.735 300.415L441.389 268.823C444.83 262.686 450.218 252.514 454.498 247.274C467.782 231.008 485.273 222.748 505.638 220.196ZM514.414 783.114L679.899 783.312C698.957 783.476 718.016 783.489 737.074 783.351C748.336 783.293 761.603 783.867 772.662 781.851C803.274 776.272 821.882 739.305 807.734 711.543C796.141 688.794 782.422 666.353 769.98 643.879C737.112 584.412 703.827 525.177 670.129 466.178L587.142 317.821C582.04 308.805 577.005 299.751 572.037 290.66C566.141 279.906 558.52 264.385 550.057 256.244C539.466 246.046 525.192 240.579 510.498 241.093C509.934 241.115 509.799 241.142 509.304 241.208C482.161 243.438 472.636 255.793 460.341 277.699L444.007 307.094L376.962 426.729L267.283 622.289L231.11 686.617C226.826 694.364 220.377 704.927 216.739 712.651C213.303 720.051 211.885 728.227 212.63 736.352C214.768 761.297 233.487 779.244 257.751 782.874C266.697 784.213 279.485 783.522 288.807 783.503L345.082 783.275L446.408 783.153C468.859 783.194 492.014 783.555 514.414 783.114Z"/><path fill="#1E2B45" d="M505.321 380.205C514.778 379.491 523.103 380.178 531.772 384.305C542.016 389.146 549.891 397.891 553.636 408.585C555.264 413.313 556.036 418.294 555.917 423.293C555.83 429.494 554.99 436.16 554.473 442.407C550.552 489.775 546.088 537.219 541.159 584.495C539.68 598.682 532.001 606.485 518.84 610.77C510.289 612.219 504.481 611.22 497.05 606.943C483.628 599.218 483.537 587.269 482.309 573.79L480.248 552.427L473.975 481.501C472.803 468.739 471.565 455.983 470.262 443.233C469.576 436.018 468.584 428.451 468.795 421.227C469.434 399.337 484.936 384.669 505.321 380.205ZM514.776 590.307C516.325 589.435 519.435 587.629 519.794 585.804C521.321 578.037 521.755 568.439 522.421 560.582L526.61 513.505L531.83 455.268C532.776 444.59 533.724 434.169 534.279 423.45C534.863 412.155 528.238 404.223 517.262 401.393C515.035 400.817 512.737 400.565 510.438 400.644C501.56 402.179 490.66 408.593 490.316 418.744C489.974 428.798 491.481 440.326 492.387 450.476L497.321 504.269C499.773 530.387 502.314 556.636 504.634 582.778C505.176 588.888 509.339 590.309 514.776 590.307Z"/><path fill="#1E2B45" d="M506.186 636.249C526.623 632.742 546.028 646.484 549.505 666.926C552.982 687.368 539.213 706.753 518.767 710.202C498.36 713.643 479.022 699.908 475.552 679.506C472.081 659.105 485.79 639.748 506.186 636.249ZM515.749 689.364C524.667 687.583 530.49 678.955 528.806 670.018C527.122 661.081 518.558 655.165 509.603 656.752C503.723 657.794 498.857 661.915 496.86 667.543C494.863 673.17 496.044 679.437 499.952 683.952C503.86 688.467 509.893 690.534 515.749 689.364Z"/></svg>