<?xml version="1.0" encoding="utf-8" ?><svg xmlns="http://www.w3.org/2000/svg" xmlns:xlink="http://www.w3.org/1999/xlink" width="1024" height="1024" viewBox="0 0 1024 1024"><path fill="#1E2B45" d="M707.735 320.695C738.582 319.618 763.88 341.775 764.473 372.743C764.745 386.884 760.809 400.689 750.696 410.947C733.577 428.311 715.566 444.741 698.321 461.924L564.041 596.057C545.298 614.821 526.673 633.701 508.166 652.698C495.833 665.455 482.584 680.211 469.056 691.3C450.903 706.18 423.043 707.238 402.971 695.796C395.442 691.504 389.62 685.194 383.48 679.304L363.66 660.364L315.679 614.964L291.692 592.231C275.266 576.954 261.248 566.707 258.998 542.588C257.625 528.216 262.035 513.889 271.254 502.779C281.193 490.819 294.384 483.993 309.846 482.687C321.633 481.792 333.396 484.718 343.391 491.031C351.502 496.187 358.071 504.517 364.748 511.391L401.749 548.982C408.118 555.421 414.377 562.658 421.335 568.437C426.147 572.434 432.213 574.212 438.092 571.319C444.377 568.226 469.305 541.18 476.423 534.095L616.734 392.482L654.692 354.487C671.882 337.144 681.696 323.005 707.735 320.695ZM319.607 587.242L378.864 643.604C385.174 649.718 405.922 670.857 411.966 674.67C418.753 678.908 426.659 681.006 434.655 680.69C441.979 680.531 449.048 677.972 454.778 673.407C460.108 669.14 468.176 660.64 473.28 655.537C484.286 644.57 495.224 633.536 506.094 622.434L588.567 539.17L686.231 441.87C695.616 432.657 705.064 423.51 714.575 414.428C727.088 402.422 742.756 391.452 741.827 372.496C741.509 364.452 737.958 356.877 731.977 351.487C725.119 345.349 717.101 343.106 708.022 343.616C692.231 346.057 684.047 357.676 673.155 368.421L631.794 409.755C590 451.383 548.422 493.227 507.06 535.284C496.538 546.132 459.122 586.569 449.095 591.772C436.87 598.115 421.406 597.12 410.275 588.997C401.924 582.904 394.458 573.89 387.206 566.499L349.779 528.548C337.588 516.038 328.576 503.064 309 505.923C300.807 507.118 293.44 511.563 288.563 518.254C283.341 525.457 281.818 534.893 283.245 543.597C285.359 556.491 293.088 561.958 301.994 570.542C307.773 576.112 313.902 581.617 319.607 587.242Z"/></svg>