<?xml version="1.0" encoding="utf-8" ?><svg xmlns="http://www.w3.org/2000/svg" xmlns:xlink="http://www.w3.org/1999/xlink" width="1024" height="1024" viewBox="0 0 1024 1024"><path fill="#1E2B45" d="M632.508 290.169C633.922 290.078 635.338 290.02 636.755 289.996C646.362 289.898 656.45 293.664 663.204 300.544C676.962 314.562 674.215 333.6 674.097 351.723C693.093 356.673 708.776 362.374 725.407 373.25C790.67 415.93 810.472 497.976 766.417 563.711C744.969 595.502 711.821 617.523 674.201 624.971C673.675 637.222 675.755 648.13 670.547 659.417C666.34 668.382 658.694 675.271 649.34 678.524C635.043 683.595 622.553 678.825 610.729 670.578C603.649 665.64 596.335 660.783 589.173 655.958L513.067 604.673C501.577 596.837 477.794 579.536 466.611 574.3L465.753 573.902C465.482 581.107 465.897 591.505 465.904 599.082L465.96 658.125C465.992 670.522 465.966 682.931 466.003 695.336C466.037 706.643 463.184 717.518 454.788 725.662C443.484 736.778 427.636 736.029 412.816 735.546C393.994 734.933 373.365 739.301 359.041 724.039C347.19 711.412 348.983 697.509 349.039 681.722L349.235 648.691C349.403 622.115 348.814 594.613 349.369 568.23C314.072 561.625 286.215 532.015 281.062 496.566C277.689 474.045 283.527 451.115 297.258 432.949C311.61 414.285 333.088 402.443 356.531 400.268C363.911 399.599 376.969 399.988 384.855 399.971L429.954 399.895C441.444 399.91 454.694 400.876 465.386 396.784C477.688 392.076 491.445 381.755 502.607 374.188L580.111 321.029C590.033 314.197 599.834 307.188 609.829 300.459C617.432 295.34 623.373 291.458 632.508 290.169ZM465.986 419.25C465.959 462.876 465.516 507.236 465.965 550.823C482.8 557.131 492.186 565.034 506.776 574.774C519.332 583.051 531.824 591.424 544.251 599.894L603.499 639.848C612.039 645.57 620.528 652.212 629.597 656.948C636.333 660.465 645.802 658.367 650.071 652.069C652.243 648.88 652.42 644.828 652.552 641.072C652.644 620.661 652.479 600.2 652.527 579.786L652.508 415.942L652.509 353.014C652.515 348.261 652.375 342.968 652.574 338.276C653.152 324.629 652.612 310.113 634.247 311.581C626.992 313.465 609.393 327.017 602.042 332.028L535.512 377.473C518.577 389.085 500.994 402.163 483.087 412.193C477.92 415.087 471.537 417.182 465.986 419.25ZM444.318 547.514C445.105 506.397 444.492 462.765 444.38 421.485C431.211 421.701 418.04 421.789 404.869 421.749L377.36 421.779C364.668 421.767 354.096 421.191 341.915 425.794C316.804 435.284 301.53 458.633 301.608 485.167C301.697 501.971 308.52 518.038 320.549 529.771C327.714 536.881 335.762 541.465 345.286 544.74C360.093 548.862 379.507 547.695 395.132 547.499C411.404 547.295 428.154 547.924 444.318 547.514ZM702.981 530.329C714.775 517.902 720.472 503.667 720.288 486.465C719.998 459.476 701.085 434.08 674.41 427.757C673.792 435.549 673.944 444.917 673.938 452.833L673.947 490.572L673.958 526.344C673.963 532.553 673.735 541.209 674.212 547.247C686.038 545.082 694.64 538.815 702.981 530.329ZM674.012 374.369C674.012 384.994 673.891 395.948 674.045 406.546C694.893 409.708 713.583 421.15 725.88 438.28C739.053 456.282 744.524 478.785 741.086 500.826C737.321 523.123 724.886 543.026 706.497 556.186C695.382 564.102 687.248 566.745 674.218 569.537C673.753 579.351 673.811 592.992 674.157 602.863C681.139 601.51 687.924 599.288 694.353 596.25C725.823 581.461 749.708 558.719 761.799 525.584C771.962 498.154 770.593 467.78 758.003 441.376C742.785 408.867 709.195 381.836 674.012 374.369ZM380.069 713.414C385.948 715.07 421.782 713.844 430.215 713.865C432.874 713.712 435.401 712.526 437.696 711.375C439.886 710.276 443.595 705.921 443.8 703.475C444.87 690.737 444.41 676.723 444.393 663.975L444.296 569.134C441.639 569.148 438.866 569.106 436.225 569.282C414.41 569.873 392.397 569.116 370.681 569.575C370.318 579.731 370.63 590.93 370.671 601.214L370.587 647.472L370.486 679.42C370.412 692.434 367.461 705.922 380.069 713.414Z"/><path fill="#1E2B45" d="M169.558 482.599C171.458 482.587 173.358 482.606 175.257 482.657C175.337 485.023 175.343 487.392 175.275 489.758C175.169 494.308 178.469 492.215 176.842 495.383C176.646 495.511 174.007 495.18 174.953 497.004C176.479 499.943 171.632 499.552 170.649 498.856C170.471 498.49 170.519 497.211 170.498 496.753C171.181 494.566 170.604 495.372 168.761 495.271C167.085 495.172 165.405 495.181 163.73 495.299C162.923 495.362 162.454 495.449 161.636 495.414C160.687 494.219 168.414 484.004 169.558 482.599ZM167.162 492.612C167.775 492.652 170.401 492.989 170.808 492.805C171.033 492.427 171.081 486.728 170.274 485.891C169.711 486.898 166.318 492.111 166.638 492.735C166.849 492.772 166.932 492.698 167.162 492.612Z"/><path fill="#1E2B45" d="M149.865 482.671C163.677 481.224 162.833 488.88 152.882 495.682C154.081 495.679 159.701 495.488 159.834 495.805C161.29 499.272 157.65 498.91 156.377 498.803C154.628 498.698 148.224 498.77 147.968 498.523C144.513 495.186 160.856 489.217 153.55 485.245C151.894 484.345 149.236 486.737 148.784 486.446C146.047 484.683 148.234 483.608 149.865 482.671Z"/><path fill="#1E2B45" d="M203.055 759.258C206.855 758.766 214.947 757.613 214.517 764.014C214.311 767.078 209.882 770.451 207.642 772.353C208.406 772.348 217.326 771.429 214.223 775.069C213.99 775.342 209.88 775.213 208.875 775.213C207.633 775.206 203.057 775.682 202.46 775.039C201.575 774.084 203.102 771.915 204.031 771.266C206.129 769.669 209.719 767.167 210.503 764.506C211.608 760.944 205.847 760.688 204.338 762.204C202.725 763.825 201.722 760.671 203.055 759.258Z"/><path fill="#1E2B45" fill-opacity="0.98823529" d="M306.969 763.667C308.098 762.108 309.834 763.563 310.627 764.722C308.61 768.105 306.57 769.768 303.608 772.424C305.99 772.561 311.43 771.705 311.158 774.313C311.14 774.503 311.044 774.678 310.893 774.795C311.446 774.369 292.882 777.764 299.888 771.409C303.02 768.568 304.893 767.359 306.969 763.667Z"/><path fill="#1E2B45" d="M184.568 489.171C183.947 491.879 184.425 493.831 184.327 496.444C184.29 497.424 184.436 501.88 183.747 502.214C182.564 502.786 179.504 503.057 180.043 500.758C180.449 495.848 179.719 491.14 180.271 486.397C180.305 486.105 182.235 486.3 182.506 486.141C184.151 485.86 184.269 485.839 184.329 487.418C184.264 488.346 184.25 488.283 184.568 489.171Z"/><path fill="#1E2B45" d="M185.388 487.051C192.918 481.626 197.511 494.818 190.705 498.395C188.776 499.409 184.586 499.66 185.13 496.504L185.271 496.361C186.474 496.526 187.904 497.67 189.434 494.502C190.379 492.545 189.657 490.118 187.791 488.757C186.365 488.286 186.26 488.284 185.388 487.051Z"/><path fill="#1E2B45" d="M199.602 492.328C199.186 491.839 194.422 486.722 195.22 486.309C195.834 485.992 198.096 485.854 198.816 486.244C199.701 486.266 201.467 489.427 201.979 489.044C203.819 487.667 204.543 485.561 207.269 486.404C207.706 486.539 207.857 486.313 208.36 486.649C208.617 487.393 205.214 491.335 204.596 492.418C203.101 494.813 202.539 493.984 199.602 492.328Z"/><path fill="#1E2B45" fill-opacity="0.97647059" d="M218.482 775.04C218.482 773.567 218.33 763.928 218.665 763.212C219.158 762.867 222.111 762.736 222.886 763.489L223.367 763.942L223.469 764.663C222.131 768.103 222.367 768.616 222.626 772.559C222.641 773.737 222.655 773.702 222.305 774.814C220.421 775.217 220.345 775.352 218.482 775.04Z"/><path fill="#252D3E" fill-opacity="0.94901961" d="M326.35 763.692C331.123 769.291 327.041 778.113 318.406 774.117C318.826 773.838 319.27 773.621 319.716 773.381C324.86 772.004 323.593 771.136 323.56 765.692C324.786 765.791 324.908 766.501 325.942 767.146C326.925 765.665 326.201 765.345 326.35 763.692Z"/><path fill="#252D3E" fill-opacity="0.90196079" d="M199.602 492.328C202.539 493.984 203.101 494.813 204.596 492.418C206.925 495.317 210.719 500.029 204.254 498.479C204.313 498.493 202.675 495.409 202.542 495.202L202.037 494.39L201.493 493.55C200.803 494.902 199.72 498.534 198.272 498.683C192.281 499.296 197.638 494.128 199.602 492.328Z"/><path fill="#252D3E" fill-opacity="0.76862746" d="M240.729 767.037C241.399 765.861 242.201 764.569 243.537 764.077C244.133 764.001 244.678 763.917 245.247 763.696C245.285 763.681 245.994 763.491 246.062 763.586C246.641 764.401 244.546 766.557 244.07 767.248C243.919 767.466 243.048 768.127 242.779 768.345C241.316 768.875 241.599 769.276 240.405 770.067C239.621 771.477 238.922 772.322 238.084 773.603C237.293 774.813 234.218 775.688 233.447 774.724C233.444 774.429 237.532 769.472 238.035 768.881C239.968 768.966 240.782 769.305 240.729 767.037Z"/><path fill="#1E2B45" fill-opacity="0.95686275" d="M306.969 763.667C302.936 755.848 299.104 767.745 298.676 760.485C298.565 758.6 309.559 755.069 310.627 764.722C309.834 763.563 308.098 762.108 306.969 763.667Z"/><path fill="#1E2B45" d="M314.565 771.468C314.515 769.722 314.708 765.804 314.21 764.342C313.095 762.247 314.116 762.694 315.754 762.583C319.343 762.341 317.172 763.054 318.924 764.303L319.35 764.737C318.612 767.414 318.609 768.083 318.382 770.88C314.575 770.156 316.181 772.106 314.565 771.468Z"/><path fill="#1E2B45" fill-opacity="0.92941177" d="M227.846 770.962C229.03 771.449 229.36 770.44 230.701 769.897L231.827 769.45L231.66 770.44C231.162 773.926 227.922 775.528 224.497 775.343C223.61 775.294 223.666 774.689 222.305 774.814C222.655 773.702 222.641 773.737 222.626 772.559C224.964 773.104 226.676 773.619 227.846 770.962Z"/><path fill="#1E2B45" d="M333.457 768.208C325.908 761.913 332.38 760.186 335.607 765.222L336.488 766.622C334.874 767.998 336.955 768.189 333.457 768.208Z"/><path fill="#1E2B45" fill-opacity="0.97647059" d="M238.035 768.881C237.602 768.414 232.581 762.995 234.733 762.986C237.915 762.973 237.576 762.784 239.449 765.296L240.729 767.037C240.782 769.305 239.968 768.966 238.035 768.881Z"/><path fill="#252D3E" fill-opacity="0.81568629" d="M314.565 771.468C316.181 772.106 314.575 770.156 318.382 770.88C318.837 772.354 318.788 772.215 319.716 773.381C319.27 773.621 318.826 773.838 318.406 774.117C318.464 774.378 318.521 774.638 318.579 774.899C316.14 775.218 316.762 776.386 315.253 774.659C315.066 774.964 314.727 778.045 314.651 778.681C314.402 776.498 314.468 773.69 314.565 771.468Z"/><path fill="#252D3E" fill-opacity="0.3764706" d="M333.527 768.555C337.522 769.222 335.182 768.856 338.825 768.204C339.969 769.245 339.813 769.127 340.674 770.536C339.426 772.585 339.525 772.541 338.796 774.828C338.537 774.123 336.815 769.209 335.96 770.958C334.727 769.997 334.727 769.995 333.312 769.395C333.375 769.052 333.384 768.863 333.527 768.555Z"/><path fill="#252D3E" fill-opacity="0.96470588" d="M229.554 763.394L230.026 763.975C231.331 765.523 232.054 767.409 231.827 769.45L230.701 769.897C229.36 770.44 229.03 771.449 227.846 770.962C227.882 769.327 227.867 768.03 227.803 766.399C229.814 765.673 229.2 765.388 229.554 763.394Z"/><path fill="#252D3E" fill-opacity="0.87450981" d="M318.924 764.303C321.555 761.904 323.321 761.795 326.35 763.692C326.201 765.345 326.925 765.665 325.942 767.146C324.908 766.501 324.786 765.791 323.56 765.692C321.314 764.632 321.883 764.419 319.35 764.737L318.924 764.303Z"/><path fill="#1E2B45" fill-opacity="0.73725492" d="M333.312 769.395C334.727 769.995 334.727 769.997 335.96 770.958C335.325 772.029 333.705 775.182 332.027 774.956C331.287 774.856 329.809 775.357 329.459 774.698C329.465 774.67 332.685 770.509 333.312 769.395Z"/><path fill="#1E2B45" d="M218.482 775.04C220.345 775.352 220.421 775.217 222.305 774.814C222.356 775.553 222.383 778.728 221.928 778.892C216.952 780.676 218.457 775.906 218.482 775.04Z"/><path fill="#1E2B45" fill-opacity="0.4509804" d="M240.405 770.067C241.599 769.276 241.316 768.875 242.779 768.345C243.418 769.237 243.98 770.228 244.634 771.065C243.918 772.543 243.761 773.513 243.308 775.084C242.352 773.295 241.372 771.843 240.405 770.067Z"/><path fill="#252D3E" fill-opacity="0.87058824" d="M223.367 763.942C225.857 762.509 226.679 762.299 229.554 763.394C229.2 765.388 229.814 765.673 227.803 766.399C225.677 764.751 226.11 764.39 223.469 764.663L223.367 763.942Z"/><path fill="#252D3E" fill-opacity="0.82745099" d="M336.488 766.622C338.029 766.001 337.074 765.829 337.899 765.178C340.865 767.541 339.09 764.992 341.701 764.539L341.785 764.579C342.153 765.682 339.745 767.654 338.825 768.204C335.182 768.856 337.522 769.222 333.527 768.555L333.457 768.208C336.955 768.189 334.874 767.998 336.488 766.622Z"/><path fill="#252D3E" fill-opacity="0.97254902" d="M314.651 778.681C314.727 778.045 315.066 774.964 315.253 774.659C316.762 776.386 316.14 775.218 318.579 774.899C318.244 779.312 319.034 778.263 314.651 778.681Z"/><path fill="#1E2B45" fill-opacity="0.94117647" d="M340.674 770.536C343.609 774.844 344.618 775.561 338.796 774.828C339.525 772.541 339.426 772.585 340.674 770.536Z"/><path fill="#252D3E" fill-opacity="0.90980393" d="M243.308 775.084C243.761 773.513 243.918 772.543 244.634 771.065C247.007 774.258 248.204 775.614 243.308 775.084Z"/><path fill="#252D3E" fill-opacity="0.96078432" d="M185.388 487.051C186.26 488.284 186.365 488.286 187.791 488.757L184.568 489.171C184.25 488.283 184.264 488.346 184.329 487.418L184.677 487.476C185.129 487.552 185.182 487.464 185.388 487.051Z"/></svg>