<?xml version="1.0" encoding="utf-8" ?><svg xmlns="http://www.w3.org/2000/svg" xmlns:xlink="http://www.w3.org/1999/xlink" width="1024" height="1024" viewBox="0 0 1024 1024"><path fill="#1E2B45" d="M510.156 92.2286C536.522 91.3971 560.607 103.69 575.933 125.002C587.589 141.454 592.197 161.878 588.734 181.742C584.634 205.552 573.074 220.602 553.821 234.132C553.727 243.554 553.537 253.182 553.663 262.603C553.75 269.19 555.603 269.571 561.584 269.476C572.243 269.359 582.903 269.308 593.562 269.323C624.492 269.285 648.386 270.82 672.931 292.646C691.967 308.828 709.932 343.952 689.6 365.634C674.735 381.485 647.656 379.523 636.597 360.428C632.141 353.204 629.625 345.045 619.678 344.463C600.322 343.331 580.444 343.976 561.015 343.964C557.404 343.962 556.436 345.664 554.311 348.142L554.279 348.678C553.967 354.437 554.298 361.029 554.295 366.862C554.289 382.275 555.007 397.654 555.316 413.062C555.738 450.179 556.376 487.294 557.23 524.403L558.083 576.235C558.222 586.219 557.937 600.978 559.67 610.477C561.852 622.175 567.264 633.028 575.293 641.809C587.6 655.436 606.335 663.049 624.534 663.927C646.561 664.853 668.047 656.947 684.22 641.964C693.585 633.351 700.844 623.371 707.267 612.543C710.512 607.074 712.031 604.539 705.021 601.014C687.669 592.289 683.343 571.687 693.846 556.048C696.675 551.835 700.132 547.433 703.293 543.122L723.02 516.096L742.127 489.814C752.53 475.285 759.341 461.92 779.646 461.921C789.527 461.887 798.995 465.876 805.872 472.97C815.728 483.061 816.437 497.012 819.42 510.212C823.678 529.048 827.003 548.172 830.46 567.17C832.235 576.925 835.498 586.612 835.583 596.526C835.595 605.369 831.236 615.495 824.767 621.546C813.371 632.205 801.497 631.704 787.259 631.601C782.643 645.125 775.749 657.339 768.847 669.605C743.462 714.716 706.307 753.134 658.41 774.016C648.933 778.584 639.182 781.139 629.382 784.918C597.537 797.2 567.151 819.21 551.071 849.922C547.604 856.543 545.426 863.627 540.812 869.47C533.833 878.307 524.98 882.033 514.152 883.462C485.916 883.729 483.36 861.751 470.834 842.234C462.655 829.722 452.466 818.647 440.678 809.456C427.858 799.574 410.115 790.266 394.836 784.534C385.234 780.932 376.989 778.721 367.318 774.333C307.627 747.252 261.77 692.533 239.025 631.704C223.239 631.168 211.092 632.781 199.141 619.695C185.153 604.377 190.437 588.995 194.05 570.965L202.823 528.284C204.959 517.829 208.63 493.818 211.74 485.405C213.775 479.775 217.189 474.745 221.67 470.776C235.106 459.076 259.721 458.1 271.478 472.925C280.122 483.826 288.333 496.186 296.596 507.472C304.795 518.57 312.898 529.74 320.903 540.979C328.619 551.762 339.453 563.398 337.703 577.354C336.11 590.056 329.205 598.396 317.474 603.584C316.924 603.827 316.005 605.778 316.214 606.434C318.721 615.323 325.9 624.76 331.739 631.982C358.995 665.692 411.258 676.134 444.929 647.171C458.103 635.738 466.114 619.478 467.152 602.066C468.057 588.586 467.745 570.383 468.053 556.436L470.071 470.464C470.598 440.66 471.631 410.899 471.99 381.109C472.095 372.395 472.313 363.617 472.298 354.918C472.295 352.925 472.194 346.949 470.691 345.821C469.075 344.608 466.38 343.958 464.389 343.915C457.997 343.778 451.597 344.104 445.166 344.087C433.186 344.054 421.347 343.831 409.36 343.92C394.95 344.027 393.878 357.333 385.395 365.895C378.787 372.92 370.352 375.922 360.834 376.171C342.153 376.66 327.2 361.02 327.423 342.454C327.64 324.294 336.475 308.98 348.8 296.333C380.593 263.708 423.396 269.675 464.573 269.628C467.317 269.601 469.965 269.509 471.922 267.505C473.644 262.644 472.673 240.734 472.55 234.384C408.183 192.574 433.235 97.4718 510.156 92.2286ZM493.553 220.881C494.118 222.582 494.869 224.903 494.919 226.699C495.313 240.822 495.37 255.075 495.141 269.196C494.819 272.266 494.05 275.601 492.653 278.31C483.939 294.809 467.31 292.079 451.712 292.236C427.53 292.479 403.69 288.977 381.049 300.434C366.001 308.049 346.337 327.451 350.599 346.669C350.941 348.212 352.638 350.372 353.639 351.66L354.263 351.938C367.377 357.628 370.672 348.353 376.141 338.846C381.02 330.365 390.308 324.201 399.878 322.339C414.022 319.955 429.529 321.437 443.917 321.056C449.942 320.971 461.12 320.778 466.619 321.279C470.008 321.569 473.344 322.306 476.54 323.471C487.273 327.403 494.724 338.441 494.806 349.87C494.86 357.512 494.365 365.145 494.437 372.74C494.722 402.561 493.024 432.431 492.636 462.212C492.375 498.811 491.75 535.406 490.761 571.992C490.406 582.713 490.676 595.967 489.817 606.297C489.083 614.243 487.23 622.046 484.312 629.474C475.683 651.859 458.476 669.684 436.339 679.017C386.378 700.083 331.915 676.104 303.891 631.973C297.049 621.197 289.389 609.436 294.761 596.066C296.195 592.48 298.479 589.294 301.415 586.784C305.403 583.358 317.24 579.009 314.374 571.521C313.404 568.987 306.359 559.589 304.38 556.839C297.455 547.059 290.419 537.358 283.272 527.738C273.944 515.002 265.067 501.832 255.207 489.488C252.122 485.625 249.886 485.432 245.376 484.408C241.559 485.483 235.563 487.078 234.082 490.988C229.351 503.482 227.367 522.228 224.681 535.446L217.381 571.602C215.37 581.523 208.094 601.949 220.018 607.397C220.722 607.719 221.451 607.981 222.198 608.181C233.076 611.136 249.819 603.801 255.385 615.935C264.643 636.118 272.744 653.83 284.948 672.591C296.649 690.879 310.789 707.487 326.978 721.955C343.203 736.189 361.725 747.57 381.755 755.612C391.537 759.448 401.22 762.366 410.977 766.583C445.903 781.678 476.16 806.552 495.68 839.429C501.197 848.722 501.61 859.732 513.708 860.54C517.245 859.927 520.936 859.095 522.594 855.654C530.492 839.262 537.711 826.164 550.041 812.478C568.964 791.52 592.525 775.277 618.843 765.045C632.653 759.633 645.828 755.782 659.066 748.991C703.682 726.103 736.222 686.469 758.035 642.12C765.318 627.313 769.03 605.566 787.811 608.619C802.031 610.932 815.868 607.456 812.15 589.902C809.828 576.45 806.85 562.316 804.106 548.594L797.801 517.591C796.268 509.755 794.991 500.987 792.354 493.515C787.883 481.42 773.985 482.433 767.458 492.474C750.199 518.996 729.993 543.59 712.321 569.831C706.676 578.213 720.782 583.099 725.103 587.157C736.466 597.831 734.121 613.032 726.297 624.857C720.445 634.279 714.419 642.778 707.128 651.126C658.318 707.015 558.761 696.822 538.759 619.993C534.495 603.612 535.749 581.588 535.393 564.26C534.631 538.723 534.081 513.18 533.743 487.634C532.872 455.875 532.282 424.109 531.973 392.34C531.757 377.241 530.472 361.734 531.58 346.695C531.873 342.722 533.571 338.845 535.65 335.479C539.822 328.724 547.153 323.863 554.871 322.164C563.573 320.248 615.215 320.308 624.65 321.921C629.75 322.793 634.574 324.555 638.93 327.365C643.394 330.256 647.23 334.016 650.211 338.42C654.656 344.939 656.291 355.13 667.101 353.146C670.105 352.614 672.743 350.832 674.357 348.243C683.356 333.725 658.506 308.103 646.147 301.286C625.363 289.822 593.866 291.143 570.632 291.947C519.243 293.727 532.83 262.69 531.096 227.199C530.785 218.488 541.151 215.472 546.624 210.968C587.635 177.212 564.192 115.038 511.336 115.212C495.089 116.445 482.546 121.32 471.725 133.879C462.353 144.569 457.618 158.547 458.564 172.732C459.916 190.804 470.535 207.977 486.571 216.005C489.367 217.405 491.318 218.726 493.553 220.881Z"/></svg>