<?xml version="1.0" encoding="utf-8" ?><svg xmlns="http://www.w3.org/2000/svg" xmlns:xlink="http://www.w3.org/1999/xlink" width="1024" height="1024" viewBox="0 0 1024 1024"><path fill="#1E2B45" d="M592.234 306.753L603.804 306.69C628.817 306.626 649.608 312.619 667.772 330.856C679.519 342.717 687.602 357.71 691.055 374.043C693.074 383.765 692.498 397.42 692.464 407.624L692.458 447.698L692.48 607.373C692.478 610.333 692.557 619.269 691.033 621.25C683.747 630.723 672.643 640.612 664.187 649.388L605.368 709.967C596.875 718.699 571.055 748.894 558.647 751.62C551.305 753.233 528.906 752.423 519.859 752.436L430.125 752.405C423.331 752.463 416.289 752.582 409.513 752.17C366.612 749.563 332.629 712.831 332.238 669.914L332.272 472.275L332.242 413.602C332.247 402.729 331.704 385.918 333.523 375.702C336.465 359.176 343.89 343.933 355.863 332.03C368.331 319.634 381.711 312.554 398.886 308.607C408.585 306.379 420.729 306.876 430.827 306.865L465.987 306.857L592.234 306.753ZM540.937 725.798C541.047 705.353 539.363 673.267 544.419 654.858C550.852 635.771 564.925 618.618 583.001 609.55C589.486 606.277 596.432 604.011 603.599 602.828C611.826 601.501 622.691 601.869 631.243 601.897C642.823 601.89 654.403 601.978 665.981 602.16C666.717 588.953 666.2 571.495 666.174 558.011L666.037 475.879L666.071 416.779C666.056 391.945 668.982 372.531 650.999 352.538C629.803 328.974 603.804 333.433 574.923 333.479L509.428 333.527L446.98 333.493C435.788 333.482 422.118 333.112 411.129 333.659C393.658 336.137 380.547 342.519 369.663 356.979C364.095 364.489 360.6 373.33 359.528 382.617C358.859 388.467 359.019 397.583 359.019 403.613L359.045 434.897L359.072 536.883L359.063 627.202C359.013 637.58 359.025 647.959 359.1 658.337C359.155 664.503 359.042 672.051 359.929 678.172C363.206 700.782 382.67 721.641 405.596 724.821C422.935 727.227 441.814 725.329 459.331 725.911C486.416 725.566 513.993 726.32 540.937 725.798ZM567.993 709.518C574.463 703.872 579.606 698.367 585.561 692.193C605.027 671.953 627.067 648.43 647.146 628.932C642.225 628.402 617.247 628.425 612.082 628.737C598.76 630.085 587.249 636.195 578.818 646.587C567.975 659.952 567.326 673.854 567.745 690.217C567.907 696.506 567.654 703.189 567.993 709.518Z"/></svg>