<?xml version="1.0" encoding="utf-8" ?><svg xmlns="http://www.w3.org/2000/svg" xmlns:xlink="http://www.w3.org/1999/xlink" width="1024" height="1024" viewBox="0 0 1024 1024"><path fill="#1E2B45" d="M371.144 221.24C383.072 220.791 393.538 220.303 403.3 228.19C411.115 234.33 413.304 243.425 413.609 252.887C413.784 258.314 422.91 258.391 426.737 257.785C433.243 256.755 434.568 248.229 436.557 243.183C437.724 240.235 439.276 237.454 441.172 234.912C446.642 227.502 454.909 222.655 464.047 221.502C470.006 220.738 476.877 220.975 482.939 221.013C492.207 221.111 501.476 221.148 510.745 221.124C560.094 220.908 594.731 216.259 636.889 249.376C666.244 272.725 685.171 306.738 689.54 343.991C691.072 356.934 690.917 370.042 689.647 383.198C690.75 389.435 680.378 398.032 675.526 393.119C665.251 382.715 654.264 368.689 643.308 358.97C628.945 344.507 611.779 336.45 592.076 332.433C592.02 343.751 591.846 352.076 585.32 361.975C579.728 370.472 570.962 376.37 560.985 378.348C553.435 379.89 543.586 379.488 535.673 379.465L504.926 379.364C491.639 379.352 477.059 379.785 463.844 378.872C458.909 378.531 452.014 375.857 447.91 372.987C437.066 365.406 434.856 357.222 432.528 345.114C409.076 336.652 416.566 354.661 406.949 367.23C394.968 382.886 362.875 382.825 348.121 371.599C340.731 365.976 334.544 354.741 334.212 345.185C333.752 331.924 334.061 318.119 334.037 304.666L333.937 273.759C333.918 267.525 333.575 258.055 334.673 252.254C335.951 245.515 338.97 239.228 343.43 234.017C351.221 224.847 359.634 222.222 371.144 221.24ZM638.76 331.796C646.276 336.994 651.848 341.354 658.529 347.639C662.313 351.198 668.78 358.701 672.43 361.408C671.543 300.943 630.085 247.033 567.859 240.086C560.756 239.389 553.416 239.455 546.302 239.462C521.634 239.487 496.375 239.537 471.783 239.63C455.41 239.692 455.058 245.736 450.866 259.188C447.735 269.237 436.215 276.065 426.103 276.119C410.87 276.961 397.769 271.037 395.276 254.593C394.41 248.876 394.12 241.4 386.923 239.989C381.276 238.938 374.099 239.502 368.31 239.695C351.2 243.144 352.329 259.277 352.402 272.697L352.501 296.429L352.445 327.407C352.407 345.104 350.376 359.684 373.545 360.846C388.172 361.581 394.172 359.665 396.587 343.765C399.505 325.107 425.836 320.622 440.291 328.413C445.285 331.06 448.981 335.631 450.527 341.067C453.025 349.807 453.613 360.495 466.1 360.617C495.152 360.903 524.259 360.71 553.312 360.529C560.866 360.703 568.285 356.37 571.163 349.444C574.812 340.666 569.138 319.877 581.239 315.965C598.597 310.354 625.061 323.032 638.76 331.796Z"/><path fill="#1E2B45" d="M475.787 397.051C486.696 396.316 486.619 404.734 486.462 413.025C486.394 416.609 486.444 420.374 486.43 423.971L486.413 460C486.466 493.585 484.535 530.141 482.88 563.831L477.732 680.404L475.899 723.181C475.548 731.214 475.239 738.982 475.16 747.019C474.955 768.07 493.21 785.004 514.167 783.896C523.982 783.412 533.188 778.995 539.708 771.643C551.183 758.796 549.147 747.465 548.523 731.643L546.759 693.09L539.008 537.167C537.462 506.258 536.707 475.315 536.746 444.368C536.676 431.807 536.297 418.737 536.829 406.174C536.934 403.681 537.998 399.785 540.545 398.629C558.056 390.68 555.686 411.522 555.513 421.75C555.348 449.57 555.551 477.391 556.12 505.206C556.4 514.722 557.131 524.006 557.53 533.466L562.516 638.266L566.35 720.006C567.346 745.491 571.412 766.007 551.156 786.2C540.69 796.577 526.488 802.305 511.751 802.095C497.051 802.067 482.981 796.125 472.711 785.608C451.38 763.431 456.935 740.785 457.881 713.198C458.887 681.974 460.169 650.761 461.725 619.56L466.518 504.611C466.671 500.249 466.82 495.834 467.067 491.48C468.737 462.052 467.629 432.535 468.091 403.079C470.492 399.381 471.673 398.349 475.787 397.051Z"/></svg>