<?xml version="1.0" encoding="utf-8" ?><svg xmlns="http://www.w3.org/2000/svg" xmlns:xlink="http://www.w3.org/1999/xlink" width="1024" height="1024" viewBox="0 0 1024 1024"><path fill="#1E2B45" d="M410.834 151.217C420.945 150.47 432.583 151.066 442.719 151.612C481.424 153.694 517.389 163.653 552.023 181.114C616.956 214.382 666.156 271.909 688.949 341.217C696.01 362.457 700.455 384.479 702.185 406.795C704.485 435.947 703.49 471.136 703.494 500.865L703.265 656.32C703.259 658.182 703.176 666.997 703.498 668.294C705.336 675.701 708.211 681.092 708.038 689.051C707.88 696.32 706.201 702.718 702.867 709.231C695.669 723.297 683.653 729.172 669.25 733.727C667.985 741.95 666.976 748.533 664.929 756.752C653.343 803.281 601.746 846.827 551.689 832.417C535.147 827.568 521.216 816.331 512.975 801.19C508.959 793.861 506.402 785.823 505.447 777.52C504.434 768.819 504.803 758.349 504.779 749.4L504.693 705.28L504.745 646.299C504.76 632.465 503.649 608.586 507.46 595.917C512.624 578.88 524.417 564.632 540.189 556.375C561.441 545.041 579.433 546.451 601.496 553.105C602.83 532.119 601.537 506.445 601.874 485.083C601.838 468.418 602.047 451.267 601.288 434.685C597.968 362.202 551.168 297.164 481.862 273.911C466.661 268.811 453.203 266.517 437.124 265.166C383.543 260.934 332.384 283.133 296.301 322.353C267.994 353.705 251.198 393.756 248.674 435.921C248.302 441.239 248.111 447.187 248.22 452.498C248.916 486.275 247.154 520.838 248.588 554.531C272.932 545.628 297.626 544.819 319.555 560.487C333.481 570.437 343.739 587.523 346.332 604.398C347.681 613.181 347.235 624.117 347.238 633.126L347.266 675.028C347.44 697.671 347.47 720.316 347.355 742.96C347.236 767.138 349.628 789.583 333.44 809.935C305.651 844.873 256.87 840.29 224.276 814.721C197.536 793.743 185.736 767.651 181.25 734.681C172.788 732.064 165.651 729.821 158.723 723.897C147.27 714.104 142.122 698.568 144.243 683.771C145.095 677.827 146.486 672.873 146.492 666.767C146.524 633.966 146.406 601.165 146.485 568.365L146.568 474.586C146.551 452.071 146.043 425.901 148.146 403.729C153.826 344.879 177.794 289.285 216.686 244.753C256.566 199.612 310.007 168.618 368.993 156.419C384.051 153.346 395.625 152.237 410.834 151.217ZM170.735 647.625C174.607 646.324 178.444 644.922 182.242 643.421C188.123 614.07 200.055 586.598 224.423 567.691L224.315 480.338C224.304 466.921 224.195 453.442 224.487 440.033C225.635 387.219 248.798 335.414 286.367 298.48C324.914 260.579 377.142 239.864 431.188 241.042L431.805 241.052C441.813 241.638 449.797 242.037 459.674 243.779C503.091 251.544 542.718 273.459 572.374 306.107C601.823 339.147 618.711 376.805 623.434 420.896C625.149 436.911 625.042 453.133 625.147 469.221L625.384 532.637C625.402 543.991 625.121 555.984 625.515 567.265C649.617 584.698 663.665 613.35 668.472 642.211C668.546 642.656 668.615 643.102 668.679 643.548C672.261 644.715 675.831 645.919 679.388 647.158C680.546 637.238 680.002 619.076 679.998 608.334L679.971 538.621L679.984 464.176C679.979 448.873 680.456 430.115 679.386 415.029C675.959 361.159 655.998 309.657 622.225 267.548C581.653 216.211 518.411 182.762 453.735 176.126C442.537 174.977 429.673 173.879 418.423 174.226C282.701 179.64 179.158 282.435 170.837 417.45C169.978 431.392 170.182 445.132 170.22 459.085L170.376 519.831L170.218 596.408C170.176 612.839 170.146 629.314 170.58 645.749C170.596 646.355 170.672 647.021 170.735 647.625ZM669.519 668.762C669.14 681 668.993 696.478 669.526 708.625C673.887 706.481 675.281 705.811 678.447 702.301C685.816 691.705 686.938 681.543 675.966 671.771C674.223 670.218 671.649 669.661 669.519 668.762ZM173.547 705.418C175.508 707.315 177.691 709.783 180.572 710.214C180.714 710.235 181.07 710.112 181.093 709.961C181.739 705.734 181.996 669.929 180.97 669.042C167.13 676.163 162.681 693.613 173.547 705.418ZM565.423 572.137C557.436 573.743 552.936 575.408 546.192 580.087C524.773 594.949 528.258 618.857 528.142 642.073L528.109 704.04L528.214 746.979C528.214 756.473 527.405 769.977 529.374 779.014C536.698 812.647 574.457 818.784 601.283 803.361C619.265 794.169 634.857 775.067 640.991 755.811C647.342 735.032 645.359 711.833 645.547 690.238C645.683 674.685 646.284 656.404 644.123 641.241C638.974 605.11 604.521 567.106 565.423 572.137ZM273.729 572.132C251.41 576.203 234.269 586.951 221.256 605.809C214.149 616.314 209.183 628.117 206.643 640.542C203.157 657.737 205.069 679.683 204.79 697.423C204.562 711.939 203.83 729.154 206.484 743.271C211.487 769.878 232.506 798.422 258.81 807.215C273.724 811.93 286.564 814.1 301.222 806.489C311.167 801.245 318.611 792.253 321.907 781.504C325.219 770.571 324.007 751.949 323.976 739.9L323.916 685.617L323.963 640.341C324.003 624.975 325.784 607.538 318.076 593.724C308.99 577.443 291.867 570.241 273.729 572.132Z"/><path fill="#1E2B45" d="M830.677 565.607C838.85 565.254 844.29 571.479 849.693 576.917C865.616 592.797 878.193 611.71 886.679 632.536C903.451 674.276 903.09 720.946 885.674 762.423C877.478 781.676 865.064 799.942 850.339 814.684C845.53 819.499 841.973 823.97 835.55 826.553C829.458 827.1 823.788 824.762 821.938 818.307C820.228 812.343 824.975 806.908 829.044 803.019C838.962 793.54 847.491 782.653 854.538 770.85C885.753 719.563 881.924 654.301 844.924 607.017C840.981 602.001 836.719 597.244 832.165 592.776C826.045 586.836 816.529 580.635 822.874 570.614C824.87 567.462 827.147 566.436 830.677 565.607Z"/><path fill="#1E2B45" d="M789.277 606.587C796.741 606.177 800.304 609.968 805.403 614.826C817.85 626.839 827.361 641.559 833.199 657.844C843.647 687.028 841.933 719.186 828.441 747.093C822.8 758.719 807.975 780.315 795.866 784.457C789.649 785.06 784.756 782.296 782.559 776.228C779.235 767.047 789.493 761.494 794.732 755.484C799.28 750.348 803.2 744.69 806.412 738.628C823.011 706.426 818.848 667.435 795.826 639.462C792.027 634.851 787.89 631.381 783.663 627.22C775.886 619.564 778.966 609.424 789.277 606.587Z"/><path fill="#1E2B45" d="M747.959 643.584C760.721 643.172 769.462 656.485 774.601 666.713C782.438 682.193 783.741 700.17 778.217 716.618C774.335 727.979 765.541 741.407 754.454 746.777C745.219 748.921 737.883 742.34 740.17 732.836C741.62 726.807 747.727 722.811 751.081 717.966C760.531 704.317 759.553 684.4 749.883 671.102C745.291 664.8 737.556 659.459 740.263 650.822C741.462 647.22 744.634 645.031 747.959 643.584Z"/></svg>