<?xml version="1.0" encoding="utf-8" ?><svg xmlns="http://www.w3.org/2000/svg" xmlns:xlink="http://www.w3.org/1999/xlink" width="1024" height="1024" viewBox="0 0 1024 1024"><path fill="#1E2B45" d="M424.14 162.279L425.151 162.24C442.09 161.639 461.171 162.06 478.271 162.05L592.747 162.226L656.863 162.071C669.966 162.039 689.488 161.326 701.751 163.656C720.938 167.209 738.707 176.179 752.959 189.507C767.727 203.423 780.363 225.282 782.973 245.417C785.218 262.733 784.432 283.266 784.442 300.823L784.376 378.262C784.373 389.742 784.028 402.339 784.353 413.712C802.623 417.334 817.234 422.01 833.195 432.413C861.791 450.765 881.815 479.838 888.767 513.098C895.812 546.216 889.241 580.776 870.533 608.997C854.747 632.83 831.491 650.745 804.419 659.926C797.785 662.137 791.35 663.368 784.526 664.761C783.946 684.553 784.521 706.182 784.347 726.132C784.749 755.461 785.264 779.113 769.422 805.291C752.349 833.505 724.742 851.912 691.471 854.758C679.319 855.797 666.689 855.248 654.399 855.212L599.767 855.273L332.939 855.337L265.745 855.501C250.979 855.538 232.436 856.265 218.187 853.794C199.257 850.463 181.614 841.973 167.198 829.26C146.827 811.002 133.838 784.555 132.419 757.173C131.951 748.129 132.159 737.455 132.117 728.225L132.042 676.882L132.155 531.837L132.05 406.548C132.107 387.766 130.756 363.948 133.314 346.015C139.367 303.569 175.184 267.175 217.252 259.646C227.862 257.747 238.562 257.99 249.399 257.983L286.996 257.995C294.049 258.008 301.21 258.293 308.262 257.937C331.968 256.742 331.447 238.538 338.186 221.691C352.459 186.005 386.213 163.994 424.14 162.279ZM599.75 816.012L651.623 816.023C665.553 816.022 686.852 816.906 699.688 813.534C710.095 810.905 719.584 805.481 727.13 797.848C741.267 783.792 745.68 768.387 745.641 749.013L745.486 664.388C710.197 656.902 681.815 639.747 661.889 609.283C643.438 580.89 636.965 546.353 643.884 513.206C651.11 479.364 669.643 451.482 698.76 432.611C714.14 422.644 728.125 418.115 745.643 414.164C746.095 389.824 745.488 365.092 745.655 340.704C745.894 321.668 745.87 302.63 745.582 283.595C745.328 259.616 747.863 239.602 729.46 220.992C716.45 207.836 703.696 203.837 685.465 203.54C632.153 203.18 578.838 203.178 525.525 203.535L458.499 203.554C447.118 203.559 432.923 203.163 421.765 203.734C397.536 205.972 380.212 219.882 372.515 242.938C370.8 248.011 369.48 253.268 367.49 258.24C358.587 280.493 336.991 295.242 313.431 297.658C306.297 298.389 297.865 298.087 290.587 298.121L253.33 298.272C226.88 298.384 204.562 297.592 185.524 320.71C177.97 329.785 173.143 340.815 171.604 352.521C170.454 361.789 170.735 371.169 170.787 380.493C170.869 390.932 170.888 401.371 170.844 411.81L170.701 538.74L170.687 685.362L170.677 730.527C170.681 739.619 170.392 750.802 171.336 759.653C173.002 776.188 181.332 791.331 194.406 801.59C203.865 809.074 215.181 813.844 227.143 815.391C236.595 816.603 256.71 816.051 267.188 816.049L341.858 816.028L599.75 816.012ZM775.227 625.613C822.564 620.516 856.816 578.024 851.747 530.684C846.678 483.344 804.206 449.068 756.864 454.108C709.481 459.154 675.17 501.668 680.243 549.048C685.316 596.427 727.851 630.714 775.227 625.613Z"/><path fill="#1E2B45" d="M358.58 460.25L519.06 460.377L566.754 460.427C575.804 460.431 585.566 460.023 594.525 460.975C603.454 461.924 611.039 471.61 611.313 480.487C611.437 486.262 609.202 491.838 605.124 495.929C602.542 498.504 599.259 500.26 595.685 500.978C590.78 501.917 569.538 501.543 563.222 501.54L493.293 501.486L333.005 501.482L284.831 501.429C276.095 501.409 266.684 501.657 258.013 500.887C253.477 500.484 249.593 498.657 246.318 495.401C242.475 491.547 240.329 486.319 240.356 480.877C240.396 475.388 242.6 470.137 246.489 466.265C248.78 464.02 253.253 461.289 256.371 461.005C266.595 460.071 278.562 460.421 288.833 460.395L358.58 460.25Z"/><path fill="#1E2B45" d="M439.662 552.254L543.65 552.406L573.711 552.332C583.268 552.309 596.532 550.697 603.822 557.636C615.892 569.126 610.858 590.133 593.666 592.497C586.991 593.415 579.545 592.956 572.773 592.917L536.78 592.716L412.417 592.709L309.357 592.635L278.97 592.855C269.269 592.927 254.568 594.465 247.067 587.917C242.724 584.126 240.157 578.696 239.984 572.934C239.661 563.338 247.036 553.966 256.645 552.871C264.083 552.023 271.986 552.314 279.499 552.313L316.591 552.326L439.662 552.254Z"/><path fill="#1E2B45" d="M258.691 643.73C282.144 642.93 308.488 643.504 332.146 643.537L450.029 643.423L542.965 643.448C558.978 643.464 575.357 643.304 591.372 643.72C596.114 643.843 598.907 644.496 602.748 647.478C607.404 651.107 610.372 656.483 610.962 662.356C612.191 675.376 602.626 682.768 590.551 683.74C569.418 684.381 547.154 683.589 525.849 683.64L382.713 683.762L302.524 683.68C288.233 683.718 273.939 683.974 259.655 683.675C249.264 683.457 241.381 675.426 240.3 665.251C239.742 660.001 241.358 654.751 244.773 650.724C248.416 646.362 253.132 644.29 258.691 643.73Z"/><path fill="#1E2B45" d="M600.61 224.127C613.967 223.012 628.796 224.285 642.28 223.788C651.702 223.783 661.127 223.714 670.545 223.934C689.409 224.374 704.414 242.187 704.629 260.474C704.738 269.818 706.449 281.401 699.534 288.608C692.316 296.131 678.738 295.902 671.656 288.26C666.462 282.812 666.326 277.631 666.171 270.71L666.321 265.325C651.105 264.697 624.912 264.64 609.653 265.41C609.362 272.532 610.265 278.788 606.466 285.438C601.304 294.639 587.804 298.48 578.828 292.523C569.686 286.457 569.627 277.762 569.593 268.047C569.454 257.82 569.839 248.42 575.837 239.657C582.286 230.236 589.724 226.384 600.61 224.127Z"/><path fill="#1E2B45" d="M429.382 224.118C437.703 223.301 446.845 224 455.29 223.767C468.522 223.669 483.491 223.887 496.568 223.854C519.042 223.797 534.121 244.309 532.516 265.726C532.448 272.645 533.26 282.336 527.748 287.757C514.632 300.655 495.142 292.527 494.048 274.128L494.011 273.414L494.063 265.468C478.21 264.951 452.234 264.426 436.573 265.327C436.398 271.452 437.314 279.022 434.282 284.491C426.535 299.533 401.988 296.126 399.027 279.439C397.058 268.342 397.14 251.608 403.572 241.767C410.053 231.852 418.127 226.642 429.382 224.118Z"/><path fill="#1E2B45" d="M761.113 486.695C790.588 483.906 816.684 505.681 819.218 535.179C821.752 564.677 799.752 590.584 770.233 592.863C741.073 595.114 715.549 573.439 713.046 544.299C710.543 515.16 731.996 489.45 761.113 486.695ZM768.256 554.985C776.096 553.884 781.559 546.636 780.456 538.796C779.354 530.956 772.104 525.496 764.264 526.6C756.428 527.704 750.97 534.951 752.071 542.787C753.173 550.624 760.419 556.085 768.256 554.985Z"/></svg>