<?xml version="1.0" encoding="utf-8" ?><svg xmlns="http://www.w3.org/2000/svg" xmlns:xlink="http://www.w3.org/1999/xlink" width="1024" height="1024" viewBox="0 0 1024 1024"><path fill="#1E2B45" d="M402.244 148.729C451.718 146.374 500.904 157.496 544.552 180.908C607.351 214.748 654.065 272.232 674.343 340.625C691.206 397.912 688.003 459.239 665.264 514.457C660.145 527.15 654.607 537.858 648.105 549.847C656.303 557.751 664.241 566.082 672.381 574.075L812.386 713.293L850.326 750.992C857.213 757.85 870.655 770.358 875.275 777.805C880.651 786.516 883.541 796.533 883.631 806.769C883.601 830.673 869.609 843.845 853.962 859.209C840.634 872.649 828.034 878.365 809.225 878.348C781.297 878.323 766.492 857.761 748.154 839.406L704.842 795.675L604.777 695.961L573.113 664.299C567.852 659.044 560.165 650.869 554.671 646.464C517.217 669.424 474.677 682.787 430.822 685.371C358.72 689.664 287.826 665.4 233.475 617.828C180.259 570.21 148.211 503.349 144.423 432.039C140.994 360.913 165.849 291.319 213.558 238.456C261.911 184.501 329.875 152.182 402.244 148.729ZM709.759 742.598L768.118 801.009C778.718 811.677 789.297 822.92 800.823 832.55C803.332 834.646 808.771 835.74 811.86 835.756C824.334 835.821 841.315 819.102 840.231 806.401C839.908 802.619 838.762 797.739 836.142 794.682C830.257 788.201 823.355 781.634 817.123 775.492L780.656 739.316L663.437 622.298L637.895 596.731C633.736 592.581 629.518 588.514 625.325 584.37C620.264 579.368 615.76 575.42 612.483 568.942C607.873 559.826 606.573 549.62 608.877 539.629C611.119 530.528 617.075 521.727 620.919 513.203C626.221 501.443 631.31 488.599 634.732 476.143C658.086 393.547 632.043 304.875 567.733 248.027C523.097 208.495 464.89 187.777 405.314 190.215C344.005 193.206 287.443 218.229 245.976 263.895C205.17 309.077 183.806 368.515 186.509 429.336C189.356 489.986 216.516 546.931 261.856 587.313C305.119 626.301 370.68 648.09 428.397 643.949C460.015 641.681 487.584 634.217 516.004 620.057C527.066 614.544 537.242 606.031 548.508 604.442C561.11 602.664 573.945 607.785 582.956 616.512C596.873 629.991 610.786 643.892 624.418 657.665L678.803 711.698C689.12 721.935 699.227 732.661 709.759 742.598Z"/></svg>