<?xml version="1.0" encoding="utf-8" ?><svg xmlns="http://www.w3.org/2000/svg" xmlns:xlink="http://www.w3.org/1999/xlink" width="1024" height="1024" viewBox="0 0 1024 1024"><path fill="#1E2B45" d="M756.327 211.75C773.684 211.705 790.599 210.769 807.54 215.023C827.887 220.133 845.171 230.284 860.002 245.002C874.873 259.952 885.171 278.833 889.688 299.43C892.655 313.124 891.966 331.25 891.947 345.603L891.853 397.913L891.901 585.429L891.88 661.387C891.839 709.452 896.273 745.495 858.622 782.866C843.141 798.059 823.398 808.174 802.024 811.864C784.922 814.846 757.474 813.778 739.121 813.8L636.3 813.864L271.125 813.738C260.368 813.669 248.515 814.012 237.882 813.51C211.961 812.284 186.217 801.499 167.512 783.266C146.267 762.87 134.168 734.753 133.966 705.303L134.005 432.036L133.972 355.301C133.96 339.03 132.995 316.483 135.955 301.245C140.242 280.075 150.583 260.606 165.723 245.201C183.149 227.554 203.692 217.546 227.989 213.138C236.786 211.542 245.317 211.887 254.224 211.898L283.733 211.938L384.333 212.003L756.327 211.75ZM186.918 282.364C172.831 304.533 173.647 316.266 173.75 341.414L173.909 378.691L173.934 501.849L173.765 638.343L173.727 681.613C173.741 692.693 173.26 707.591 175.56 718.094C179.406 736.467 190.552 752.489 206.441 762.484C216.485 768.9 227.564 772.327 239.41 772.925C254.41 773.681 269.873 773.512 284.901 773.495L356.352 773.398L572.233 773.451L718.248 773.435L758.726 773.463C771.557 773.468 785.623 774.05 798.079 771.243C816.009 767.343 831.568 756.29 841.154 740.644C853.161 721.46 851.77 704.314 851.75 682.728L851.602 637.715L851.573 497.572C851.806 456.919 851.783 416.264 851.504 375.611L851.655 339.868C851.793 316.006 852.665 302.474 838.439 281.85C830.209 290.798 822.63 297.78 814.06 306.272L779.821 340.533L665.727 454.406C642.212 478.232 618.557 501.919 594.762 525.465L577.636 542.587C572.731 547.542 567.802 552.959 562.118 557.084C532.006 578.932 484.891 577.052 457.691 551.193C450.777 544.62 444.031 537.79 437.202 531.112L382.966 477.192L254.698 349.68L212.608 307.397C206.595 301.346 200.49 295.386 194.297 289.519C192.575 287.864 188.584 283.735 186.918 282.364ZM218.16 256.667C221.132 260.781 238.634 277.218 243.38 281.987L317.188 355.18L425.204 462.377L460.627 497.427C468.6 505.381 476.587 513.72 485.058 521.168C499.21 533.612 522.847 535.033 538.25 524.066C544.894 519.278 551.756 511.941 557.66 506.063C565.552 498.302 573.394 490.49 581.185 482.628L661.119 402.373L754.413 309.134C766.571 297.286 778.611 285.317 790.531 273.23C794.584 269.13 803.265 260.758 806.69 256.425C800.118 253.883 793.169 252.453 786.128 252.193C772.829 251.63 757.101 251.974 743.659 251.975L666.51 252.119L454.99 252.114L307.372 251.985L261.555 251.946C254.698 251.941 242.703 251.597 236.36 252.204C229.817 252.889 224.127 253.792 218.16 256.667Z"/></svg>