<?xml version="1.0" encoding="utf-8" ?><svg xmlns="http://www.w3.org/2000/svg" xmlns:xlink="http://www.w3.org/1999/xlink" width="1024" height="1024" viewBox="0 0 1024 1024"><path fill="#1E2B45" d="M649.711 114.74C733.681 111.798 784.912 196.865 743.724 269.948C749.243 276.415 757.895 284.795 764.044 291.106L808.56 335.987C817.341 344.775 828.03 354.99 835.736 364.557C855.714 389.359 868.122 426.377 869.464 458.202C870.542 483.875 865.893 509.466 855.855 533.121C852.09 541.93 846.079 553.278 841.658 561.88L824.83 594.86C821.647 600.975 818.419 607.087 815.222 613.193C810.345 622.506 806.996 633.086 794.31 633.01C789.466 632.962 784.842 630.981 781.465 627.508C777.702 623.645 774.721 615.989 776.226 610.883C778.832 602.042 784.667 591.943 788.829 583.641C795.116 571.037 801.318 558.392 807.437 545.707C821.23 517.294 831.131 497.618 830.778 464.517C830.462 434.832 821.688 407.544 802.571 384.449C792.138 371.846 779.424 360.571 768.15 348.822C751.737 331.717 735.115 314.921 718.169 298.347C708.65 305.28 701.291 309.537 690.16 313.371C663.629 322.63 634.499 320.908 609.243 308.59C583.467 295.812 566.68 273.999 557.51 247.135C550.787 247.417 536.08 249.64 529.001 250.654C500.819 254.688 464.921 256.735 438.493 266.301C414.401 275.061 393.319 290.532 377.737 310.887C363.578 329.095 347.77 367.855 337.252 390.149L267.381 538.947C309.512 567.238 324.929 600.471 318.791 650.925C325.648 654.102 338.689 658.487 346.374 661.331L400.244 681.258L567.875 743.755C576.294 746.863 585.92 750.236 593.973 754.067C603.902 733.474 619.852 716.488 640.536 706.426C662.579 695.863 687.505 692.917 711.403 698.049C717.147 699.333 723.221 701.57 728.819 703.512C733.555 692.675 740.093 679.95 746.297 669.829C750.308 663.287 760.452 661.138 767.654 663.968C772.451 665.872 776.266 669.648 778.218 674.426C779.539 677.551 779.913 680.996 779.293 684.333C777.327 694.817 763.819 713.005 759.543 724.629C777.22 746.237 788.713 765.694 789.47 794.85C790.339 822.812 779.847 849.934 760.388 870.032C741.627 889.168 716.046 900.088 689.249 900.4C634.098 901.151 589.852 861.574 584.778 806.528C584.29 801.232 584.357 795.826 584.305 790.506C574.381 786.115 557.709 780.977 546.561 776.747L441.241 737.381L346.017 701.922C334.115 697.523 315.094 689.627 303.709 686.239C283.065 717.625 250.518 734.209 212.895 732.694C185.837 731.823 160.312 719.925 142.244 699.764C123.443 679.001 113.781 651.549 115.435 623.587C116.728 598.159 128.324 571.216 147.599 554.361C172.762 532.356 197.935 525.767 230.497 527.568C233.305 522.536 236.458 515.36 238.978 510.061L253.039 480.611L301.34 377.701L315.902 346.546C332.89 309.973 345.065 285.17 376.895 258.708C413.451 228.316 451.693 221.966 497.391 216.442C515.912 214.203 534.474 210.818 553.05 208.823C553.941 203.791 554.325 198.971 555.411 193.982C559.036 177.85 566.544 162.847 577.283 150.276C596.351 127.953 620.81 117.028 649.711 114.74ZM225.971 694.172C261.456 689.681 286.579 657.269 282.078 621.786C277.577 586.302 245.158 561.189 209.675 565.701C174.208 570.211 149.108 602.613 153.607 638.082C158.106 673.551 190.501 698.66 225.971 694.172ZM691.756 862.076C727.287 859.451 753.932 828.469 751.209 792.945C748.487 757.421 717.432 730.861 681.916 733.681C646.537 736.49 620.102 767.399 622.814 802.785C625.526 838.172 656.362 864.691 691.756 862.076ZM661.426 280.889C696.792 277.688 722.886 246.455 719.748 211.084C716.61 175.713 685.423 149.563 650.047 152.638C614.581 155.722 588.351 187.004 591.497 222.464C594.643 257.924 625.972 284.099 661.426 280.889Z"/></svg>