<?xml version="1.0" encoding="utf-8" ?><svg xmlns="http://www.w3.org/2000/svg" xmlns:xlink="http://www.w3.org/1999/xlink" width="1024" height="1024" viewBox="0 0 1024 1024"><path fill="#1E2B45" d="M416.221 508.792C421.373 508.475 426.966 508.522 432.153 508.488L543.205 508.567C563.016 508.584 592.318 507.463 611.535 508.918C655.28 512.252 696.392 531.119 727.446 562.11C756.686 591.491 775.017 629.974 779.406 671.192C780.211 678.695 780.277 687.198 780.315 694.771L780.247 724.955C780.173 740.778 780.896 753.358 774.632 768.301C769.794 779.843 766.44 785.91 757.924 794.917C731.594 822.764 701.298 819.52 666.751 819.51L609.531 819.48L405.53 819.469L349.38 819.49C319.154 819.495 295.754 821.342 271.523 799.795C242.524 774.007 244.968 744.948 245.358 709.86C245.504 696.746 244.635 682.067 246.171 668.933C250.374 632.994 265.504 598.7 289.384 571.497C321.53 534.415 367.238 511.818 416.221 508.792ZM605.875 792.061C631.518 792.292 657.163 792.372 682.807 792.3C703.607 792.137 721.431 794.518 737.797 777.918C752.758 762.742 753.07 748.189 753.034 728.108L752.951 702.619C752.903 692.521 752.995 680.219 751.853 670.223C747.925 636.397 732.525 604.939 708.22 581.089C688.31 561.306 663.466 547.216 636.269 540.284C614.67 534.823 600.138 535.544 578.305 535.514L535.648 535.485L423.364 535.596C422.249 535.605 421.25 535.654 420.14 535.719C347.63 538.494 284.072 594.347 273.978 666.813C271.992 681.076 272.473 695.267 272.441 709.627C272.603 720.425 271.951 733.089 272.418 743.623C272.886 757.203 278.777 770.03 288.773 779.234C305.835 794.793 322.852 792.216 344.094 792.23L404.447 792.115L605.875 792.061Z"/><path fill="#1E2B45" d="M502.149 204.723C580.195 198.953 648.156 257.508 653.991 335.548C659.827 413.588 601.33 481.599 523.294 487.501C445.166 493.409 377.056 434.827 371.214 356.693C365.371 278.56 424.011 210.499 502.149 204.723ZM522.221 460.266C585.179 455.004 632.002 399.782 626.9 336.811C621.797 273.84 566.693 226.877 503.71 231.821C440.501 236.783 393.334 292.126 398.454 355.322C403.575 418.518 459.038 465.546 522.221 460.266Z"/><path fill="#FEFEFE" d="M888.403 878.941C892.464 876.145 933.308 877.391 941.009 877.478C962.968 877.727 985.315 876.802 1007.29 877.469C1012.87 877.638 1018.44 878.226 1024 877.417L1024 878.459L1024 1024L876.618 1024C877.316 1018.5 876.929 994.794 876.914 988.714L876.849 918.759C876.853 909.798 876.551 898.677 877.415 889.716C877.609 887.712 880.523 883.588 881.774 881.72C883.997 880.826 886.207 879.9 888.403 878.941Z"/><path fill="#E6E5E6" d="M888.403 878.941C892.464 876.145 933.308 877.391 941.009 877.478C962.968 877.727 985.315 876.802 1007.29 877.469C1012.87 877.638 1018.44 878.226 1024 877.417L1024 878.459C1017.53 879.274 1008.18 878.997 1001.43 878.993L965.027 878.946C941.266 878.944 911.842 880.238 888.403 878.941Z"/><defs><linearGradient id="gradient_0" gradientUnits="userSpaceOnUse" x1="149.40219" y1="893.51831" x2="-5.5748429" y2="1012.8087"><stop offset="0" stop-color="white" stop-opacity="0.90980393"/><stop offset="1" stop-color="white" stop-opacity="0.97254902"/></linearGradient></defs><path fill="url(#gradient_0)" d="M135.47 878.237C141.616 881.551 143.874 884.149 147.605 889.972C146.722 905.034 147.453 925.611 147.504 941.001L147.331 1024L0 1024L0 879.703C6.5578 879.867 14.4771 879.133 20.8973 879.598C24.1268 880.26 31.5711 879.786 35.2334 879.732L57.1846 879.55C81.3465 879.422 105.59 879.688 129.749 879.43C131.718 879.408 133.794 879.296 135.47 878.237Z"/><path fill="#E6E5E6" fill-opacity="0.97254902" d="M24.3153 877.024C44.9831 876.478 67.2464 877.348 87.9816 877.375C95.5866 877.385 130.135 876.446 135.47 878.237C133.794 879.296 131.718 879.408 129.749 879.43C105.59 879.688 81.3465 879.422 57.1846 879.55L35.2334 879.732C31.5711 879.786 24.1268 880.26 20.8973 879.598C22.2378 879.556 29.4269 879.487 30.2156 879.189L30.2254 879.132C28.9471 878.59 18.7328 879.37 18.2439 878.863L18.2832 878.775C18.4008 878.691 23.3268 877.381 23.8381 877.199L24.3153 877.024Z"/><path fill="#E6E5E6" d="M147.605 889.972C149 897.747 148.319 908.429 148.608 916.671C149.352 945.455 149.346 974.255 148.59 1003.04C148.422 1009.89 148.716 1017.29 148.425 1024L147.331 1024L147.504 941.001C147.453 925.611 146.722 905.034 147.605 889.972Z"/><path fill="#E6E5E6" fill-opacity="0.93333334" d="M0 879.098C1.31894 878.793 1.72165 878.218 2.99705 878.107C10.1024 877.489 17.1774 876.939 24.3153 877.024L23.8381 877.199C23.3268 877.381 18.4008 878.691 18.2832 878.775L18.2439 878.863C18.7328 879.37 28.9471 878.59 30.2254 879.132L30.2156 879.189C29.4269 879.487 22.2378 879.556 20.8973 879.598C14.4771 879.133 6.5578 879.867 0 879.703L0 879.098Z"/></svg>