<?xml version="1.0" encoding="utf-8" ?><svg xmlns="http://www.w3.org/2000/svg" xmlns:xlink="http://www.w3.org/1999/xlink" width="1024" height="1024" viewBox="0 0 1024 1024"><path fill="#1E2B45" d="M703.414 111.231L762.07 111.279C774.567 111.307 796.104 110.553 807.375 113.282C818.649 116.077 829.008 121.739 837.446 129.719C851.667 143.267 858.396 159.791 858.453 179.254C858.5 195.499 858.49 211.757 858.49 228L858.514 320.079L858.546 591.501L858.464 716.759L858.447 753.727C858.43 762.031 858.858 771.683 857.57 779.777C852.258 813.141 824.656 834.968 791.762 835.53C771.193 835.755 750.621 835.787 730.051 835.626C720.083 835.602 709.715 835.793 699.871 835.471C680.516 834.837 660.818 823.857 649.936 807.858C643.495 798.387 638.271 785.984 637.966 774.291C637.581 759.548 637.74 744.658 637.714 729.884L637.616 644.578L637.714 394.71L637.661 242.598L637.606 196.838C637.596 182.706 636.44 168.285 641.509 154.902C651.915 127.428 674.848 112.754 703.414 111.231ZM741.125 797.99L773.362 797.983C780.835 797.975 793.15 798.456 800.032 796.661C804.871 795.401 809.292 792.885 812.847 789.369C823.152 779.123 820.667 762.881 820.666 749.378L820.7 707.066L820.568 560.249L820.606 343.01C820.743 288.193 820.665 233.297 820.444 178.473C820.408 169.629 817.961 162.787 811.436 156.561C801.895 147.455 788.896 148.571 776.641 148.618L756.03 148.75C744.937 148.933 733.842 148.979 722.748 148.888C715.861 148.872 702.743 148.387 696.751 149.855C691.628 151.077 686.959 153.733 683.291 157.513C672.951 168.205 675.453 187.029 675.467 201.064L675.519 246.494L675.562 394.005L675.513 639.056L675.487 725.11C675.481 740.152 675.41 755.258 675.568 770.311C675.647 777.886 679.169 785.636 684.778 790.807C694.056 799.36 707.149 798.045 718.972 798.029L741.125 797.99Z"/><path fill="#1E2B45" d="M450.315 308.723L510.655 308.583C524.119 308.538 542.156 307.515 554.894 310.229C581.004 315.792 603.726 340.266 605.698 367.146C606.412 376.87 606.169 387.302 606.149 397.18L606.203 442.049L605.988 603.315L606.178 717.564L606.25 754.633C606.249 761.56 606.469 771.904 605.656 778.603C604.14 791.064 598.987 802.802 590.841 812.351C578.097 827.514 562.403 833.853 543.125 835.494L482.582 835.704C467.656 835.703 448.864 836.73 434.624 833.188C408.365 826.657 388.661 802.094 387.039 775.225C386.411 764.82 386.56 754.215 386.608 743.705L386.766 696.317L387 539.642L386.828 422.105L386.797 387.731C386.794 381.336 386.582 371.91 387.386 365.759C388.983 353.223 394.218 341.43 402.445 331.837C415.355 316.898 430.959 310.211 450.315 308.723ZM544.941 797.58C553.424 795.559 559.313 792.772 564.312 784.902C567.113 780.492 568.374 775.691 568.488 770.498C568.711 760.222 568.54 749.806 568.519 739.51L568.583 685.425L568.611 501.151L568.591 410.211C568.577 396.213 569.221 380.779 567.557 367.044C566.43 357.734 553.309 346.822 543.985 346.261C538.648 345.94 532.997 345.968 527.62 345.973L500.657 345.977L467.882 345.996C463.183 346.001 454.722 345.786 450.338 346.15C442.09 347.406 435.25 350.558 430.126 357.459C426.904 361.849 424.993 367.063 424.615 372.496C424.087 381.107 424.497 393.339 424.521 402.261L424.561 454.997L424.554 628.689L424.523 728.831L424.457 757.668C424.439 762.592 424.092 769.714 424.806 774.452C426.462 785.447 436.058 796.062 447.273 797.59C452.391 798.305 458.571 798.058 463.798 798.055L489.674 798.028L523.838 797.964C530.178 797.95 538.8 798.17 544.941 797.58Z"/><path fill="#1E2B45" d="M200.308 491.22C217.006 490.586 235.526 490.71 252.311 491.038C279.545 491.572 306.156 486.875 329.212 504.515C359.813 527.927 355.272 558.635 355.266 592.696L355.204 672.4L355.259 740.951C355.261 750.588 355.632 771.644 354.297 780.503C352.466 791.925 347.738 802.686 340.564 811.76C328.163 827.341 312.016 833.203 292.903 835.466L231.706 835.592C204.036 835.587 181.82 838.813 158.844 820.003C145.826 809.208 137.69 793.636 136.264 776.784C135.305 766.185 135.875 744.713 135.864 733.175L135.821 650.182L135.814 584.087C135.816 574.417 135.323 555.209 136.705 546.475C138.419 534.971 143.282 524.164 150.756 515.252C164.473 499.172 179.874 492.848 200.308 491.22ZM291.841 797.907C306.313 795.901 316.475 786.518 317.237 771.939C317.987 757.611 317.638 742.794 317.662 728.421L317.702 642.688L317.68 583.476C317.678 578.393 317.671 573.25 317.653 568.168C317.605 554.174 318.482 542.913 305.355 533.909C301.682 531.355 297.464 529.693 293.037 529.055C287.611 528.327 278.281 528.54 272.615 528.589L243.032 528.835C230.882 528.884 211.302 527.986 199.81 528.699C190.613 530.236 184.583 532.648 178.725 540.523C176.457 543.571 174.156 548.202 173.873 551.99C172.649 568.364 173.063 585.725 173.047 602.178L173.075 690.565L173.221 748.954C173.336 764.843 170.473 783.365 185.686 793.351C189.274 795.661 193.333 797.138 197.567 797.674C204.009 798.462 225.482 798.137 233.183 798.032C252.332 797.772 272.84 798.471 291.841 797.907Z"/></svg>