<?xml version="1.0" encoding="utf-8" ?><svg xmlns="http://www.w3.org/2000/svg" xmlns:xlink="http://www.w3.org/1999/xlink" width="1024" height="1024" viewBox="0 0 1024 1024"><path fill="#1E2B45" d="M529.755 245.751L641.541 245.833L676.846 245.867C683.655 245.877 692.725 245.69 699.379 246.375C726.075 249.312 750.534 262.661 767.447 283.524C778.439 296.99 785.873 313.001 789.067 330.088C791.226 342.053 790.744 364.859 790.801 377.642L790.931 454.415L790.938 532.895C790.946 546.841 791.56 567.918 790.108 581.267C785.789 620.992 755.555 656.856 716.967 667.691C700.624 672.279 683.393 671.166 666.488 671.239L621.422 671.362L476.26 671.293C466.026 671.307 455.791 671.268 445.557 671.176C426.487 671.042 415.784 669.967 400.21 682.591C388.418 693.49 374.862 707.948 363.57 719.52L323.127 760.6C311.197 772.946 303.363 779.029 285.152 779.223C272.021 779.241 259.411 774.089 250.05 764.881C231.309 746.389 234.173 726.538 234.161 702.492L234.226 638.116L234.137 412.009L234.197 368.495C234.184 359.369 233.823 346.501 234.679 337.586C237.122 313.94 247.699 291.877 264.602 275.163C277.821 261.772 294.607 252.459 312.966 248.333C326.699 245.207 339.096 245.837 353.068 245.844L390.397 245.825L529.755 245.751ZM585.986 652.446L654.916 652.39C670.355 652.412 693.923 653.788 708 650.383C723.059 646.582 736.8 638.757 747.752 627.744C759.452 615.804 767.364 600.674 770.496 584.253C772.687 573.36 772.022 559.91 772 548.573L771.947 504.064C771.978 451.762 771.974 399.419 772.073 347.116C772.115 325.184 761.712 303.423 746.057 288.16C733.941 276.357 718.489 268.566 701.795 265.841C689.365 263.712 668.03 264.447 654.769 264.475L583.822 264.493L424.103 264.521C395.593 264.51 367.048 264.346 338.537 264.465C336.72 264.472 333.645 264.505 331.932 264.687C306.415 267.41 288.03 275.274 271.531 295.435C253.033 318.04 252.949 339.291 252.847 366.359L252.661 405.888L252.706 537.009L252.673 667.288L252.701 706.247C252.715 713.567 252.5 724.14 253.295 731.131C254.288 739.987 258.772 748.082 265.752 753.623C274.867 760.824 291.514 763.407 301.035 756.043C307.397 751.123 313.785 743.582 319.526 737.753L368.344 688.328C381.451 675.177 392.227 661.396 410.648 655.565C423.492 651.499 436.643 652.446 449.924 652.465L484.252 652.466L585.986 652.446Z"/><path fill="#1E2B45" d="M528.568 313.236C541.728 313.255 554.537 315.63 566.067 322.001C603.784 342.839 622.28 390.75 600.489 429.683C590.388 447.73 574.505 459.258 554.293 463.782C547.892 465.17 541.684 465.181 535.333 466.969C520.088 471.242 510.206 483.372 505.681 498.147C503.94 504.122 504.921 513.717 497.132 515.414C491.543 516.632 485.526 512.943 485.442 507.003C485.261 494.147 492.063 478.665 499.926 468.996C513.563 452.227 527.667 447.678 548.357 445.815C580.585 439.761 596.977 410.505 589.491 379.314C585.812 363.378 575.837 349.61 561.839 341.15C524.844 318.578 480.905 339.842 469.176 380.103C467.701 385.165 467.466 394.52 464.947 398.663C459.716 406.533 447.942 402.293 448.278 393.197C449.46 361.233 470.956 331.195 500.562 319.208C510.346 315.246 518.206 313.921 528.568 313.236Z"/><path fill="#1E2B45" d="M488.277 538.44C507.104 535.239 524.978 547.853 528.271 566.664C531.564 585.475 519.038 603.412 500.244 606.797C481.318 610.207 463.229 597.574 459.913 578.632C456.596 559.689 469.318 541.663 488.277 538.44ZM496.766 588.184C505.326 586.768 511.118 578.681 509.703 570.121C508.288 561.56 500.202 555.767 491.641 557.182C483.079 558.596 477.286 566.684 478.701 575.245C480.116 583.807 488.204 589.6 496.766 588.184Z"/></svg>