<?xml version="1.0" encoding="utf-8" ?><svg xmlns="http://www.w3.org/2000/svg" xmlns:xlink="http://www.w3.org/1999/xlink" width="1024" height="1024" viewBox="0 0 1024 1024"><path fill="#1E2B45" d="M454.698 91.194C468.42 90.2752 472.427 100.32 472.483 111.9C472.557 127.257 472.064 142.981 472.628 158.286C485.884 162.701 499.134 166.765 512.191 171.789C548.377 185.668 582.144 205.176 612.242 229.592C676.126 280.356 717.054 354.562 725.906 435.678C729.514 469.475 725.894 499.353 717.432 531.914C711.504 560.992 704.454 559.292 678.593 551.31C618.689 532.822 554.226 540.423 497.361 565.441C490.167 568.606 480.275 572.872 472.554 573.604C472.266 581.044 472.512 590.106 472.504 597.642C472.437 610.755 472.456 623.868 472.563 636.98C553.821 638.576 634.971 630.278 714.224 612.269C735.631 607.338 756.906 601.851 778.027 595.812C785.251 593.723 792.453 591.56 799.633 589.325C807.012 586.997 814.821 584.023 822.563 583.125C844.597 580.572 864.415 599.45 865.335 621.144C866.248 642.666 863.237 668.377 857.543 689.28C854.309 701.054 850.192 712.568 845.228 723.724C819.584 781.318 772.039 826.313 713.12 848.747C697.347 855.258 665.965 861.725 649.25 861.857C629.255 862.015 608.152 862.065 588.09 862.118L459.972 862.114L388.994 862.127C362.529 862.161 338.946 863.639 312.956 857.575C271.907 848.095 234.191 827.678 203.81 798.491C158.413 755.488 133.35 693.901 133.063 631.98C133.076 609.483 132.827 586.784 133.432 564.306C133.952 545.02 130.255 525.536 145.255 510.549C155.554 500.259 165.459 496.245 179.976 496.199C206.3 496.116 232.504 496.315 258.819 496.365C272.64 496.448 288.114 495.495 301.699 497.112C308.155 497.88 316.502 502.616 321.438 506.879C342.871 525.391 334.491 546.328 339.422 569.004C343.069 585.382 351.456 600.324 363.537 611.967C386.934 634.419 410.449 637.439 440.91 636.903C441.56 622.262 441.021 603.601 441.004 588.75L441.009 499.235L441.222 240.696L440.99 150.83C440.985 136.123 440.876 121.256 441.101 106.541C441.224 98.4726 447.034 92.9721 454.698 91.194ZM284.547 815.12C283.585 811.466 282.614 807.826 281.879 804.116C274.259 765.612 296.816 729.737 335.027 719.812C352.809 715.299 371.652 717.96 387.488 727.221C404.058 737.009 416.089 752.948 420.961 771.565C425.916 791.154 422.097 811.67 411.818 828.903C411.603 829.262 411.384 829.619 411.161 829.974C461.827 830.554 512.636 829.732 563.31 830.064C570.546 830.112 577.943 830.152 585.175 830.019C574.222 809.231 568.849 790.757 576.198 767.438C582.056 749.224 594.981 734.123 612.073 725.524C629.461 716.702 649.672 715.266 668.132 721.542C684.236 726.958 694.651 737.017 704.678 750.09C715.361 767.115 718.709 787.736 713.962 807.267C713.417 809.57 712.846 811.867 712.25 814.158C782.397 786.165 832.078 709.878 833.86 635.008C833.981 629.902 834.565 617.332 828.809 614.908C821.263 614.664 787.022 626.218 777.243 629.028C763.96 632.755 750.596 636.187 737.16 639.318C663.502 657.011 588.181 666.873 512.451 668.739C498.596 669.137 484.425 668.562 470.527 668.588C445.284 668.637 419.891 670.844 395.22 664.48C372.512 658.499 352 646.121 336.124 628.819C317.91 609.127 307.228 583.639 305.96 556.844C305.405 543.917 308.155 527.318 290.219 527.626C253.269 528.262 215.788 526.922 178.884 527.729C161.495 529.164 164.664 543.605 164.858 556.888C164.941 563.691 164.961 570.494 164.917 577.297C164.856 600.943 163.573 632.428 166.311 655.365C172.394 707.897 199.134 755.849 240.628 788.636C253.151 798.438 269.901 808.802 284.547 815.12ZM641.377 749.665C619.299 751.411 602.82 770.729 604.576 792.807C606.332 814.884 625.658 831.354 647.735 829.587C669.796 827.822 686.253 808.511 684.498 786.449C682.743 764.387 663.44 747.921 641.377 749.665ZM346.35 749.981C324.492 753.1 309.257 773.287 312.252 795.162C315.247 817.037 335.348 832.386 357.24 829.515C379.307 826.621 394.807 806.323 391.788 784.272C388.768 762.221 368.383 746.836 346.35 749.981ZM472.731 208.293C471.607 222.95 472.471 243.75 472.517 258.745L472.54 350.846L472.308 465.884C472.294 484.385 471.623 508.336 472.653 526.317C479.189 518.162 489.086 502.03 493.763 492.72C500.369 479.472 505.696 467.882 510.729 453.922C531.025 397.623 530.02 336.62 511.091 279.999C503.696 258.17 493.459 237.41 480.644 218.254C479.004 215.778 475.095 209.696 472.731 208.293ZM687.404 521.211C690.454 512.535 692.247 500.828 693.634 491.684C700.883 443.895 690.316 394.595 669.741 351.235C645.077 299.259 604.366 257.376 555.184 227.933C540.487 219.135 526.536 211.763 510.282 206.054C513.656 212.503 517.934 218.161 521.227 224.388C526.186 233.765 531.348 244.997 535.457 254.818C561.41 318.478 564.363 389.194 543.807 454.796C538.267 472.157 531.326 489.04 523.052 505.278C519.913 511.489 514.541 520.099 512.014 525.889C547.223 514.734 575.529 508.545 612.844 509.677C625.002 510.046 632.509 509.924 644.876 511.849C658.526 513.246 674.179 517.486 687.404 521.211Z"/></svg>