<?xml version="1.0" encoding="utf-8" ?><svg xmlns="http://www.w3.org/2000/svg" xmlns:xlink="http://www.w3.org/1999/xlink" width="1024" height="1024" viewBox="0 0 1024 1024"><path fill="#1E2B45" d="M598.926 382.004C587.124 357.169 575.222 327.72 578.205 299.553C579.79 284.58 590.77 270.279 604.19 263.586C614.995 258.214 627.506 257.412 638.908 261.36C649.773 265.106 661.317 274.825 666.066 285.269C681.555 319.336 653.306 356.339 624.087 370.404C634.374 389.897 651.226 413.727 665.925 430.217C672.189 437.228 678.897 443.829 686.008 449.98C698.974 461.267 710.516 467.344 716.789 484.65C722.306 499.871 720.193 517.038 711.198 530.488C703.407 542.137 687.204 549.384 675.241 557.382C666.339 563.341 657.773 569.789 649.583 576.695C594.831 623.427 556.401 687.78 532.361 755.052C530.41 760.514 528.73 766.409 526.348 771.652C521.364 782.623 504.741 782.935 499.51 771.957C497.586 767.92 496.257 763.837 494.702 759.629C492.224 753.032 489.708 746.448 487.157 739.878C480.863 724.091 473.772 708.634 465.913 693.566C447.899 658.276 424.88 625.775 397.568 597.07C385.76 584.725 371.93 573.525 358.491 563.102C339.915 548.694 314.252 541.59 307.399 516.894C302.212 498.197 306.696 480.417 320.367 466.793C325.345 461.833 330.812 457.641 336.004 452.996C344.733 445.242 353.031 437.017 360.863 428.358C376.87 410.441 388.765 391.974 400.087 370.932C396.153 368.164 391.832 365.716 387.799 362.811C371.061 350.778 358.186 334.544 354.889 313.738C350.582 286.559 368.294 263.125 395.323 259.178C414.758 257.591 433.338 266.604 442.094 284.087C458.642 317.126 432.438 373.227 415.064 401.732C406.489 415.599 396.809 428.752 386.118 441.062C378.693 449.598 370.904 457.809 362.771 465.674C354.78 473.351 336.258 485.486 334.045 495.989C329.726 516.033 344.008 520.771 357.387 529.063C414.042 564.18 457.461 618.417 488.445 676.769C491.907 683.288 494.875 689.908 498.496 696.309C499.1 680.661 498.693 659.96 498.613 644.073L498.812 590.776C498.817 580.189 498.156 564.046 498.808 554.004C497.433 553.492 496.066 552.96 494.706 552.409C480.338 546.547 469.741 537.237 463.695 522.691C458.404 509.708 458.434 495.165 463.781 482.205C469.24 469.144 480.213 458.741 493.297 453.479C506.256 448.31 520.736 448.49 533.563 453.98C546.511 459.656 556.675 470.242 561.82 483.41C566.895 496.464 566.635 510.989 561.097 523.853C553.89 540.167 542.533 547.767 526.691 553.9C526.225 561.559 526.569 572.834 526.582 580.733L526.565 629.461L526.643 669.097C526.614 676.838 526.21 688.885 526.979 696.317C549.208 647.243 586.342 594.41 627.414 559.51C639.56 549.135 652.284 539.457 665.525 530.522C675.011 524.218 687.251 520.899 690.991 508.818C696.406 491.723 681.51 482.495 670.299 472.934C640.384 447.424 617.579 416.595 598.926 382.004ZM510.224 477.667C496.419 479.033 486.343 491.343 487.731 505.146C489.119 518.948 501.445 529.005 515.245 527.595C529.014 526.188 539.043 513.896 537.658 500.124C536.273 486.353 523.998 476.304 510.224 477.667ZM406.229 342.145C407.89 343.282 409.559 344.405 411.236 345.516C416.79 330.385 428.708 295.893 407.297 287.821C405.217 287.037 401.696 286.455 399.496 286.601C393.89 287.822 387.688 290.1 384.761 295.278C374.742 313.004 393.999 332.931 406.229 342.145ZM613.345 344.725C617.12 342.776 619.218 341.503 622.692 339.002C632.48 331.286 640.992 320.807 642.729 308.096C644.438 295.583 634.2 285.738 621.861 286.594C595.597 291.829 607.103 327.9 613.345 344.725Z"/><path fill="#3E4146" d="M854.795 194.427C854.025 195.651 853.423 196.86 852.515 198.003C852.031 198.613 849.393 199.097 850.592 197.66C851.164 196.975 853.165 194.205 853.274 193.483C853.317 193.173 853.211 192.862 852.988 192.643C851.473 191.129 851.671 192.175 850.214 191.99C847.432 191.551 849.17 194.149 848.01 196.503C845.837 200.913 839.068 198.254 839.585 198.091C839.127 199.015 839.796 202.085 838.997 202.919C837.343 203.371 837.886 194.888 837.105 193.748C836.939 193.505 837.392 187.92 837.976 187.739C839.026 187.412 844.51 187.427 845.685 187.778C846.257 188.417 848.41 191.424 848.618 191.57C850.776 191.739 850.369 191.947 851.605 190.871C851.729 190.263 850.81 188.694 850.535 187.899C854.363 188.784 853.232 190.72 854.771 191.453C855.341 191.166 856.26 189.258 856.894 188.724C857.847 187.92 859.425 187.401 858.504 189.27C857.755 190.79 856.763 192.061 855.979 193.456C856.952 194.931 861.638 200.074 857.985 198.978C856.672 198.584 855.41 195.533 854.795 194.427ZM844.711 197.639L845.232 196.819C848.578 191.727 845.117 190.822 841.593 189.209C838.08 193.222 838.455 198.096 844.711 197.639Z"/><path fill="#3E4146" d="M206.524 193.449C206.005 195.693 206.059 197.062 204.016 198.599C201.617 200.404 199.666 199.003 197.255 199.218C197.15 199.227 196.988 199.747 197.011 199.889C197.24 201.289 196.721 202.469 195.256 202.732C194.346 202.403 194.252 201.925 194.545 201.014C195.873 197.096 194.237 192.214 195.368 188.324C195.814 186.789 197.284 188.782 197.302 188.796C198.678 188.898 202.039 184.197 206.479 191.857C206.305 192.701 206.228 192.711 206.524 193.449ZM199.513 197.783C205.319 196.744 204.414 191.374 201.647 191.234C200.179 192.013 199.386 192.822 197.854 192.907C195.49 194.651 198.208 196.783 199.513 197.783Z"/><path fill="#3E4146" d="M188.788 183.208C192.101 184.829 190.068 192.625 191.298 193.295C192.025 193.17 192.138 191.976 192.924 191.996C193.333 192.798 193.145 194.281 192.879 195.113C192.523 196.231 190.104 195.327 190.572 196.993C190.85 197.982 190.846 200.057 189.166 199.313C188.577 199.052 188.156 196.886 187.984 196.284C186.602 194.842 181.264 196.482 180.545 195.801C178.906 194.247 187.641 184.504 188.788 183.208ZM186.086 191.616C188.711 191.116 188.407 189.603 188.28 186.884C187.171 188.337 185.393 189.873 186.086 191.616Z"/><path fill="#FDFDFD" fill-opacity="0.12156863" d="M188.28 186.884C188.407 189.603 188.711 191.116 186.086 191.616C185.393 189.873 187.171 188.337 188.28 186.884Z"/><path fill="#3E4146" d="M824.382 191.007C825.13 190.033 831.135 181.575 832.685 183.778C833.913 185.523 831.65 192.559 833.776 192.878C834.337 193.51 834.906 194.134 835.483 194.751C834.682 195.143 833.739 195.315 833.174 195.862C832.537 196.478 833.582 197.552 833.307 197.882C830.971 200.683 831.404 195.843 830.705 195.274C827.744 195.31 824.82 195.384 821.856 195.461C822.612 193.146 822.757 193.532 824.092 191.462L824.382 191.007ZM827.921 193.436L828.41 193.376C828.669 193.358 830.303 193.293 830.326 193.173C830.664 191.42 830.648 188.575 830.229 186.86C828.251 189.395 826.078 190.794 827.921 193.436Z"/><path fill="#3E4146" d="M821.254 196.898C821.104 197.149 820.28 198.678 820.001 198.749C818.723 199.078 810.827 199.334 810.338 198.579C810.104 192.404 816.193 192.409 818.286 187.988C818.44 187.664 816.69 186.853 816.914 186.074C817.018 185.711 816.785 185.58 816.721 185.457C814.562 185.069 811.488 186.823 811.317 186.747C808.124 185.107 815.183 182.308 817.444 183.25C821.624 184.99 821.608 186.342 819.923 191.021C819.062 191.204 819.028 191.117 818.51 191.739C817.173 192.569 816.167 193.187 814.911 194.123C809.401 198.77 817.789 194.61 821.254 196.898Z"/><path fill="#070609" fill-opacity="0.97254902" d="M830.916 827.3C831.026 827.368 831.646 827.736 831.684 827.806C832.586 829.834 831.952 833.049 832.188 835.263C832.182 836.17 831.773 837.597 833.247 837.412C834.02 837.249 835.541 837.415 834.778 838.585C834.246 839.187 832.603 838.417 832.229 838.833C831.686 839.479 832.648 842.126 832.179 842.403C831.296 842.926 831.03 841.305 831.003 840.995L830.829 838.965C830.407 838.774 822.864 838.995 821.985 839.005C824.944 833.9 826.642 831.587 830.916 827.3ZM825.147 837.433C826.56 837.437 829.544 837.548 830.825 837.436C830.779 835.596 830.932 830.19 830.797 828.889C829.803 830.285 823.974 836.434 825.147 837.433Z"/><path fill="#3E4146" d="M171.433 183.518C173.552 183.487 175.914 183.144 177.426 185.03C181.206 189.745 174.208 192.778 171.221 195.652L169.912 196.92C171.493 196.956 178.209 196.766 178.771 197.366C181.001 199.747 174.201 198.965 174.422 198.967C173.659 198.981 168.286 199.257 168.183 198.834C166.825 193.264 175.2 191.203 176.295 187.511C176.792 185.836 172.002 184.268 170.951 186.239C169.679 188.624 165.755 186.619 171.433 183.518Z"/><path fill="#070609" fill-opacity="0.94509804" d="M837.971 830.273C838.079 830.357 838.752 830.805 838.761 831.061C838.876 833.798 840.488 831.12 842.501 831.079C848.455 830.966 849.363 837.505 846.11 841.28C844.676 842.945 839.598 842.591 840.098 840.542C841.315 840.246 844.076 844.748 846.609 837.501C846.17 832.83 844.354 830.608 840.021 833.534C838.613 834.484 839.483 843.26 838.529 845.52L838.024 845.846L838.319 845.939L838.205 846.117L837.928 846.144L837.871 846.191C837.353 845.577 837.512 832.176 837.971 830.273Z"/><path fill="#070609" fill-opacity="0.97254902" d="M813.732 827.511C816.317 827.276 820.975 827.699 820.324 830.99C819.644 834.423 814.147 837.387 811.606 840.82C812.41 840.819 819.338 840.704 819.331 840.697C821.573 842.938 815.95 842.103 815.197 842.079C814.645 842.113 810.105 842.98 810.21 841.629C810.561 837.117 817.144 834.408 818.742 831.359C820.092 828.783 813.818 827.189 812.25 829.512C811.955 829.936 810.86 830.051 810.347 829.911L810.287 829.67C810.482 829.09 811.203 828.675 811.727 828.43L813.732 827.511Z"/><path fill="#3E4146" fill-opacity="0.98431373" d="M208.392 187.898C212.532 188.45 210.952 190.464 212.48 191.525C213.425 191.296 214.097 188.278 215.741 187.88C218.697 187.163 214.456 192.973 213.901 193.846L214.28 194.384C218.707 200.418 216.392 201.244 212.64 194.275C211.165 197.147 211.059 199.074 207.955 199.038C209.537 194.89 212.132 194.866 210.006 191.289L209.641 190.57C209.455 189.948 209.433 189.868 209.125 189.277L208.392 187.898Z"/><path fill="#070609" fill-opacity="0.015686275" d="M198.5 840.5C197.967 841.811 196.934 845.738 197.404 846.733L197.351 846.87C196.961 847.058 195.053 847.404 195.207 846.384C195.854 842.091 194.162 835.259 196.102 831.587C196.646 830.558 197.748 832.746 197.853 832.963L198.028 833.401C196.035 834.285 197.07 834.434 196.915 835.73C196.435 839.745 198.016 838.053 198.5 840.5Z"/><path fill="#FDFDFD" fill-opacity="0.30588236" d="M818.51 191.739C819.028 191.117 819.062 191.204 819.923 191.021C821.954 191.727 822.03 190.638 824.382 191.007L824.092 191.462C822.757 193.532 822.612 193.146 821.856 195.461C821.656 195.94 821.455 196.419 821.254 196.898C817.789 194.61 809.401 198.77 814.911 194.123C817.375 195.171 820.081 195.617 818.51 191.739Z"/><path fill="#FDFDFD" fill-opacity="0.34901962" d="M206.479 191.857C207.461 189.697 206.851 190.154 208.392 187.898L209.125 189.277C209.433 189.868 209.455 189.948 209.641 190.57C208.955 191.848 208.413 193.084 208.168 194.515C208.121 194.791 208.017 195.336 207.728 195.472C207.548 195.556 207.164 195.435 207.063 195.418C206.896 194.751 206.711 194.111 206.524 193.449C206.228 192.711 206.305 192.701 206.479 191.857Z"/><path fill="#FDFDFD" fill-opacity="0.047058824" d="M209.641 190.57L210.006 191.289C212.132 194.866 209.537 194.89 207.955 199.038C207.684 197.611 207.226 196.883 207.063 195.418C207.164 195.435 207.548 195.556 207.728 195.472C208.017 195.336 208.121 194.791 208.168 194.515C208.413 193.084 208.955 191.848 209.641 190.57Z"/><path fill="#FDFDFD" fill-opacity="0.96862745" d="M845.685 187.778C847.697 187.933 848.544 188.012 850.535 187.899C850.81 188.694 851.729 190.263 851.605 190.871C850.369 191.947 850.776 191.739 848.618 191.57C848.41 191.424 846.257 188.417 845.685 187.778Z"/><path fill="#040105" fill-opacity="0.87058824" d="M171.24 836.722L171.653 837.494C170.807 838.648 170.421 839.299 169.724 840.535C169.683 840.777 169.604 840.956 169.679 841.158C169.833 841.191 169.992 841.089 170.164 841.017C172.099 841.011 173.648 840.977 175.594 840.866C176.335 840.891 176.345 840.93 177.016 840.721C177.41 841.146 177.566 841.107 177.517 841.458C176.941 841.705 169.803 842.29 169.05 841.827C167.576 840.921 170.714 837.295 171.24 836.722Z"/><path fill="#FDFDFD" fill-opacity="0.054901961" d="M833.776 192.878C833.506 188.913 835.94 189.262 836.567 191.006C836.111 192.745 835.913 192.187 835.483 194.751C834.906 194.134 834.337 193.51 833.776 192.878Z"/><path fill="#070609" fill-opacity="0.078431375" d="M203.09 841.235C204.587 838.451 204.999 838.452 204.52 834.731C204.429 834.031 203.633 833.534 203.453 832.783L203.52 832.571C205.241 831.748 207.405 839.507 203.437 841.528L203.09 841.235Z"/><path fill="#070609" fill-opacity="0.88627452" d="M853.609 837.385C854.102 835.344 850.5 831.826 850.81 831.104C852.479 830.866 854.224 835.451 854.818 836.573C854.537 837.254 854.393 837.474 854.011 838.163L853.609 837.385Z"/><path fill="#070609" fill-opacity="0.72941178" d="M177.029 832.397L177.957 832.801C176.35 834.378 173.598 836.328 171.653 837.494L171.24 836.722C173.162 835.192 175.063 834.028 177.029 832.397Z"/><path fill="#070609" fill-opacity="0.56862748" d="M173.135 827.334C176.473 826.64 179.795 830.099 177.957 832.801L177.029 832.397C177.288 831.844 177.538 831.287 177.779 830.726C176.865 829.353 176.772 829.134 175.478 828.158L173.14 827.826L173.135 827.334Z"/><path fill="#FDFDFD" fill-opacity="0.050980393" d="M818.51 191.739C820.081 195.617 817.375 195.171 814.911 194.123C816.167 193.187 817.173 192.569 818.51 191.739Z"/><path fill="#070609" fill-opacity="0.13725491" d="M189.535 837.533C189.182 836.363 188.282 830.658 189.654 829.807L189.993 829.903C190.446 830.885 189.74 835.319 189.894 837.553L189.535 837.533Z"/><path fill="#070609" fill-opacity="0.51764709" d="M183.961 833.763C185.154 832.194 186.563 829.84 188.156 828.702C188.336 828.631 188.495 828.928 188.468 829.03C188.274 829.751 187.763 830.31 187.265 830.844C186.318 831.857 185.572 833.038 184.675 834.09L183.961 833.763Z"/><path fill="#040105" fill-opacity="0.82745099" d="M181.569 837.514C183.03 837.941 183.25 837.567 184.732 837.645C186.456 837.927 187.817 837.956 189.536 838.281C188.238 838.427 181.355 839.47 181.569 837.514Z"/><path fill="#070609" fill-opacity="0.11372549" d="M198.5 840.5C200.524 841.001 201.085 841.26 203.09 841.235L203.437 841.528C201.268 842.535 199.821 842.579 198.5 840.5Z"/><path fill="#070609" fill-opacity="0.89019608" d="M854.818 836.573C855.645 834.092 856.194 832.891 858.214 831.264C857.483 833.857 856.737 834.773 854.818 836.573Z"/><path fill="#040105" fill-opacity="0.74509805" d="M173.14 827.826C172.739 828.042 168.834 830.742 168.901 829.406C169.64 828.215 171.899 827.655 173.135 827.334L173.14 827.826Z"/><path fill="#070609" fill-opacity="0.87058824" d="M855.512 836.96C856.811 838.312 857.752 839.997 858.612 841.66C856.496 840.632 855.898 839.218 855.512 836.96Z"/><path fill="#070609" fill-opacity="0.72941178" d="M183.961 833.763L184.675 834.09C183.31 836.206 183.482 835.985 181.569 837.514C182.508 835.709 182.755 835.417 183.961 833.763Z"/><path fill="#070609" fill-opacity="0.50588238" d="M851.655 839.838L852.581 840.149C851.726 841.844 848.628 843.641 851.655 839.838Z"/><path fill="#040105" fill-opacity="0.043137256" d="M200.312 831.743C201.128 831.755 202.925 831.436 203.097 832.116C202.702 832.778 201.121 832.567 200.513 832.557L200.312 831.743Z"/><path fill="#070609" fill-opacity="0.72941178" d="M851.655 839.838C852.443 838.674 852.629 838.361 853.609 837.385L854.011 838.163C853.283 839.041 853.189 839.178 852.581 840.149L851.655 839.838Z"/><path fill="#070609" fill-opacity="0.37254903" d="M184.732 837.645C186.42 837.569 187.834 837.503 189.535 837.533L189.894 837.553C189.778 837.797 189.681 838.053 189.536 838.281C187.817 837.956 186.456 837.927 184.732 837.645Z"/><path fill="#070609" fill-opacity="0.19215687" d="M200.312 831.743L200.513 832.557L198.028 833.401L197.853 832.963C198.816 832.37 199.267 832.187 200.312 831.743Z"/><path fill="#070609" fill-opacity="0.36470589" d="M189.485 839.569C189.552 839.57 189.619 839.572 189.685 839.574C189.802 839.739 189.738 839.614 189.846 840.029C189.552 840.05 189.641 840.074 189.521 840.014C189.458 839.845 189.485 839.969 189.485 839.569Z"/><path fill="#040105" fill-opacity="0.3019608" d="M191.461 837.926C191.911 837.96 191.76 837.885 192.039 838.177C191.972 838.189 191.285 838.28 191.233 838.286C191.261 838.115 191.219 838.228 191.461 837.926Z"/></svg>