<?xml version="1.0" encoding="utf-8" ?><svg xmlns="http://www.w3.org/2000/svg" xmlns:xlink="http://www.w3.org/1999/xlink" width="1024" height="1024" viewBox="0 0 1024 1024"><path fill="#1E2B45" d="M384.678 129.72C405.343 129.102 426.448 130.096 447.31 129.524C487.452 128.425 509.195 173.829 484.837 204.872C474.549 217.984 459.135 220.065 443.306 221.537C445.769 229.21 449.089 238.216 451.777 245.939C490.588 238.478 527.56 240.212 566.315 245.902C569.421 237.779 571.421 229.125 575.076 220.95C559.728 220.196 549.954 221.523 537.046 211.164C517.411 195.01 513.738 166.462 529.78 146.568C546.956 125.268 569.748 129.724 594.252 129.584C606.393 129.514 628.421 128.319 639.422 130.595C646.365 132.06 652.83 135.244 658.225 139.854C686.61 164.096 675.019 214.995 636.591 220.301C628.907 221.362 619.762 220.486 611.737 220.909C608.579 228.72 602.862 244.884 600.565 252.83C654.801 270.085 702.768 295.615 743.702 335.811C752.631 344.579 763.45 355.744 771.347 365.422C821.039 426.839 848.095 503.48 847.973 582.483C848.388 666.808 812.97 756.816 753.429 816.806C707.67 864.611 648.861 897.9 584.322 912.529C496.984 931.9 401.758 917.653 326.002 869.31C249.566 821.514 195.514 745.037 175.968 657.032C156.353 567.432 173.054 473.709 222.412 396.4C259.896 338.712 313.871 293.638 377.319 267.041C387.493 262.696 406.18 255.192 417.054 252.833C414.228 242.553 409.59 230.835 406.11 220.485C387.998 220.539 371.356 222.232 356.829 209.553C347.485 201.305 341.828 189.662 341.118 177.219C340.459 165.114 344.617 153.24 352.684 144.19C361.592 134.31 371.687 130.364 384.678 129.72ZM526.771 886.222C695.197 875.78 823.298 730.83 812.954 562.399C802.61 393.968 657.735 265.782 489.297 276.028C320.722 286.282 192.408 431.303 202.76 599.873C213.112 768.442 358.208 896.672 526.771 886.222ZM552.883 173.724C554.155 180.686 555.837 184.889 563.955 185.664C569.748 186.217 575.724 185.977 581.555 185.985L613.75 186.007C619.081 186.064 624.527 186.09 629.854 186.042C644.402 185.912 645.152 164.919 630.911 163.881C624.576 163.419 618.152 163.656 611.761 163.68L579.743 163.755C569.167 163.692 556.426 161.057 552.883 173.724ZM424.75 186.003C437.386 186.091 473.763 190.626 458.001 166.417C455.586 162.708 441.616 163.615 437.503 163.63L411.189 163.75C402.156 163.759 383.785 161.493 377.079 167.521C370.981 173.002 374.79 184.707 382.957 185.707C387.609 186.357 393.531 186.077 398.447 186.068L424.75 186.003Z"/><path fill="#1E2B45" d="M505.867 368.215C515.091 367.686 523.269 372.638 524.372 382.398C525.014 388.085 524.705 394.083 524.678 399.819C524.594 409.766 524.576 419.714 524.622 429.662C524.937 475.966 523.296 526.533 525.271 572.237C535.284 571.854 546.528 572.096 556.637 572.113L608.846 572.143L653.612 572.145C661.551 572.146 669.491 572.268 677.42 572.274C699.921 572.289 704.282 601.582 680.66 607.422C670.744 607.799 658.655 607.492 648.649 607.479L590.908 607.482L538.562 607.533C528.908 607.537 518.817 607.769 509.492 607.354C490.946 606.53 490.146 592.849 490.838 578.334C491.069 573.502 490.831 567.466 490.824 562.568L490.775 509.795L490.857 418.634C490.954 407.572 490.69 396.534 490.975 385.48C491.231 375.567 496.876 370.811 505.867 368.215Z"/></svg>