<?xml version="1.0" encoding="utf-8" ?><svg xmlns="http://www.w3.org/2000/svg" xmlns:xlink="http://www.w3.org/1999/xlink" width="1024" height="1024" viewBox="0 0 1024 1024"><path fill="#1E2B45" d="M425.326 279.202C434.882 278.436 450.974 278.973 461.173 278.976L529.309 278.99L597.989 278.961C610.368 278.958 622.915 278.704 635.351 279.278C663.057 280.555 687.932 304.45 691.537 331.74C692.414 338.383 692.109 346.152 692.123 352.912L692.117 384.941L692.138 484.778L691.992 614.447L691.949 655.832C691.937 662.802 692.197 673.191 691.548 679.863C689.676 699.18 680.032 716.905 664.83 728.968C649.504 741.176 629.941 746.764 610.479 744.494C589.945 742.113 573.132 732.701 560.385 716.393C553.953 708.33 549.486 698.881 547.335 688.794C545.303 679.44 545.619 669.809 545.589 660.264L545.534 630.797C545.513 619.685 544.929 599.607 546.152 589.478C552.2 579.629 563.867 582.438 573.795 582.331L573.306 581.699C569.963 577.291 563.306 571.005 559.182 566.887C545.9 553.58 532.407 540.485 518.708 527.608C506.806 540.076 494.387 551.773 482.252 563.995C476.302 569.988 469.836 576.081 464.339 582.437C474.317 582.736 493.987 579.089 493.769 594.002C493.356 622.302 494.942 651.61 492.819 679.816C491.915 691.831 484.658 707.394 477.09 716.488C448.784 750.504 397.403 754.6 363.252 726.733C345.165 711.911 333.743 690.481 331.522 667.202C330.253 653.882 330.833 631.462 330.84 617.624L330.958 527.819L330.839 425.524C330.847 409.033 330.096 378.987 332.636 364.195C335.73 346.07 343.583 329.091 355.392 314.997C373.097 293.658 397.916 281.64 425.326 279.202ZM470.865 606.136L469.958 606.06C463.114 605.518 455.383 605.896 448.484 605.929C438.551 605.978 423.286 608.052 423.478 593.521C423.552 587.919 434.799 578.413 438.862 574.359L462.086 551.146L492.157 520.969C497.977 515.135 503.789 509.119 509.861 503.596C515.16 498.776 520.162 497.794 525.73 502.63C529.913 506.263 533.729 510.02 537.695 513.848C544.954 520.831 552.177 527.85 559.365 534.905L591.425 566.575C598.042 573.115 604.67 579.516 610.67 586.672C615.234 592.115 614.679 597.933 609.644 602.858C606.106 606.319 601.039 606.126 596.456 606.155C587.643 606.211 578.78 605.822 569.972 606.097L569.926 606.75C569.49 613.745 569.682 629.677 569.798 637.155C569.985 649.189 568.773 673.399 571.153 684.012C572.912 692.205 576.742 699.809 582.278 706.1C611.205 738.799 668.593 718.068 668.719 673.41C668.787 649.447 668.981 625.403 668.981 601.423L668.933 464.97L668.94 378.093C668.924 369.93 668.915 361.773 668.856 353.603C668.754 339.567 670.035 325.367 659.554 314.347C652.624 307.06 642.832 302.642 632.722 302.839C618.067 302.837 603.536 302.918 588.968 302.933L499.166 303.001L450.337 302.957C444.369 302.943 430.486 302.574 425.25 303.194C381.344 307.14 352.704 343.989 353.914 386.453C354.21 396.874 353.905 407.808 353.913 418.267L353.943 503.28L353.957 610.42L353.964 643.751C353.969 650.723 353.708 658.356 354.356 665.253C357.319 696.795 380.538 719.858 412.328 722.069C439.216 723.94 462.343 708.563 469.262 682.197C471.812 672.065 470.586 660.477 470.896 650.066C471.011 635.452 470.641 620.733 470.865 606.136Z"/><path fill="#1E2B45" d="M420.038 363.726C427.382 363.329 438.405 363.777 446.079 363.738L506.526 363.555L564.554 363.564C572.02 363.55 603.298 362.663 607.607 365.239C610.545 366.965 612.588 369.884 613.204 373.235C614.794 381.648 609.977 386.064 602.189 387.218C593.441 387.763 581.685 387.489 572.764 387.498L521.432 387.536L456.464 387.579C444.938 387.584 433.492 387.617 421.909 387.477C416.153 387.931 409.824 384.664 408.61 378.445C407.079 370.606 413.106 365.12 420.038 363.726Z"/><path fill="#1E2B45" d="M419.191 424.185C430.029 423.696 442.571 423.996 453.587 424.001L512.879 424.049L569.559 424.056C580.29 424.019 591.101 423.846 601.824 424.02C604.172 424.207 606.202 423.941 608.207 425.383C610.891 427.214 613.335 430.898 613.449 434.308C613.711 442.061 609.438 445.717 602.674 446.917L486.951 447.037C465.236 447.039 443.757 447.053 421.816 446.921C411.533 446.859 404.788 441.43 409.669 429.873C411.031 426.649 415.856 424.927 419.191 424.185Z"/></svg>