<?xml version="1.0" encoding="utf-8" ?><svg xmlns="http://www.w3.org/2000/svg" xmlns:xlink="http://www.w3.org/1999/xlink" width="1024" height="1024" viewBox="0 0 1024 1024"><path fill="#1E2B45" d="M508.285 314.748C539.664 314.388 570.708 321.231 599.028 334.748C646.065 357.734 682.13 398.353 699.388 447.779C718.566 502.945 712.113 561.856 682.981 611.393C680.773 615.148 677.02 621.991 672.373 622.868C664.403 624.372 660.627 618.87 658.828 612.136C660.452 606.812 667.748 595.835 670.847 589.66C681.335 568.6 687.452 545.636 688.829 522.149C691.366 478.249 676.39 430.666 647 397.671C641.008 390.166 628.227 378.347 620.51 372.429C584.154 344.544 536.535 330.854 490.948 336.682C434.393 343.912 385.372 375.99 357.659 425.983C354.074 432.449 351.039 438.839 348.029 445.591C345.905 450.355 343.785 460.712 340.806 464.35C338.879 466.744 336.055 468.244 332.992 468.5C327.438 468.917 322.437 464.633 322.37 459.087C322.311 454.269 324.446 448.54 326.158 444.015C334.893 420.933 347.662 398.808 364.326 380.586C395.067 346.476 436.626 324.005 482.001 316.957C490.118 315.71 500.064 315.123 508.285 314.748Z"/><path fill="#1E2B45" d="M506.391 378.206C515.728 377.688 522.998 378.053 531.512 382.462C541.926 387.856 550.04 396.484 553.641 407.72C555.113 412.302 555.816 417.097 555.722 421.908C555.647 428.079 554.329 438.097 553.683 444.435L550.334 479.295L546.961 515.387C544.912 538.311 545.225 555.793 518.708 563.173C510.072 564.58 501.585 563.083 494.195 558.314C486.782 553.552 481.617 545.988 479.882 537.35C478.412 530.328 477.862 518.24 477.138 510.598C475.349 492.666 473.732 474.716 472.287 456.752C471.285 444.397 468.568 428.354 469.358 416.379C470.729 395.62 487.586 382.019 506.391 378.206ZM516.253 542.298C525.797 538.033 524.766 525.96 525.71 516.579C528.8 485.885 531.39 455.086 534.154 424.361C535.559 408.631 524.421 398.396 508.912 399.561C500.138 401.756 490.183 408.914 490.221 418.845C490.276 433.652 492.718 448.973 494.053 463.751C495.321 479.284 496.728 494.806 498.275 510.314C499.053 518.382 499.509 526.72 501.261 534.618C502.975 542.341 509.512 543.183 516.253 542.298Z"/><path fill="#1E2B45" d="M321.958 494.623C324.339 494.489 326.619 494.561 328.9 495.347C329.737 495.631 330.528 496.033 331.252 496.539C336.13 499.943 335.718 506.651 335.621 511.97C335.34 527.458 337.659 542.108 341.457 557.149C346.704 578.416 356.229 598.39 369.451 615.853C398.479 654.943 442.12 680.588 490.396 686.924C535.727 693.133 584.705 679.149 620.837 651.305C629.655 644.509 637.017 634.689 646.142 649.147L646.278 654.995C644.265 659.049 642.582 660.595 639.294 663.435C626.736 675.217 602.251 688.285 586.438 694.812C487.468 735.663 368.825 686.168 328.896 586.389C320.132 564.052 315.216 540.391 314.355 516.41C314.042 507.795 312.584 498.376 321.958 494.623Z"/><path fill="#1E2B45" d="M507.356 576.351C526.897 573.642 544.914 587.343 547.525 606.898C550.136 626.452 536.344 644.4 516.776 646.913C497.348 649.407 479.555 635.735 476.963 616.319C474.37 596.903 487.953 579.041 507.356 576.351ZM515.757 625.366C523.39 623.495 528.064 615.793 526.199 608.159C524.334 600.524 516.635 595.845 509 597.704C501.356 599.566 496.67 607.274 498.537 614.916C500.405 622.559 508.116 627.239 515.757 625.366Z"/></svg>