<?xml version="1.0" encoding="utf-8" ?><svg xmlns="http://www.w3.org/2000/svg" xmlns:xlink="http://www.w3.org/1999/xlink" width="1024" height="1024" viewBox="0 0 1024 1024"><path fill="#1E2B45" d="M643.707 258.296C643.867 258.282 644.027 258.268 644.187 258.255C702.428 255.019 761.128 274.572 805.011 312.799C855.72 356.972 881.501 415.824 885.517 482.201C886.2 493.499 887.971 507.578 879.794 516.443C875.225 521.396 868.62 524.091 862.004 524.115C844.299 524.18 841.917 512.274 833.744 500.192C830.495 495.389 824.108 488.38 819.945 484.358C801.975 467.097 777.924 457.618 753.009 457.977C727.748 458.674 703.783 469.311 686.319 487.576C665.291 509.756 656.104 539.399 657.459 569.479C660.765 642.914 720.995 697.643 790.267 711.638C807.887 715.623 825.607 714.836 843.461 715.037C856.035 715.179 869.545 712.636 879.295 721.727C894.593 735.991 885.076 762.052 864.492 763.316C856.341 763.816 848.249 763.573 840.133 763.538L789.465 763.113L625.627 762.71L297.359 763.5L203.948 763.524C189.808 763.525 163.721 764.225 150.727 762.431C138.072 760.629 126.173 755.327 116.369 747.125C100.69 734.08 90.9478 715.253 89.3567 694.918C87.7045 674.771 94.129 654.793 107.215 639.385C118.677 626.002 139.5 613.462 157.092 612.258C178.195 610.814 200.047 613.239 221.449 611.569C243.479 609.976 264.988 604.115 284.78 594.312C339.162 567.88 367.717 522.339 397.978 471.851L434.459 411.373C448.507 388.368 463.027 365.218 480.417 344.508C522.695 294.159 577.582 263.373 643.707 258.296ZM418.329 716.139C469.925 716.244 522.309 715.595 573.773 716.144C599.002 716.506 624.234 716.654 649.465 716.587C662.568 716.609 677.413 717.19 690.247 716.359C681.715 709.014 674.199 703.867 665.937 695.697C633.671 664.251 613.913 622.164 610.333 577.251C604.751 502.191 649.346 431.536 724.298 413.787C761.152 405.06 798.761 412.797 829.177 435.29C816.011 388.736 787.348 351.81 744.926 328.136C716.62 312.493 684.625 304.754 652.298 305.731C605.326 307.224 560.839 327.188 528.5 361.287C510.263 380.564 502.267 392.369 487.511 414.542C474.284 434.486 461.615 454.794 449.517 475.442C442.298 487.752 435.369 500.662 427.909 512.778C395.814 564.901 362.526 607.193 306.947 635.252C276.773 650.485 250.607 657.588 216.725 658.936C204.018 659.442 169.168 657.164 159.179 659.824C153.747 661.223 148.824 664.137 144.984 668.226C139.524 673.953 136.556 681.611 136.733 689.521C137.041 701.761 145.477 714.509 158.033 716.006C166.774 717.047 177.151 716.571 186.039 716.587L235.624 716.725L418.329 716.139Z"/></svg>