<?xml version="1.0" encoding="utf-8" ?><svg xmlns="http://www.w3.org/2000/svg" xmlns:xlink="http://www.w3.org/1999/xlink" width="1024" height="1024" viewBox="0 0 1024 1024"><path fill="#1E2B45" d="M721.61 376.575C733.247 376.168 733.982 386.175 737.738 394.634C747.233 416.023 762.303 415.131 780.993 424.445C800.368 434.101 814.457 451.906 821.076 473.168C841.125 464.168 863.461 462.007 883.261 471.793C897.233 478.699 906.553 483.908 923.045 482.532C929.648 481.982 934.233 479.886 940.642 477.863C947.511 475.694 954.895 478.443 956.06 486.258C957.583 499.491 948.192 519.013 941.178 529.732C924.946 554.537 896.781 570.811 866.914 569.907C853.85 569.579 845.592 567.208 832.335 569.945C824.498 571.562 817.153 575.005 810.897 579.994C797.174 591.064 795.09 600.04 789.861 615.96C787.47 623.265 784.816 630.481 781.904 637.595C774.811 654.321 766.142 670.334 756.015 685.418C728.884 726.766 691.148 760.071 646.749 781.853C634.838 787.626 618.206 794.082 605.287 796.712C621.451 817.538 594.456 821.929 580.024 827.979C575.492 829.546 570.77 830.361 566.105 831.311C489.734 846.853 420.032 795.694 395.621 724.892C392.874 716.927 392.52 708.198 402.448 705.313C408.507 703.552 414.055 707.792 415.722 713.508C417.354 717.957 419.24 722.685 421.083 727.002C433.155 756.071 454.59 780.275 481.987 795.772C511.082 811.949 541.356 814.038 572.993 805.087C568.112 801.012 562.784 797.367 557.801 793.298C526.013 767.339 505.153 734.059 494.717 694.354C496.199 688.694 498.934 683.281 505.342 682.127C506.411 681.927 507.507 681.914 508.581 682.088C518.936 683.833 521.15 702.516 524.903 711.452C535.775 737.341 553.878 761.447 576.512 778.095C594.395 776.094 611.899 771.547 628.495 764.591C687.025 740.649 731.002 691.567 757.137 634.946C760.341 627.937 763.19 620.772 765.673 613.478C767.819 607.107 769.704 600.47 772.217 594.483C787.07 559.1 822.181 540.364 859.858 547.424C868.469 549.037 881.378 546.493 889.576 543.179C906.352 536.256 919.716 522.99 926.762 506.266C909.561 506.56 898.755 506.043 882.941 497.88C875.696 493.985 868.808 490.557 860.774 489.11C844.904 486.251 832.048 492.066 820.2 502.173C817.873 504.157 812.013 506.418 808.654 505.457C797.748 502.336 801.23 488.089 798.357 479.812C795.896 472.002 792.789 464.089 787.377 458.188C764.547 433.297 744.04 446.353 722.464 414.289C714.606 432.661 716.001 457.173 726.535 474.205C736.392 490.142 753.853 499.801 761.97 516.988C785.433 566.675 741.731 617.529 688.874 599.324C645.475 582.315 598.53 538.677 565.674 506.012C545.965 486.417 527.538 466.236 503.064 452.43C487.949 443.904 470.359 437.525 453.264 434.464C428.133 429.963 396.374 431.722 370.352 431.707C353.199 431.697 335.348 430.646 318.305 432.212C308.215 433.139 297.989 435.316 288.236 438.052C252.327 448.123 221.434 473.626 203.379 506.077C185.599 538.033 185.484 566.763 185.461 602.013C185.453 613.023 184.496 624.737 187.606 635.405C190.849 646.531 197.952 655.277 207.917 661.127C238.216 678.914 309.657 676.265 344.697 673.587C352.25 673.01 373.114 668.71 378.836 672.165C381.394 673.709 383.719 677.178 384.393 680.079C385.035 682.846 384.465 685.709 382.974 688.109C380.851 691.528 377.332 693.471 373.484 694.345C367.431 695.72 360.572 695.867 354.375 696.47C318.282 699.98 258.832 701.46 223.901 692.481C212.136 689.456 202.227 684.369 191.919 678.127C193.575 685.028 197.058 693.168 200.18 699.531C221.538 743.93 264.588 774.104 313.494 779.646C336.585 782.185 360.027 780.542 383.223 780.931C391.032 781.062 401.057 779.516 404.762 788.319C405.958 791.172 405.944 794.388 404.723 797.23C403.685 799.645 400.501 802.958 398.221 803.409C390.072 805.018 377.342 804.106 368.959 804.099C326.837 804.062 297.238 806.363 257.856 787.514C217.39 768.379 186.23 733.892 171.283 691.699C167.537 680.949 164.912 669.84 163.451 658.55C161.582 644.047 161.729 629.181 161.635 614.549C161.476 589.698 160.536 567.54 165.165 542.959C167.895 529.138 172.386 515.725 178.529 503.047C198.035 462.986 232.684 432.336 274.826 417.866C313.535 404.43 344.594 408.845 384.735 408.176C402.251 407.884 426.078 407.448 443.158 409.178C479.506 412.957 513.932 427.373 542.127 450.62C546.972 454.657 551.47 458.852 555.951 463.285C581.92 488.974 607.425 515.186 635.854 538.212C652.368 551.587 669.635 564.345 688.855 573.568C699.997 578.914 710.43 581.853 722.464 577.457C731.023 574.306 737.958 567.848 741.709 559.535C748.384 544.642 743.361 526.569 732.288 515.324C726.963 509.917 720.843 505.126 715.922 499.507C708.967 491.654 703.508 482.595 699.815 472.776C689.268 444.868 693.209 413.797 708.834 388.588C712.13 383.269 715.577 378.801 721.61 376.575Z"/><path fill="#1E2B45" d="M446.362 186.715L447.165 186.669C461.644 185.949 477.572 191.15 488.18 201.115C494.882 207.74 503.501 217.456 504.152 227.258C504.58 233.712 498.579 239.082 492.255 238.796C482.824 238.382 480.805 227.79 475.005 221.649C459.56 205.296 433.94 207.362 418.622 223.055C394.623 247.642 391.079 290.245 390.247 322.875C390.119 331.661 390.397 340.449 391.081 349.21C391.486 354.04 393.034 368.565 392.614 372.627C392.418 374.723 391.612 376.716 390.296 378.359C388.518 380.586 385.354 382.419 382.521 382.566C369.678 383.234 369.204 373.758 368.145 364.582C361.26 304.909 367.092 193.234 446.362 186.715Z"/></svg>