<?xml version="1.0" encoding="utf-8" ?><svg xmlns="http://www.w3.org/2000/svg" xmlns:xlink="http://www.w3.org/1999/xlink" width="1024" height="1024" viewBox="0 0 1024 1024"><path fill="#1E2B45" d="M512.733 467.483C528.32 451.136 546.506 433.663 562.627 417.635L632.759 347.118L680.817 298.822C689.29 290.303 698.487 280.362 707.606 272.719C718.368 263.701 735.813 265.863 745.936 274.673C752.837 280.618 757.08 289.072 757.723 298.157C758.908 316.147 748.456 321.253 737.289 331.957C726.699 342.244 716.226 352.65 705.871 363.173L610.183 459.59L580.724 489.351C573.139 496.881 564.289 505.176 557.26 513.085L697.724 652.642L731.767 686.616C737.806 692.607 745.167 699.175 750.517 705.681C766.791 725.473 753.546 755.481 728.458 758.153C715.196 759.116 708.762 755.504 699.942 745.878C690.736 735.829 680.445 726.067 670.755 716.407L557.205 602.616L529.921 575.318C524.961 570.337 516.909 561.886 511.421 557.766C482.662 585.522 454.225 614.819 426.008 643.164L333.943 735.37C329.11 740.287 318.702 754.054 313.347 756.241C289.236 766.087 263.681 746.964 267.785 720.788C268.309 717.446 269.433 713.345 271.342 710.47C277.079 702.902 284.609 695.814 291.283 689.075L327.461 652.732L466.469 512.768C450.995 495.99 432.407 478.179 416.118 461.876L325.856 371.559L293.793 339.582C288.601 334.403 275.957 322.786 272.459 316.975C258.813 294.314 273.997 269.781 298.206 267.201C312.369 266.047 317.369 272.525 326.484 281.489C332.858 287.681 339.132 293.974 345.303 300.367L384.831 340.491C426.744 383.018 470.198 425.509 512.733 467.483Z"/></svg>