<svg xmlns="http://www.w3.org/2000/svg" viewBox="195 87 636 636"><rect x="195" y="87" width="636" height="636" rx="140" fill="#12314F"/><path fill="#E9E7F1" d="M492.548 282.181C496.472 281.947 500.934 281.989 504.903 281.937C503.827 295.947 512.564 304.558 525.085 308.063C541.108 312.548 553.821 306.127 558.234 290.026C562.152 291.461 567.107 293.769 571.02 295.458C568.524 300.37 565.669 305.801 566.04 311.376C567.303 330.333 593.536 346.281 609.896 333.993C612.124 332.319 613.844 330.34 615.665 328.296C618.693 331.899 621.694 335.525 624.668 339.173C622.576 340.127 619.992 341.239 618.194 342.627C599.875 356.773 611.653 391.334 634.375 392.542C638.594 392.766 641.833 391.815 645.731 390.547C646.751 394.594 647.674 398.778 648.624 402.851C644.039 403.445 640.066 403.938 635.972 406.171C618.307 415.804 616.42 447.278 634.828 457.209C637.194 458.485 639.328 459.169 641.867 459.955C640.099 469.274 637.823 476.817 634.607 485.672C617.825 480.022 588.937 472.919 574.139 463.372C567.3 458.961 572.144 438.279 573.014 430.454C573.528 425.786 573.622 421.081 573.295 416.397C572.022 396.651 561.154 378.181 546.457 365.215C530.272 350.879 509.355 345.716 488.254 346.801C448.211 348.86 415.476 384.534 419.135 424.883C420.542 440.397 428.363 455.117 440.394 465.152C450.193 473.49 462.967 477.476 475.769 476.191C487.523 475.006 498.863 469.127 506.413 459.98C518.107 445.811 519.411 420.864 504.334 408.503C492.898 399.389 476.386 399.743 466.91 412.163C459.031 422.489 464.431 443.148 480.073 440.932C484.366 440.324 487.329 436.091 489.573 432.516C488.95 429.331 488.13 424.529 484.97 422.905C479.731 423.649 480.077 430.57 475.886 430.313C469.78 424.672 477.794 410.832 490.563 416.25C494.695 418.003 497.948 421.345 499.589 425.522C504.122 437.033 496.371 450.939 484.77 454.64C463.969 461.276 440.353 441.165 444.944 419.464C445.517 416.758 444.778 414.647 443.974 412.117C444.392 409.504 447.347 407.646 449.447 406.03C449.617 398.945 450.054 397.541 456.209 394.139C470.213 395.761 465.54 388.98 469.722 384.865C470.561 384.975 471.361 385.157 472.178 385.376C471.975 384.157 471.906 383.73 471.479 382.601L471.153 381.757C472.124 378.457 478.812 375.913 481.07 379.324C483.591 383.131 479.771 385.464 476.743 386.594L476.23 386.78C479.361 387.6 481.214 385.684 482.718 383.285C483.638 381.818 485.857 382.882 487.327 381.789C487.451 380.043 487.388 379.769 487.983 378.086C491.851 374.323 498.25 376.381 498.128 382.525L497.589 382.853C492.471 385.907 493.723 383.646 489.667 384.209L489.971 385.173C492.693 386.518 496.877 385.376 498.688 382.878C500.881 382.054 501.706 383.33 502.693 385.236C505.963 390.949 509.42 390.953 514.887 388.298C515.734 389.268 516.455 389.831 516.577 391.076C519.153 399.409 520.914 400.126 529.546 399.389C531.007 401.509 529.959 403.218 529.193 405.626C528.19 412.352 532.417 414.006 538.121 415.124C538.729 416.202 539.265 417.117 539.767 418.259C535.523 423.534 533.493 427.68 539.917 432.524C541.418 433.498 541.533 433.581 542.795 434.842C543.162 440.209 533.514 442.799 536.413 449.654C537.485 452.191 539.599 453.899 540.269 456.417C539.278 460.445 534.551 459.671 532.155 461.828C527.424 466.089 531.67 472.995 531.143 477.073C527.374 482.737 521.497 473.91 515.468 488.152C515.965 490.411 516.773 492.658 516.114 494.772C513.232 497.16 509.294 493.966 504.811 494.222C496.964 494.672 497.357 503.354 493.597 507.374C490.713 508.219 484.679 503.586 480.516 502.526C471.336 505.67 474.376 508.306 469.062 512.148C465.003 512.5 460.705 505.195 455.862 503.757C450.837 502.264 446.073 507.228 441.306 509.607C435.395 507.031 440.679 497.931 425.902 494.266C421.627 495.156 415.968 499.58 413.806 496.497C413.34 494.025 413.981 492.319 414.556 489.844C411.58 482.296 409.831 478.816 401.531 476.882C397.984 477.756 397.205 478.076 393.936 479.667C392.29 478.208 391.538 477.312 390.091 475.626C392.727 471.686 393.444 469.998 394.635 465.615C390.648 446.138 378.424 454.127 374.764 448.693C374.448 444.643 378.352 443.072 380.452 439.876C384.835 433.204 383.476 424.228 376.844 419.545C374.175 417.659 371.412 416.583 368.789 414.754C367.87 407.058 371.96 409.239 377.194 405.917C383.553 401.881 386.272 393.445 383.911 386.336C381.958 380.457 378.667 378.477 373.569 375.844C374.246 372.896 374.947 370.954 375.951 368.108C378.316 368.565 380.768 369.03 383.178 368.903C388.509 368.586 393.475 366.089 396.909 361.999C404.486 353.047 403.205 342.646 393.965 335.697L400.028 327.455C402.275 329.416 403.828 330.649 406.591 331.789C421.459 337.922 441.209 323.675 437.689 307.292C437.134 304.706 435.929 302.396 434.789 300.042C438.22 297.936 440.672 296.613 444.289 294.825C453.124 312.617 472.7 314.171 486.43 301.434C492.105 296.17 492.703 289.281 492.548 282.181Z"/><path fill="#E9E7F1" d="M497.058 191.215C501.78 190.693 511.571 190.779 516.456 190.829C553.72 191.286 590.516 199.192 624.679 214.082C696.187 245.08 755.61 307.736 784.191 380.091C807.983 439.843 811.603 505.732 794.498 567.73C789.23 586.595 783.719 599.863 776.048 617.59L765.702 617.342C769.737 608.364 773.897 599.452 777.384 590.248C788.872 559.681 795.108 527.391 795.828 494.745C799.541 349.804 685.09 214.904 539.739 201.325C535.279 200.909 530.856 200.595 526.375 200.485C487.449 198.492 444.649 204.903 408.47 220.209C336.535 250.641 278.564 309.74 249.192 382.106C225.357 440.83 221.611 506.185 239.104 567.169C244.739 586.813 250.231 598.958 258.34 617.574L248.535 617.732C231.406 582.352 221.466 543.926 219.293 504.678C215.116 423.08 244.248 347.151 298.723 286.79C349.519 229.856 420.877 195.469 497.058 191.215Z"/><path fill="#E9E7F1" d="M569.248 473.232C589.812 480.314 608.528 486.794 629.541 492.987C622.856 514.345 624.495 535.597 627.866 557.298C609.592 568.267 591.65 582.028 577.359 597.917C574.509 601.086 560.719 619.396 558.594 619.771L558.062 619.074C557.018 613.61 573.869 567.655 576.711 559.619C578.757 556.678 585.947 556.867 587.707 552.089C588.825 549.057 589.14 545.899 587.791 542.885C586.628 540.351 584.504 538.384 581.888 537.419C574.362 534.563 569.119 539.243 566.65 546.012C567.875 550.538 568.673 551.951 571.012 555.825C569.485 561.457 566.705 569.02 564.781 574.719C560.961 586.377 556.931 597.965 552.694 609.478C551.897 611.666 550.517 615.991 548.45 616.949C546.3 615.176 546.648 602.003 546.545 598.88C545.722 573.927 539.852 548.447 530.425 525.388C546.972 509.533 559.562 494.36 569.248 473.232Z"/><path fill="#E9E7F1" d="M643.109 409.587C651.976 408.801 658.043 412.327 661.457 420.763C664.174 427.65 664.061 435.332 661.142 442.137C658.3 448.593 654.592 451.364 648.424 453.894C624.851 456.613 619.858 419.164 643.109 409.587Z"/><path fill="#E9E7F1" d="M630.156 344.132C653.585 346.116 661.122 381.806 637.611 386.467C633.59 386.33 629.242 384.673 625.993 382.322C620.379 378.203 616.632 372.024 615.575 365.143C613.932 354.399 619.058 345.704 630.156 344.132Z"/><path fill="#E9E7F1" d="M585.885 295.137C606.396 294.273 626.618 323.413 599.566 332.264C574.31 332.943 560.565 299.476 585.885 295.137Z"/><path fill="#E9E7F1" d="M527.422 271.208C537.688 270.042 550.682 275.824 552.149 287.019C552.596 290.467 551.603 293.947 549.402 296.638C545.723 301.148 540.539 302.218 535.123 302.774C525.125 304.049 512.26 298.233 510.74 287.226C510.239 283.713 511.191 280.148 513.377 277.353C517.043 272.698 521.969 271.725 527.422 271.208Z"/><path fill="#E9E7F1" d="M469.019 275.192C488.882 271.831 496.846 298.289 468.685 303.649C443.416 304.994 444.332 277.997 469.019 275.192Z"/><path fill="#E9E7F1" d="M418.714 300.521C441.187 299.283 436.162 322.36 417.103 328.482C395.021 329.417 399.968 307.649 418.714 300.521Z"/><path fill="#E9E7F1" d="M385.138 338.536C403.362 337.474 398.884 359.257 385.462 365.475C367.916 366.127 370.685 344.871 385.138 338.536Z"/><path fill="#E9E7F1" d="M369.58 379.985C370.676 379.976 371.84 379.971 372.907 380.235C375.513 380.876 377.743 382.556 379.079 384.884C383.247 392.232 379.037 401.183 371.836 404.848C358.476 407.72 357.057 388.199 369.58 379.985Z"/><path fill="#E9E7F1" d="M368.121 419.316C379.98 419.964 384.249 436.061 372.716 443.032C365.897 442.508 361.31 436.892 361.861 429.985C362.27 424.862 364.393 422.478 368.121 419.316Z"/><path fill="#E9E7F1" d="M378.923 453.926C389.637 454.017 396.379 466.563 386.265 474.112C377.357 473.937 367.688 460.446 378.923 453.926Z"/><path fill="#E9E7F1" d="M398.97 479.987C408.954 480.183 416.502 491.12 407.043 496.94C406.437 496.884 405.833 496.81 405.232 496.718C396.715 495.376 388.867 486.28 398.97 479.987Z"/><path fill="#E9E7F1" d="M422.614 497.524C432.068 496.953 442.053 506.651 431.278 512.339C422.384 512.978 411.301 503.402 422.614 497.524Z"/><path fill="#E9E7F1" d="M451.712 506.486C461.258 506.237 467.959 515.737 455.842 519.993C446.23 519.987 439.442 511.438 451.712 506.486Z"/><path fill="#E9E7F1" d="M478.58 506.065C488.766 504.777 494.566 513.45 482.982 518.56C473.796 520.567 467.319 512.133 478.58 506.065Z"/><path fill="#E9E7F1" d="M504.028 497.108C516.255 495.809 515.886 504.181 506.833 509.325C496.216 512.627 494.084 502.984 504.028 497.108Z"/><path fill="#E9E7F1" d="M525.024 480.496C536.205 481.153 530.945 491.135 524.528 494.772C513.229 494.47 518.001 484.517 525.024 480.496Z"/><path fill="#E9E7F1" d="M537.692 460.448C547.627 461.966 543.277 471.379 537.368 475.292C527.481 474.652 531.524 464.642 537.692 460.448Z"/><path fill="#E9E7F1" d="M542.739 439.887L544.992 439.985C550.495 442.959 548.354 451.088 543.464 453.894C542.194 453.405 540.422 452.547 539.493 451.557C538.358 450.364 537.773 448.75 537.879 447.107C538.119 443.768 540.333 441.801 542.739 439.887Z"/><path fill="#E9E7F1" d="M540.961 419.749C550.969 420.947 548.092 434.486 540.625 431.94C535.821 427.432 536.653 424.216 540.961 419.749Z"/><path fill="#E9E7F1" d="M530.231 406.323C530.906 404.158 532.275 400.601 534.983 401.606C540.709 403.73 540.144 409.907 539.289 414.005C533.223 413.233 531.233 412.534 530.231 406.323Z"/><path fill="#E9E7F1" d="M518.113 390.154C524.772 388.02 531.038 390.244 528.852 398.204C521.653 399.089 519.385 397.4 518.113 390.154Z"/><path fill="#E9E7F1" d="M503.369 384.466C504.359 376.239 516.451 379.761 513.989 387.405C509.455 389.43 506.219 388.411 503.369 384.466Z"/><path fill="#E9E7F1" d="M462.068 384.378C464.493 384.591 465.02 384.661 466.517 386.521C467.345 389.951 464.904 391.957 462.313 393.561C454.685 393.361 458.29 387.329 462.068 384.378Z"/><path fill="#0B0A0A" fill-opacity="0.027450981" d="M539.767 418.259L540.961 419.749C536.653 424.216 535.821 427.432 540.625 431.94L539.917 432.524C533.493 427.68 535.523 423.534 539.767 418.259Z"/><path fill="#0B0A0A" fill-opacity="0.043137256" d="M516.577 391.076L518.113 390.154C519.385 397.4 521.653 399.089 528.852 398.204L529.546 399.389C520.914 400.126 519.153 399.409 516.577 391.076Z"/><path fill="#0B0A0A" fill-opacity="0.078431375" d="M529.193 405.626C529.946 406.373 529.547 406.254 530.231 406.323C531.233 412.534 533.223 413.233 539.289 414.005L538.121 415.124C532.417 414.006 528.19 412.352 529.193 405.626Z"/><path fill="#0B0A0A" fill-opacity="0.035294119" d="M503.369 384.466C506.219 388.411 509.455 389.43 513.989 387.405L514.887 388.298C509.42 390.953 505.963 390.949 502.693 385.236L503.369 384.466Z"/><path fill="#0B0A0A" fill-opacity="0.11764706" d="M498.688 382.878C496.877 385.376 492.693 386.518 489.971 385.173L489.667 384.209C493.723 383.646 492.471 385.907 497.589 382.853L498.128 382.525L498.688 382.878Z"/></svg>