<svg xmlns="http://www.w3.org/2000/svg" viewBox="0 0 200 200" width="200" height="200" role="img" aria-label="Krakenote">
  <defs>
    <linearGradient id="kg" x1="0" y1="0" x2="1" y2="1">
      <stop offset="0" stop-color="#2ad4c6"/><stop offset="1" stop-color="#1a9d94"/>
    </linearGradient>
  </defs>
  <!-- Abyss rounded-square background so the mascot reads at small sizes -->
  <rect x="0" y="0" width="200" height="200" rx="44" ry="44" fill="#0A1A2F"/>
  <!-- kraken mascot, scaled slightly and nudged up to sit centered in the tile -->
  <g transform="translate(100 96) scale(0.82) translate(-100 -92)">
    <!-- tentacles -->
    <g fill="url(#kg)">
      <path d="M60 120 C40 140 34 168 46 182 C54 172 58 156 66 148 Z"/>
      <path d="M78 130 C70 156 58 172 66 188 C78 176 84 156 90 142 Z"/>
      <path d="M100 134 C98 160 96 178 108 188 C116 174 114 152 112 138 Z"/>
      <path d="M122 130 C134 152 138 172 132 188 C120 176 114 156 110 142 Z"/>
      <path d="M140 120 C160 140 166 166 154 182 C146 172 142 156 134 148 Z"/>
    </g>
    <!-- head -->
    <path d="M100 26 C58 26 34 56 34 92 C34 122 56 140 100 140 C144 140 166 122 166 92 C166 56 142 26 100 26 Z" fill="url(#kg)"/>
    <!-- glasses -->
    <g stroke="#0A1A2F" stroke-width="5" fill="#F7F4ED">
      <circle cx="78" cy="86" r="20"/>
      <circle cx="124" cy="86" r="20"/>
      <path d="M98 86 h6" fill="none"/>
    </g>
    <!-- pupils -->
    <circle cx="80" cy="88" r="7" fill="#0A1A2F"/>
    <circle cx="122" cy="88" r="7" fill="#0A1A2F"/>
    <circle cx="83" cy="85" r="2.4" fill="#fff"/>
    <circle cx="125" cy="85" r="2.4" fill="#fff"/>
    <!-- smile -->
    <path d="M86 112 Q100 124 114 112" stroke="#0A1A2F" stroke-width="4.5" fill="none" stroke-linecap="round"/>
    <!-- pencil in tentacle -->
    <g transform="rotate(38 158 150)">
      <rect x="150" y="120" width="10" height="46" rx="2" fill="#FF6B5C"/>
      <polygon points="150,120 160,120 155,108" fill="#F7F4ED"/>
      <polygon points="153,112 157,112 155,108" fill="#0A1A2F"/>
      <rect x="150" y="160" width="10" height="7" fill="#F4B740"/>
    </g>
  </g>
</svg>
