<svg xmlns="http://www.w3.org/2000/svg" viewBox="194 169 637 470"><defs><linearGradient id="gradient_0" gradientUnits="userSpaceOnUse" x1="483.79361" y1="378.92899" x2="484.53265" y2="381.86887"><stop offset="0" stop-color="white" stop-opacity="0"/><stop offset="1" stop-color="#EFEEEF" stop-opacity="0.050980393"/></linearGradient></defs><path fill="#141314" d="M492.62 282.238C496.465 282.019 500.651 282.01 504.526 281.926C504.431 288.048 504.647 290.933 508.073 296.459C519.061 314.182 554.335 313.72 558.225 290.652C563.051 292.362 566.553 293.865 571.186 295.962C568.103 300.349 566.011 305.502 566.247 310.954C567.111 330.936 593.921 346.063 610.718 333.742C612.551 332.397 614.251 330.477 615.801 328.798C618.865 331.987 621.692 335.397 624.258 339C619.788 341.691 617.066 342.922 613.72 347.365C604.391 359.695 609.064 378.529 621.215 387.164C629.276 392.892 636.321 392.415 645.341 390.803L648.545 402.912C643.875 403.438 640.338 404.011 636.092 406.144C617.211 415.626 615.994 446.01 634.037 456.982C636.637 458.562 638.996 459.197 641.866 460.029C639.665 468.975 637.565 476.461 634.888 485.332C625.794 482.801 580.059 469.091 574.799 464.783C566.511 457.997 572.067 439.531 573.134 430.401C573.694 425.53 573.737 420.613 573.261 415.732C571.466 395.851 561.651 377.559 546.078 365.07C512.368 337.673 462.379 339.301 434.472 374.227C423.079 388.485 416.608 407.546 418.735 425.854C420.696 442.009 429.067 456.698 441.966 466.619C451.594 474.275 463.917 477.694 476.113 476.091C499.345 473.006 518.152 452.912 515.289 428.604C514.356 420.684 509.492 412.149 502.981 407.442C496.821 403.071 489.157 401.371 481.727 402.729C470.091 404.955 460.343 414.512 463.153 427.185C464.112 431.515 466.919 436.79 470.869 439.109C473.921 440.877 477.544 441.377 480.961 440.5C483.87 439.741 486.719 437.803 488.186 435.138C489.325 433.099 489.556 430.676 488.823 428.459C488.057 426.101 486.557 423.837 484.351 422.621C480.065 422.684 480.542 428.616 477.632 430.606C471.381 429.635 473.145 420.393 478.332 417.414C486.207 412.891 495.001 415.923 498.652 423.923C507.819 444.011 485.295 461.293 466.466 454.043C458.026 450.877 450.609 445.188 447.269 436.709C445.531 432.295 445.853 429.673 443.486 425.253C443.905 422.672 444.587 420.314 445.257 417.792C442.556 411.313 444.021 410.336 448.939 406.644C449.962 395.289 451.002 394.846 462.548 394.437C467.283 393.178 467.448 390.174 468.66 385.94C468.999 385.925 470.309 385.61 470.695 385.526C473.341 386.8 474.691 387.711 477.657 387.798C482.045 385.146 482.301 380.379 486.511 381.922C490.851 386.466 496.552 388.567 499.816 381.419L499.481 380.458C503.444 380.162 501.943 390.434 507.94 389.741C510.39 389.458 514.544 388.361 516.721 388.902C521.074 394.263 511.946 399.526 529.652 399.681C529.387 402.339 528.285 409.821 530.099 411.661C532.885 414.488 537.173 414.444 540.834 417.497C531.814 424.855 534.536 428.217 542.677 435.341C543.708 440.059 534.769 439.475 535.992 446.919C536.773 451.675 541.006 453.941 539.819 457.906C538.022 459.799 536.061 459.839 533.412 460.366L530.538 463.569C529.899 466.974 529.57 468.657 529.428 472.132C530.536 473.714 531.532 474.676 531.503 476.544C530.885 477.61 530.808 477.999 529.233 478.334C523.948 479.461 521.438 478.294 517.83 482.484C514.128 486.783 517.679 495.647 514.957 495.619C509.576 495.564 503.213 492.41 498.239 497.186C497.092 498.287 495.513 503.113 495.546 504.58C494.791 506.623 494.682 506.902 492.785 507.585C490.259 507.261 488.097 505.47 485.881 504.011C484.569 503.938 483.159 503.072 481.114 503.252C474.463 503.62 473.41 507.128 469.758 511.439C465.686 516.244 461.082 504.344 455.296 503.508C448.842 502.575 444.658 509.512 440.345 509.185C436.198 505.905 438.536 496.702 426.381 494.06L425.661 493.91C421.215 494.992 418.354 497.615 415.351 498.309C412.436 495.767 414.44 489.151 412.671 485.04C408.862 476.191 401.921 476.012 393.766 479.011C392.32 477.781 391.395 476.599 390.155 475.155C392.77 471.318 394.475 468.845 394.006 463.779C393.64 459.983 391.752 456.497 388.773 454.116C384.338 450.598 381.167 450.944 376.079 451.393C375.188 449.538 374.638 447.824 373.969 445.895C378.383 443.264 381.51 439.916 382.621 434.757C383.49 430.722 382.68 426.508 380.379 423.082C377.204 418.42 373.54 417.315 368.482 416.263C368.459 414.078 368.521 411.794 368.546 409.6C369.119 409.45 369.69 409.291 370.258 409.123C386.986 404.178 390.673 384.332 373.397 376.01C374.22 373.179 375.069 371.083 376.159 368.351C377.909 368.741 379.593 369.129 381.393 369.167C386.652 369.231 391.713 367.164 395.423 363.437C404.789 354.085 402.533 343.447 393.816 334.924C395.841 332.171 397.88 330.093 400.218 327.611C413.843 339.237 430.466 332.21 437.203 316.569C439.675 310.83 437.324 305.296 434.832 299.965C438.283 297.666 440.622 296.475 444.346 294.748C456.071 320.934 496.487 308.733 492.62 282.238Z"/><path fill="#141314" d="M485.881 504.011C489.371 504.434 493.055 503.398 495.546 504.58C494.791 506.623 494.682 506.902 492.785 507.585C490.259 507.261 488.097 505.47 485.881 504.011Z"/><path fill="#4E4C4D" d="M499.926 191.224C541.804 189.27 583.586 196.755 622.182 213.125C695.439 244.845 753.307 304.068 783.324 378.038C808.04 439.373 811.565 507.204 793.341 570.771C788.599 587.222 782.543 601.658 775.876 617.346C772.06 617.142 769.577 617.194 765.745 617.385C769.388 608.075 773.797 599.017 777.451 589.383C788.929 559.636 795.21 528.138 796.019 496.263C797.389 418.763 767.919 343.893 714.092 288.118C665.371 236.975 596.001 201.949 524.76 200.244C480.952 197.793 437.222 206.269 397.502 224.909C325.973 258.647 270.841 319.505 244.312 394.009C216.879 470.231 224.732 545.038 258.743 617.472C254.615 617.168 252.618 617.128 248.514 617.406C231.986 583.451 222.197 546.613 219.69 508.932C214.401 428.047 241.889 350.916 295.381 290.372C350.297 228.217 417.783 196.549 499.926 191.224Z"/><path fill="#293A59" d="M569.277 473.272C585.755 479.932 611.221 487.045 628.846 493.047C621.945 518.382 623.938 531.346 627.9 556.823C613.087 566.201 599.208 575.833 586.49 587.974C582.919 591.386 579.526 594.979 576.324 598.739C572.656 603.026 561.674 617.383 557.996 619.415L557.425 618.996C557.89 613.391 562.288 601.023 564.257 595.255C568.375 583.153 572.633 571.099 577.032 559.097C581.284 556.073 585.85 556.281 588.221 550.519C590.544 544.875 587.396 539.21 581.878 537.118C579.018 536.005 575.822 536.149 573.074 537.514C568.893 539.603 567.663 542.696 566.326 546.749C567.359 550.979 568.234 552.166 570.726 555.539C568.771 562.491 552.122 613.443 549.788 615.725C549.012 616.484 548.77 616.448 547.75 616.465C546.717 614.401 546.854 605.864 546.865 602.997C546.968 575.788 540.111 551.048 530.672 525.622C548.697 507.669 557.843 496.816 569.277 473.272Z"/><path fill="#141314" d="M642.576 409.606C667.239 406.575 670.925 445.065 648.393 453.755C624.014 455.016 620.601 421.34 642.576 409.606Z"/><path fill="#141314" d="M627.445 344.13C650.992 343.397 662.249 377.1 639.231 385.967C617.19 387.44 604.447 353.989 627.445 344.13Z"/><path fill="#141314" d="M583.21 295.539C587.595 295.446 589.956 295.284 594.437 296.614C604.599 299.631 615.626 311.41 611.673 322.655C610.116 327.084 606.217 329.504 602.026 331.351C577.382 334.791 560.016 304.316 583.21 295.539Z"/><path fill="#141314" d="M526.372 271.189C552.835 270.189 563.532 297.328 537.402 302.61C510.485 305.846 498.863 275.652 526.372 271.189Z"/><path fill="#141314" d="M467.305 275.168C477.666 274.245 484.764 276.759 487.575 287.324C485.889 297.186 479.183 301.151 470.113 303.444C443.632 304.864 444.053 279.782 467.305 275.168Z"/><path fill="#141314" d="M419.563 300.574C441.054 299.62 435.982 321.874 416.868 327.955C395.407 330.149 399.308 305.987 419.563 300.574Z"/><path fill="#141314" d="M384.593 338.604C402.12 336.818 400.08 358.693 385.111 364.875C369.82 368.06 368.128 346.167 384.593 338.604Z"/><path fill="#141314" d="M368.866 380.01C370.056 379.982 371.551 379.936 372.704 380.182C375.328 380.768 377.598 382.4 378.988 384.701C383.37 391.995 378.836 400.979 371.945 404.961C370.95 404.988 369.72 405.024 368.741 404.939C366.216 404.704 363.924 403.367 362.476 401.287C357.521 394.295 362.237 384.363 368.866 380.01Z"/><path fill="#141314" d="M368.281 419.368C372.23 420.089 375.208 421.503 377.476 425.015C379.356 427.956 379.937 431.543 379.079 434.927C378.053 438.875 376.098 440.634 372.724 442.525C360.31 442.131 357.24 425.817 368.281 419.368Z"/><path fill="#141314" d="M377.617 454.012C388.595 453.97 396.012 464.272 387.282 472.856C383.3 473.537 380.25 472.918 377.238 469.994C375.053 467.894 373.838 464.98 373.885 461.95C373.931 458.231 375.156 456.497 377.617 454.012Z"/><path fill="#141314" d="M397.858 480.026C407.282 479.821 416.969 488.554 407.709 496.482C397.877 496.694 388.529 488.249 397.858 480.026Z"/><path fill="#141314" d="M422.045 497.478C431.065 497.105 441.613 504.476 431.486 512.482C430.39 512.516 429.294 512.458 428.208 512.309C420.519 511.206 413.037 503.635 422.045 497.478Z"/><path fill="#141314" d="M453.617 506.707C464.051 508.872 466.121 517.242 455.018 520.223C443.06 518.239 440.785 507.845 453.617 506.707Z"/><path fill="#141314" d="M479.041 506.087C490.333 505.774 493.136 513.299 482.918 518.89C472.655 519.669 467.632 511.199 479.041 506.087Z"/><path fill="#141314" d="M505.044 496.571C516.911 496.421 514.022 505.003 505.821 509.606C493.318 510.029 496.837 500.983 505.044 496.571Z"/><path fill="#141314" d="M525.054 480.436C536.809 480.466 530.807 490.164 524.59 494.281C523.961 494.243 523.334 494.181 522.71 494.097C519.664 493.691 517.406 491.543 518.273 488.207C519.328 484.141 521.68 482.513 525.054 480.436Z"/><path fill="#141314" d="M537.04 460.865C547.318 461.509 543.059 470.526 537.93 475.061C527.194 474.477 531.946 465.508 537.04 460.865Z"/><path fill="#141314" d="M543.632 439.358C551.451 442.17 549.327 450.215 543.199 453.906C535.271 449.987 537.008 443.666 543.632 439.358Z"/><path fill="#141314" d="M541.957 419.304C548.744 422.591 548.558 427.941 543.529 432.883C535.976 430.538 535.639 423.706 541.957 419.304Z"/><path fill="#141314" d="M532.173 402.263C540.033 402.338 542.564 406.809 538.731 413.613C531.687 412.62 528.32 409.145 532.173 402.263Z"/><path fill="#141314" d="M520.237 388.336C526.43 388.822 531.358 391.945 527.676 398.555C520.575 397.842 517.844 395.431 520.237 388.336Z"/><path fill="#141314" d="M489.011 376.531C492.596 376.235 496.942 376.358 498.324 380.215C497.985 382.081 497.57 382.317 496.29 383.692C490.744 384.969 483.924 382.874 489.011 376.531Z"/><path fill="#141314" d="M506.555 379.358C510.209 379.849 513.527 381.045 514.16 384.962C513.586 386.929 513.425 386.973 511.826 388.382C506.081 388.061 499.96 384.541 506.555 379.358Z"/><path fill="#141314" d="M471.261 383.189C472.199 377.602 477.792 376.228 481.837 380.13C481.25 383.656 480.913 383.904 477.967 386.024C474.294 386.043 473.706 386.135 471.261 383.189Z"/><path fill="#141314" d="M460.206 393.976C459.44 393.633 458.681 393.178 458.204 392.455C457.54 391.463 457.371 390.22 457.745 389.086C459.212 384.779 463.487 384.465 467.141 386.146C466.045 391.018 465.021 392.598 460.206 393.976Z"/><path fill="#F8F8F7" fill-opacity="0.0078431377" d="M540.834 417.497L541.352 417.131C541.82 418.192 541.824 418.156 541.957 419.304C535.639 423.706 535.976 430.538 543.529 432.883C543.632 434.449 543.776 433.715 543.009 435.148L542.677 435.341C534.536 428.217 531.814 424.855 540.834 417.497Z"/><path fill="url(#gradient_0)" d="M481.837 380.13C483.353 379.281 484.477 378.716 486.186 379.256C486.757 380.767 486.587 380.188 486.511 381.922C482.301 380.379 482.045 385.146 477.657 387.798L477.967 386.024C480.913 383.904 481.25 383.656 481.837 380.13Z"/><path fill="#F8F8F7" fill-opacity="0.027450981" d="M467.141 386.146L467.865 385.592L468.66 385.94C467.448 390.174 467.283 393.178 462.548 394.437L460.206 393.976C465.021 392.598 466.045 391.018 467.141 386.146Z"/><path fill="#F8F8F7" fill-opacity="0.015686275" d="M471.261 383.189C473.706 386.135 474.294 386.043 477.967 386.024L477.657 387.798C474.691 387.711 473.341 386.8 470.695 385.526L470.546 384.053L471.261 383.189Z"/></svg>